# MagicaVoxel @ Ephtracy

# group
o 

# material
mtllib ConfectionerBook.mtl
usemtl palette

# normals
vn -1 0 0
vn 1 0 0
vn 0 0 1
vn 0 0 -1
vn 0 -1 0
vn 0 1 0

# texcoords
vt 0.306641 0.5
vt 0.451172 0.5
vt 0.455078 0.5
vt 0.458984 0.5
vt 0.482422 0.5
vt 0.486328 0.5
vt 0.587891 0.5
vt 0.591797 0.5
vt 0.619141 0.5
vt 0.623047 0.5

# verts
v 0.6 2 -0.7
v 0.6 2 -3.4
v 0.6 3.2 -0.7
v 0.6 3.2 -3.4
v 0.8 2.2 -0.7
v 0.8 2.2 -0.8
v 0.8 2.2 -3.3
v 0.8 2.2 -3.4
v 0.8 3 -0.7
v 0.8 3 -0.8
v 0.8 3 -3.3
v 0.8 3 -3.4
v 3 2.2 -0.8
v 3 2.2 -3.3
v 3 3 -0.8
v 3 3 -3.3
v 3.1 2 -0.7
v 3.1 2 -3.4
v 3.1 2.2 -0.7
v 3.1 2.2 -3.4
v 3.1 3 -0.7
v 3.1 3 -3.4
v 3.1 3.2 -0.7
v 3.1 3.2 -3.4
v 0.6 2 -0.7
v 0.6 3.2 -0.7
v 0.8 2.2 -0.7
v 0.8 3 -0.7
v 3.1 2 -0.7
v 3.1 2.2 -0.7
v 3.1 3 -0.7
v 3.1 3.2 -0.7
v 0.8 2.2 -0.8
v 0.8 3 -0.8
v 0.9 2.4 -0.8
v 0.9 2.5 -0.8
v 0.9 2.7 -0.8
v 0.9 2.8 -0.8
v 1 2.3 -0.8
v 1 2.4 -0.8
v 1 2.6 -0.8
v 1 2.7 -0.8
v 1 2.8 -0.8
v 1 2.9 -0.8
v 1.1 2.2 -0.8
v 1.1 2.3 -0.8
v 1.1 2.5 -0.8
v 1.1 2.6 -0.8
v 1.3 2.2 -0.8
v 1.3 2.3 -0.8
v 1.3 2.9 -0.8
v 1.3 3 -0.8
v 1.4 2.2 -0.8
v 1.4 2.3 -0.8
v 3 2.2 -0.8
v 3 3 -0.8
v 0.8 2.2 -3.3
v 0.8 3 -3.3
v 0.9 2.4 -3.3
v 0.9 2.5 -3.3
v 1 2.3 -3.3
v 1 2.4 -3.3
v 1 2.6 -3.3
v 1 2.7 -3.3
v 1 2.8 -3.3
v 1 2.9 -3.3
v 1.1 2.5 -3.3
v 1.1 2.6 -3.3
v 1.1 2.9 -3.3
v 1.1 3 -3.3
v 1.2 2.2 -3.3
v 1.2 2.3 -3.3
v 1.2 2.7 -3.3
v 1.2 2.8 -3.3
v 3 2.2 -3.3
v 3 3 -3.3
v 0.6 2 -3.4
v 0.6 3.2 -3.4
v 0.8 2.2 -3.4
v 0.8 3 -3.4
v 3.1 2 -3.4
v 3.1 2.2 -3.4
v 3.1 3 -3.4
v 3.1 3.2 -3.4
v 0.6 2 -0.7
v 3.1 2 -0.7
v 0.6 2 -3.4
v 3.1 2 -3.4
v 0.8 3 -0.7
v 3.1 3 -0.7
v 0.8 3 -0.8
v 1.3 3 -0.8
v 3 3 -0.8
v 0.8 3 -3.3
v 1.1 3 -3.3
v 3 3 -3.3
v 0.8 3 -3.4
v 3.1 3 -3.4
v 0.8 2.2 -0.7
v 3.1 2.2 -0.7
v 0.8 2.2 -0.8
v 1.1 2.2 -0.8
v 1.3 2.2 -0.8
v 1.4 2.2 -0.8
v 3 2.2 -0.8
v 0.8 2.2 -3.3
v 1.2 2.2 -3.3
v 3 2.2 -3.3
v 0.8 2.2 -3.4
v 3.1 2.2 -3.4
v 0.6 3.2 -0.7
v 3.1 3.2 -0.7
v 0.8 3.2 -0.9
v 2.9 3.2 -0.9
v 1.6 3.2 -1.1
v 2.1 3.2 -1.1
v 1.4 3.2 -1.2
v 1.6 3.2 -1.2
v 2.1 3.2 -1.2
v 2.3 3.2 -1.2
v 1.2 3.2 -1.3
v 1.4 3.2 -1.3
v 1.6 3.2 -1.3
v 1.7 3.2 -1.3
v 1.8 3.2 -1.3
v 2.1 3.2 -1.3
v 2.3 3.2 -1.3
v 2.5 3.2 -1.3
v 1.2 3.2 -1.4
v 1.4 3.2 -1.4
v 1.6 3.2 -1.4
v 1.7 3.2 -1.4
v 1.8 3.2 -1.4
v 1.9 3.2 -1.4
v 2 3.2 -1.4
v 2.1 3.2 -1.4
v 2.3 3.2 -1.4
v 2.5 3.2 -1.4
v 1.1 3.2 -1.5
v 1.2 3.2 -1.5
v 1.3 3.2 -1.5
v 1.4 3.2 -1.5
v 1.9 3.2 -1.5
v 2 3.2 -1.5
v 2.2 3.2 -1.5
v 2.3 3.2 -1.5
v 2.5 3.2 -1.5
v 2.6 3.2 -1.5
v 1.1 3.2 -1.6
v 1.2 3.2 -1.6
v 1.3 3.2 -1.6
v 1.4 3.2 -1.6
v 1.6 3.2 -1.6
v 1.7 3.2 -1.6
v 2.2 3.2 -1.6
v 2.3 3.2 -1.6
v 2.5 3.2 -1.6
v 2.6 3.2 -1.6
v 1 3.2 -1.7
v 1.1 3.2 -1.7
v 1.2 3.2 -1.7
v 1.6 3.2 -1.7
v 1.7 3.2 -1.7
v 2.2 3.2 -1.7
v 2.3 3.2 -1.7
v 2.5 3.2 -1.7
v 2.6 3.2 -1.7
v 2.7 3.2 -1.7
v 1 3.2 -1.8
v 1.1 3.2 -1.8
v 1.4 3.2 -1.8
v 1.5 3.2 -1.8
v 2.2 3.2 -1.8
v 2.3 3.2 -1.8
v 2.6 3.2 -1.8
v 2.7 3.2 -1.8
v 1 3.2 -1.9
v 1.1 3.2 -1.9
v 1.2 3.2 -1.9
v 1.4 3.2 -1.9
v 1.5 3.2 -1.9
v 1.7 3.2 -1.9
v 1.8 3.2 -1.9
v 1.9 3.2 -1.9
v 2 3.2 -1.9
v 2.6 3.2 -1.9
v 2.7 3.2 -1.9
v 1.1 3.2 -2
v 1.2 3.2 -2
v 1.7 3.2 -2
v 1.8 3.2 -2
v 1.9 3.2 -2
v 2 3.2 -2
v 2.3 3.2 -2
v 2.4 3.2 -2
v 2.1 3.2 -2.1
v 2.2 3.2 -2.1
v 2.3 3.2 -2.1
v 2.4 3.2 -2.1
v 1 3.2 -2.2
v 1.1 3.2 -2.2
v 1.4 3.2 -2.2
v 1.5 3.2 -2.2
v 1.6 3.2 -2.2
v 1.7 3.2 -2.2
v 2.1 3.2 -2.2
v 2.2 3.2 -2.2
v 2.5 3.2 -2.2
v 2.6 3.2 -2.2
v 1 3.2 -2.3
v 1.1 3.2 -2.3
v 1.4 3.2 -2.3
v 1.5 3.2 -2.3
v 1.6 3.2 -2.3
v 1.7 3.2 -2.3
v 2.5 3.2 -2.3
v 2.6 3.2 -2.3
v 2.7 3.2 -2.3
v 1.2 3.2 -2.4
v 1.3 3.2 -2.4
v 1.1 3.2 -2.5
v 1.2 3.2 -2.5
v 1.3 3.2 -2.5
v 1.9 3.2 -2.5
v 2 3.2 -2.5
v 2.2 3.2 -2.5
v 2.3 3.2 -2.5
v 2.5 3.2 -2.5
v 2.6 3.2 -2.5
v 1.5 3.2 -2.6
v 1.6 3.2 -2.6
v 1.9 3.2 -2.6
v 2 3.2 -2.6
v 2.2 3.2 -2.6
v 2.3 3.2 -2.6
v 1.2 3.2 -2.7
v 1.4 3.2 -2.7
v 1.5 3.2 -2.7
v 1.6 3.2 -2.7
v 1.9 3.2 -2.7
v 2 3.2 -2.7
v 2.3 3.2 -2.7
v 2.5 3.2 -2.7
v 1.4 3.2 -2.8
v 1.6 3.2 -2.8
v 1.9 3.2 -2.8
v 2 3.2 -2.8
v 2.1 3.2 -2.8
v 2.3 3.2 -2.8
v 1.6 3.2 -2.9
v 2.1 3.2 -2.9
v 0.8 3.2 -3.2
v 2.9 3.2 -3.2
v 0.6 3.2 -3.4
v 3.1 3.2 -3.4

# faces
f 3/10/1 2/10/1 1/10/1
f 4/10/1 2/10/1 3/10/1
f 5/10/2 6/10/2 9/10/2
f 9/10/2 6/10/2 10/10/2
f 7/10/2 8/10/2 11/10/2
f 11/10/2 8/10/2 12/10/2
f 13/7/2 14/7/2 15/7/2
f 15/7/2 14/7/2 16/7/2
f 17/10/2 18/10/2 19/10/2
f 19/10/2 18/10/2 20/10/2
f 21/10/2 22/10/2 23/10/2
f 23/10/2 22/10/2 24/10/2
f 27/10/3 26/10/3 25/10/3
f 28/10/3 26/10/3 27/10/3
f 29/10/3 27/10/3 25/10/3
f 30/10/3 27/10/3 29/10/3
f 31/10/3 26/10/3 28/10/3
f 32/10/3 26/10/3 31/10/3
f 35/8/3 34/8/3 33/8/3
f 36/8/3 34/8/3 35/8/3
f 37/8/3 34/8/3 36/8/3
f 38/8/3 34/8/3 37/8/3
f 39/8/3 35/8/3 33/8/3
f 40/7/3 36/7/3 35/7/3
f 40/8/3 35/8/3 39/8/3
f 41/8/3 37/8/3 36/8/3
f 42/7/3 38/7/3 37/7/3
f 42/8/3 37/8/3 41/8/3
f 43/8/3 34/8/3 38/8/3
f 43/7/3 38/7/3 42/7/3
f 44/8/3 34/8/3 43/8/3
f 45/8/3 39/8/3 33/8/3
f 46/7/3 40/7/3 39/7/3
f 46/8/3 39/8/3 45/8/3
f 47/7/3 36/7/3 40/7/3
f 47/7/3 40/7/3 46/7/3
f 47/8/3 41/8/3 36/8/3
f 48/7/3 42/7/3 41/7/3
f 48/8/3 41/8/3 47/8/3
f 48/7/3 44/7/3 43/7/3
f 48/7/3 43/7/3 42/7/3
f 49/7/3 47/7/3 46/7/3
f 49/7/3 46/7/3 45/7/3
f 49/7/3 48/7/3 47/7/3
f 50/7/3 48/7/3 49/7/3
f 51/7/3 44/7/3 48/7/3
f 51/7/3 48/7/3 50/7/3
f 51/8/3 34/8/3 44/8/3
f 52/8/3 34/8/3 51/8/3
f 53/8/3 50/8/3 49/8/3
f 54/7/3 51/7/3 50/7/3
f 54/8/3 50/8/3 53/8/3
f 54/7/3 52/7/3 51/7/3
f 55/7/3 54/7/3 53/7/3
f 56/7/3 52/7/3 54/7/3
f 56/7/3 54/7/3 55/7/3
f 57/8/4 58/8/4 59/8/4
f 59/8/4 58/8/4 60/8/4
f 57/8/4 59/8/4 61/8/4
f 59/7/4 60/7/4 62/7/4
f 61/8/4 59/8/4 62/8/4
f 60/8/4 58/8/4 63/8/4
f 63/8/4 58/8/4 64/8/4
f 64/8/4 58/8/4 65/8/4
f 65/8/4 58/8/4 66/8/4
f 62/7/4 60/7/4 67/7/4
f 61/7/4 62/7/4 67/7/4
f 60/8/4 63/8/4 67/8/4
f 63/7/4 64/7/4 68/7/4
f 67/8/4 63/8/4 68/8/4
f 66/8/4 58/8/4 69/8/4
f 65/7/4 66/7/4 69/7/4
f 69/8/4 58/8/4 70/8/4
f 57/8/4 61/8/4 71/8/4
f 67/7/4 68/7/4 72/7/4
f 71/8/4 61/8/4 72/8/4
f 61/7/4 67/7/4 72/7/4
f 68/7/4 64/7/4 73/7/4
f 72/7/4 68/7/4 73/7/4
f 64/8/4 65/8/4 73/8/4
f 65/7/4 69/7/4 74/7/4
f 73/8/4 65/8/4 74/8/4
f 69/7/4 70/7/4 74/7/4
f 71/7/4 72/7/4 75/7/4
f 72/7/4 73/7/4 75/7/4
f 73/7/4 74/7/4 75/7/4
f 74/7/4 70/7/4 76/7/4
f 75/7/4 74/7/4 76/7/4
f 77/10/4 78/10/4 79/10/4
f 79/10/4 78/10/4 80/10/4
f 77/10/4 79/10/4 81/10/4
f 81/10/4 79/10/4 82/10/4
f 80/10/4 78/10/4 83/10/4
f 83/10/4 78/10/4 84/10/4
f 87/10/5 86/10/5 85/10/5
f 88/10/5 86/10/5 87/10/5
f 91/10/5 90/10/5 89/10/5
f 92/10/5 90/10/5 91/10/5
f 93/10/5 90/10/5 92/10/5
f 96/10/5 90/10/5 93/10/5
f 97/10/5 95/10/5 94/10/5
f 97/10/5 96/10/5 95/10/5
f 98/10/5 90/10/5 96/10/5
f 98/10/5 96/10/5 97/10/5
f 99/10/6 100/10/6 101/10/6
f 101/10/6 100/10/6 102/10/6
f 102/10/6 100/10/6 103/10/6
f 103/10/6 100/10/6 104/10/6
f 104/10/6 100/10/6 105/10/6
f 105/10/6 100/10/6 108/10/6
f 106/10/6 107/10/6 109/10/6
f 107/10/6 108/10/6 109/10/6
f 108/10/6 100/10/6 110/10/6
f 109/10/6 108/10/6 110/10/6
f 111/10/6 112/10/6 113/10/6
f 113/10/6 112/10/6 114/10/6
f 113/9/6 114/9/6 115/9/6
f 115/9/6 114/9/6 116/9/6
f 113/9/6 115/9/6 117/9/6
f 115/6/6 116/6/6 118/6/6
f 117/9/6 115/9/6 118/9/6
f 116/9/6 114/9/6 119/9/6
f 118/6/6 116/6/6 119/6/6
f 119/9/6 114/9/6 120/9/6
f 113/9/6 117/9/6 121/9/6
f 117/6/6 118/6/6 122/6/6
f 121/9/6 117/9/6 122/9/6
f 118/2/6 119/2/6 123/2/6
f 122/6/6 118/6/6 123/6/6
f 123/2/6 119/2/6 124/2/6
f 124/2/6 119/2/6 125/2/6
f 119/6/6 120/6/6 126/6/6
f 125/2/6 119/2/6 126/2/6
f 120/9/6 114/9/6 127/9/6
f 126/6/6 120/6/6 127/6/6
f 127/9/6 114/9/6 128/9/6
f 113/9/6 121/9/6 129/9/6
f 121/6/6 122/6/6 129/6/6
f 122/2/6 123/2/6 130/2/6
f 129/6/6 122/6/6 130/6/6
f 123/5/6 124/5/6 131/5/6
f 130/2/6 123/2/6 131/2/6
f 124/4/6 125/4/6 132/4/6
f 131/5/6 124/5/6 132/5/6
f 125/5/6 126/5/6 133/5/6
f 132/4/6 125/4/6 133/4/6
f 133/5/6 126/5/6 134/5/6
f 134/5/6 126/5/6 135/5/6
f 126/2/6 127/2/6 136/2/6
f 135/5/6 126/5/6 136/5/6
f 127/6/6 128/6/6 137/6/6
f 136/2/6 127/2/6 137/2/6
f 128/9/6 114/9/6 138/9/6
f 137/6/6 128/6/6 138/6/6
f 113/9/6 129/9/6 139/9/6
f 129/2/6 130/2/6 140/2/6
f 139/9/6 129/9/6 140/9/6
f 140/2/6 130/2/6 141/2/6
f 131/5/6 132/5/6 142/5/6
f 141/2/6 130/2/6 142/2/6
f 130/5/6 131/5/6 142/5/6
f 132/5/6 133/5/6 142/5/6
f 133/5/6 134/5/6 142/5/6
f 134/3/6 135/3/6 143/3/6
f 142/5/6 134/5/6 143/5/6
f 136/5/6 137/5/6 144/5/6
f 143/3/6 135/3/6 144/3/6
f 135/5/6 136/5/6 144/5/6
f 144/5/6 137/5/6 145/5/6
f 137/2/6 138/2/6 146/2/6
f 145/5/6 137/5/6 146/5/6
f 138/9/6 114/9/6 147/9/6
f 146/2/6 138/2/6 147/2/6
f 147/9/6 114/9/6 148/9/6
f 139/6/6 140/6/6 149/6/6
f 113/9/6 139/9/6 149/9/6
f 140/5/6 141/5/6 150/5/6
f 149/6/6 140/6/6 150/6/6
f 141/4/6 142/4/6 151/4/6
f 150/5/6 141/5/6 151/5/6
f 142/5/6 143/5/6 152/5/6
f 151/4/6 142/4/6 152/4/6
f 144/5/6 145/5/6 152/5/6
f 143/5/6 144/5/6 152/5/6
f 152/5/6 145/5/6 153/5/6
f 153/5/6 145/5/6 154/5/6
f 145/4/6 146/4/6 155/4/6
f 154/5/6 145/5/6 155/5/6
f 146/5/6 147/5/6 156/5/6
f 155/4/6 146/4/6 156/4/6
f 147/6/6 148/6/6 157/6/6
f 156/5/6 147/5/6 157/5/6
f 148/9/6 114/9/6 158/9/6
f 157/6/6 148/6/6 158/6/6
f 113/9/6 149/9/6 159/9/6
f 149/2/6 150/2/6 160/2/6
f 159/9/6 149/9/6 160/9/6
f 150/5/6 151/5/6 161/5/6
f 160/2/6 150/2/6 161/2/6
f 151/5/6 152/5/6 161/5/6
f 152/5/6 153/5/6 161/5/6
f 153/3/6 154/3/6 162/3/6
f 161/5/6 153/5/6 162/5/6
f 154/5/6 155/5/6 163/5/6
f 162/3/6 154/3/6 163/3/6
f 156/5/6 157/5/6 163/5/6
f 155/5/6 156/5/6 163/5/6
f 163/5/6 157/5/6 164/5/6
f 164/5/6 157/5/6 165/5/6
f 157/2/6 158/2/6 166/2/6
f 165/5/6 157/5/6 166/5/6
f 158/9/6 114/9/6 167/9/6
f 166/2/6 158/2/6 167/2/6
f 167/9/6 114/9/6 168/9/6
f 159/6/6 160/6/6 169/6/6
f 113/9/6 159/9/6 169/9/6
f 161/5/6 162/5/6 170/5/6
f 169/6/6 160/6/6 170/6/6
f 160/5/6 161/5/6 170/5/6
f 162/5/6 163/5/6 170/5/6
f 163/5/6 164/5/6 170/5/6
f 170/5/6 164/5/6 171/5/6
f 171/5/6 164/5/6 172/5/6
f 164/3/6 165/3/6 173/3/6
f 172/5/6 164/5/6 173/5/6
f 165/5/6 166/5/6 174/5/6
f 173/3/6 165/3/6 174/3/6
f 166/5/6 167/5/6 174/5/6
f 167/6/6 168/6/6 175/6/6
f 174/5/6 167/5/6 175/5/6
f 168/9/6 114/9/6 176/9/6
f 175/6/6 168/6/6 176/6/6
f 113/9/6 169/9/6 177/9/6
f 169/2/6 170/2/6 177/2/6
f 170/5/6 171/5/6 178/5/6
f 177/2/6 170/2/6 178/2/6
f 178/5/6 171/5/6 179/5/6
f 171/3/6 172/3/6 180/3/6
f 179/5/6 171/5/6 180/5/6
f 174/5/6 175/5/6 181/5/6
f 180/3/6 172/3/6 181/3/6
f 172/5/6 173/5/6 181/5/6
f 173/5/6 174/5/6 181/5/6
f 181/5/6 175/5/6 182/5/6
f 182/5/6 175/5/6 183/5/6
f 183/5/6 175/5/6 184/5/6
f 184/5/6 175/5/6 185/5/6
f 175/2/6 176/2/6 186/2/6
f 185/5/6 175/5/6 186/5/6
f 176/9/6 114/9/6 187/9/6
f 186/2/6 176/2/6 187/2/6
f 177/5/6 178/5/6 188/5/6
f 178/4/6 179/4/6 188/4/6
f 179/5/6 180/5/6 189/5/6
f 188/4/6 179/4/6 189/4/6
f 180/5/6 181/5/6 189/5/6
f 181/5/6 182/5/6 189/5/6
f 182/4/6 183/4/6 190/4/6
f 189/5/6 182/5/6 190/5/6
f 183/5/6 184/5/6 191/5/6
f 190/4/6 183/4/6 191/4/6
f 184/3/6 185/3/6 192/3/6
f 191/5/6 184/5/6 192/5/6
f 185/5/6 186/5/6 193/5/6
f 192/3/6 185/3/6 193/3/6
f 186/5/6 187/5/6 193/5/6
f 193/5/6 187/5/6 194/5/6
f 194/5/6 187/5/6 195/5/6
f 191/5/6 192/5/6 196/5/6
f 188/5/6 189/5/6 196/5/6
f 190/5/6 191/5/6 196/5/6
f 193/5/6 194/5/6 196/5/6
f 192/5/6 193/5/6 196/5/6
f 189/5/6 190/5/6 196/5/6
f 196/5/6 194/5/6 197/5/6
f 194/4/6 195/4/6 198/4/6
f 197/5/6 194/5/6 198/5/6
f 195/5/6 187/5/6 199/5/6
f 198/4/6 195/4/6 199/4/6
f 177/5/6 188/5/6 200/5/6
f 113/9/6 177/9/6 200/9/6
f 188/5/6 196/5/6 200/5/6
f 200/5/6 196/5/6 201/5/6
f 201/5/6 196/5/6 202/5/6
f 202/5/6 196/5/6 203/5/6
f 203/5/6 196/5/6 204/5/6
f 204/5/6 196/5/6 205/5/6
f 196/3/6 197/3/6 206/3/6
f 205/5/6 196/5/6 206/5/6
f 197/5/6 198/5/6 207/5/6
f 206/3/6 197/3/6 207/3/6
f 198/5/6 199/5/6 207/5/6
f 199/5/6 187/5/6 208/5/6
f 207/5/6 199/5/6 208/5/6
f 208/5/6 187/5/6 209/5/6
f 113/9/6 200/9/6 210/9/6
f 200/3/6 201/3/6 210/3/6
f 201/5/6 202/5/6 211/5/6
f 210/3/6 201/3/6 211/3/6
f 202/3/6 203/3/6 212/3/6
f 211/5/6 202/5/6 212/5/6
f 203/5/6 204/5/6 213/5/6
f 212/3/6 203/3/6 213/3/6
f 204/4/6 205/4/6 214/4/6
f 213/5/6 204/5/6 214/5/6
f 206/5/6 207/5/6 215/5/6
f 214/4/6 205/4/6 215/4/6
f 205/5/6 206/5/6 215/5/6
f 207/5/6 208/5/6 215/5/6
f 208/3/6 209/3/6 216/3/6
f 215/5/6 208/5/6 216/5/6
f 209/5/6 187/5/6 217/5/6
f 216/3/6 209/3/6 217/3/6
f 187/9/6 114/9/6 218/9/6
f 217/5/6 187/5/6 218/5/6
f 213/5/6 214/5/6 219/5/6
f 216/5/6 217/5/6 219/5/6
f 212/5/6 213/5/6 219/5/6
f 211/5/6 212/5/6 219/5/6
f 214/5/6 215/5/6 219/5/6
f 215/5/6 216/5/6 219/5/6
f 219/5/6 217/5/6 220/5/6
f 210/9/6 211/9/6 221/9/6
f 211/5/6 219/5/6 221/5/6
f 219/4/6 220/4/6 222/4/6
f 221/5/6 219/5/6 222/5/6
f 220/5/6 217/5/6 223/5/6
f 222/4/6 220/4/6 223/4/6
f 223/5/6 217/5/6 224/5/6
f 224/5/6 217/5/6 225/5/6
f 225/5/6 217/5/6 226/5/6
f 226/5/6 217/5/6 227/5/6
f 227/5/6 217/5/6 228/5/6
f 217/9/6 218/9/6 229/9/6
f 228/5/6 217/5/6 229/5/6
f 222/5/6 223/5/6 230/5/6
f 223/5/6 224/5/6 230/5/6
f 230/5/6 224/5/6 231/5/6
f 224/3/6 225/3/6 232/3/6
f 231/5/6 224/5/6 232/5/6
f 225/5/6 226/5/6 233/5/6
f 232/3/6 225/3/6 233/3/6
f 226/4/6 227/4/6 234/4/6
f 233/5/6 226/5/6 234/5/6
f 227/5/6 228/5/6 235/5/6
f 234/4/6 227/4/6 235/4/6
f 221/9/6 222/9/6 236/9/6
f 222/5/6 230/5/6 236/5/6
f 236/5/6 230/5/6 237/5/6
f 230/3/6 231/3/6 238/3/6
f 237/5/6 230/5/6 238/5/6
f 233/5/6 234/5/6 239/5/6
f 238/3/6 231/3/6 239/3/6
f 231/5/6 232/5/6 239/5/6
f 232/5/6 233/5/6 239/5/6
f 234/5/6 235/5/6 239/5/6
f 239/5/6 235/5/6 240/5/6
f 240/5/6 235/5/6 241/5/6
f 235/5/6 228/5/6 242/5/6
f 241/5/6 235/5/6 242/5/6
f 228/9/6 229/9/6 243/9/6
f 242/5/6 228/5/6 243/5/6
f 237/5/6 238/5/6 244/5/6
f 236/9/6 237/9/6 244/9/6
f 238/5/6 239/5/6 244/5/6
f 239/5/6 240/5/6 244/5/6
f 244/5/6 240/5/6 245/5/6
f 240/4/6 241/4/6 246/4/6
f 245/5/6 240/5/6 246/5/6
f 241/5/6 242/5/6 247/5/6
f 246/4/6 241/4/6 247/4/6
f 247/5/6 242/5/6 248/5/6
f 242/9/6 243/9/6 249/9/6
f 248/5/6 242/5/6 249/5/6
f 244/9/6 245/9/6 250/9/6
f 245/5/6 246/5/6 250/5/6
f 247/5/6 248/5/6 250/5/6
f 246/5/6 247/5/6 250/5/6
f 248/9/6 249/9/6 251/9/6
f 250/5/6 248/5/6 251/5/6
f 111/10/6 113/10/6 252/10/6
f 113/9/6 210/9/6 252/9/6
f 250/9/6 251/9/6 252/9/6
f 221/9/6 236/9/6 252/9/6
f 236/9/6 244/9/6 252/9/6
f 244/9/6 250/9/6 252/9/6
f 210/9/6 221/9/6 252/9/6
f 251/9/6 249/9/6 253/9/6
f 252/9/6 251/9/6 253/9/6
f 114/10/6 112/10/6 253/10/6
f 229/9/6 218/9/6 253/9/6
f 249/9/6 243/9/6 253/9/6
f 243/9/6 229/9/6 253/9/6
f 218/9/6 114/9/6 253/9/6
f 111/10/6 252/10/6 254/10/6
f 252/10/6 253/10/6 254/10/6
f 253/10/6 112/10/6 255/10/6
f 254/10/6 253/10/6 255/10/6
