# MagicaVoxel @ Ephtracy

# material
mtllib pizzaBook.mtl
usemtl palette

# normals
vn -1 0 0
vn 1 0 0
vn 0 0 1
vn 0 0 -1
vn 0 -1 0
vn 0 1 0

# texcoords
vt 0.115234 0.5
vt 0.326172 0.5
vt 0.357422 0.5
vt 0.380859 0.5
vt 0.384766 0.5
vt 0.404297 0.5
vt 0.486328 0.5
vt 0.595703 0.5
vt 0.673828 0.5
vt 0.705078 0.5
vt 0.994141 0.5

# verts
v -13 0 14
v -13 0 -11
v -13 2 12
v -13 2 -11
v -13 10 12
v -13 10 -11
v -13 12 14
v -13 12 -11
v -12 2 12
v -12 2 9
v -12 2 -10
v -12 3 10
v -12 3 9
v -12 4 10
v -12 4 9
v -12 5 11
v -12 5 9
v -12 6 11
v -12 6 10
v -12 6 9
v -12 6 7
v -12 7 11
v -12 7 10
v -12 7 9
v -12 7 7
v -12 8 11
v -12 8 10
v -12 9 10
v -12 9 8
v -12 10 12
v -12 10 8
v -12 10 -10
v 13 2 12
v 13 2 9
v 13 2 -10
v 13 3 10
v 13 3 9
v 13 3 8
v 13 4 11
v 13 4 10
v 13 4 9
v 13 4 8
v 13 5 11
v 13 5 9
v 13 6 10
v 13 6 9
v 13 7 11
v 13 7 10
v 13 8 11
v 13 8 10
v 13 9 10
v 13 9 9
v 13 10 12
v 13 10 9
v 13 10 -10
v 14 0 14
v 14 0 -11
v 14 2 12
v 14 2 -11
v 14 10 12
v 14 10 -11
v 14 12 14
v 14 12 -11
v -13 0 14
v -13 12 14
v 14 0 14
v 14 12 14
v -13 2 12
v -13 10 12
v -12 2 12
v -12 10 12
v 13 2 12
v 13 10 12
v 14 2 12
v 14 10 12
v -12 2 -10
v -12 10 -10
v 13 2 -10
v 13 10 -10
v -13 0 -11
v -13 2 -11
v -13 10 -11
v -13 12 -11
v 14 0 -11
v 14 2 -11
v 14 10 -11
v 14 12 -11
v -13 0 14
v 14 0 14
v -12 0 13
v 13 0 13
v -12 0 -10
v 13 0 -10
v -13 0 -11
v 14 0 -11
v -13 10 12
v -12 10 12
v 13 10 12
v 14 10 12
v 13 10 9
v -12 10 8
v -12 10 -10
v 13 10 -10
v -13 10 -11
v 14 10 -11
v -13 2 12
v -12 2 12
v 13 2 12
v 14 2 12
v -12 2 9
v 13 2 9
v -12 2 -10
v 13 2 -10
v -13 2 -11
v 14 2 -11
v -13 12 14
v 14 12 14
v -10 12 11
v 11 12 11
v -2 12 10
v 3 12 10
v -4 12 9
v -2 12 9
v 1 12 9
v 2 12 9
v 3 12 9
v 5 12 9
v -6 12 8
v -4 12 8
v -2 12 8
v 1 12 8
v 2 12 8
v 3 12 8
v 5 12 8
v 7 12 8
v -5 12 7
v -4 12 7
v -2 12 7
v -1 12 7
v 0 12 7
v 1 12 7
v 3 12 7
v 5 12 7
v 6 12 7
v -7 12 6
v -6 12 6
v -5 12 6
v -4 12 6
v -3 12 6
v -1 12 6
v 0 12 6
v 1 12 6
v 3 12 6
v 4 12 6
v 5 12 6
v 6 12 6
v 7 12 6
v 8 12 6
v 4 12 5
v 5 12 5
v -8 12 4
v -7 12 4
v -6 12 4
v -5 12 4
v -4 12 4
v -3 12 4
v -1 12 4
v 0 12 4
v 1 12 4
v 2 12 4
v 4 12 4
v 5 12 4
v 6 12 4
v 7 12 4
v 8 12 4
v 9 12 4
v -6 12 3
v -5 12 3
v -4 12 3
v -3 12 3
v -1 12 3
v 0 12 3
v 1 12 3
v 4 12 3
v 5 12 3
v 6 12 3
v 7 12 3
v 8 12 3
v -6 12 2
v -5 12 2
v -4 12 2
v -2 12 2
v 0 12 2
v 1 12 2
v 2 12 2
v 3 12 2
v 4 12 2
v 6 12 2
v 7 12 2
v 8 12 2
v -4 12 1
v -2 12 1
v -1 12 1
v 1 12 1
v 2 12 1
v 3 12 1
v 6 12 1
v 7 12 1
v 8 12 1
v -6 12 -0
v -4 12 -0
v -2 12 -0
v -1 12 -0
v 0 12 -0
v 1 12 -0
v 5 12 -0
v 6 12 -0
v -8 12 -1
v -7 12 -1
v -6 12 -1
v -5 12 -1
v -4 12 -1
v -2 12 -1
v 0 12 -1
v 1 12 -1
v 2 12 -1
v 4 12 -1
v 5 12 -1
v 6 12 -1
v 7 12 -1
v 8 12 -1
v 9 12 -1
v -5 12 -2
v -4 12 -2
v -1 12 -2
v 0 12 -2
v -7 12 -3
v -6 12 -3
v -5 12 -3
v -4 12 -3
v -2 12 -3
v -1 12 -3
v 0 12 -3
v 2 12 -3
v 3 12 -3
v 4 12 -3
v 5 12 -3
v 6 12 -3
v 7 12 -3
v 8 12 -3
v -5 12 -4
v -4 12 -4
v -2 12 -4
v -1 12 -4
v 0 12 -4
v 1 12 -4
v 2 12 -4
v 3 12 -4
v 5 12 -4
v -6 12 -5
v -4 12 -5
v -2 12 -5
v -1 12 -5
v 1 12 -5
v 3 12 -5
v 5 12 -5
v 6 12 -5
v 7 12 -5
v -4 12 -6
v -2 12 -6
v -1 12 -6
v 1 12 -6
v 3 12 -6
v 5 12 -6
v -2 12 -7
v 3 12 -7
v -10 12 -8
v 11 12 -8
v -13 12 -11
v 14 12 -11

# faces
f 3/10/1 2/10/1 1/10/1
f 4/10/1 2/10/1 3/10/1
f 5/10/1 3/10/1 1/10/1
f 7/10/1 5/10/1 1/10/1
f 7/10/1 6/10/1 5/10/1
f 8/10/1 6/10/1 7/10/1
f 12/3/1 10/3/1 9/3/1
f 13/7/1 11/7/1 10/7/1
f 13/3/1 10/3/1 12/3/1
f 14/3/1 12/3/1 9/3/1
f 14/7/1 13/7/1 12/7/1
f 15/7/1 11/7/1 13/7/1
f 15/7/1 13/7/1 14/7/1
f 16/3/1 14/3/1 9/3/1
f 16/3/1 15/3/1 14/3/1
f 17/7/1 11/7/1 15/7/1
f 17/3/1 15/3/1 16/3/1
f 18/3/1 16/3/1 9/3/1
f 18/7/1 17/7/1 16/7/1
f 19/7/1 17/7/1 18/7/1
f 20/7/1 11/7/1 17/7/1
f 20/7/1 17/7/1 19/7/1
f 21/7/1 11/7/1 20/7/1
f 22/3/1 19/3/1 18/3/1
f 22/3/1 18/3/1 9/3/1
f 23/7/1 20/7/1 19/7/1
f 23/3/1 19/3/1 22/3/1
f 24/3/1 21/3/1 20/3/1
f 24/7/1 20/7/1 23/7/1
f 25/7/1 11/7/1 21/7/1
f 25/3/1 21/3/1 24/3/1
f 26/7/1 24/7/1 23/7/1
f 26/7/1 23/7/1 22/7/1
f 26/7/1 25/7/1 24/7/1
f 26/3/1 22/3/1 9/3/1
f 27/7/1 25/7/1 26/7/1
f 28/3/1 27/3/1 26/3/1
f 28/7/1 25/7/1 27/7/1
f 29/7/1 25/7/1 28/7/1
f 30/3/1 26/3/1 9/3/1
f 30/3/1 28/3/1 26/3/1
f 30/3/1 29/3/1 28/3/1
f 31/7/1 25/7/1 29/7/1
f 31/3/1 29/3/1 30/3/1
f 32/7/1 11/7/1 25/7/1
f 32/7/1 25/7/1 31/7/1
f 33/3/2 34/3/2 36/3/2
f 34/7/2 35/7/2 37/7/2
f 36/3/2 34/3/2 37/3/2
f 37/7/2 35/7/2 38/7/2
f 33/3/2 36/3/2 39/3/2
f 36/7/2 37/7/2 40/7/2
f 39/3/2 36/3/2 40/3/2
f 37/3/2 38/3/2 41/3/2
f 40/7/2 37/7/2 41/7/2
f 38/7/2 35/7/2 42/7/2
f 41/3/2 38/3/2 42/3/2
f 40/7/2 41/7/2 43/7/2
f 33/3/2 39/3/2 43/3/2
f 41/7/2 42/7/2 43/7/2
f 39/7/2 40/7/2 43/7/2
f 43/7/2 42/7/2 44/7/2
f 43/3/2 44/3/2 45/3/2
f 44/7/2 42/7/2 46/7/2
f 45/3/2 44/3/2 46/3/2
f 33/3/2 43/3/2 47/3/2
f 43/3/2 45/3/2 47/3/2
f 45/7/2 46/7/2 48/7/2
f 47/3/2 45/3/2 48/3/2
f 33/3/2 47/3/2 49/3/2
f 47/7/2 48/7/2 49/7/2
f 48/7/2 46/7/2 50/7/2
f 49/7/2 48/7/2 50/7/2
f 49/3/2 50/3/2 51/3/2
f 50/7/2 46/7/2 51/7/2
f 46/7/2 42/7/2 52/7/2
f 51/7/2 46/7/2 52/7/2
f 49/3/2 51/3/2 53/3/2
f 33/3/2 49/3/2 53/3/2
f 51/3/2 52/3/2 53/3/2
f 52/7/2 42/7/2 54/7/2
f 53/3/2 52/3/2 54/3/2
f 42/7/2 35/7/2 55/7/2
f 54/7/2 42/7/2 55/7/2
f 56/10/2 57/10/2 58/10/2
f 58/10/2 57/10/2 59/10/2
f 56/10/2 58/10/2 60/10/2
f 56/10/2 60/10/2 62/10/2
f 60/10/2 61/10/2 62/10/2
f 62/10/2 61/10/2 63/10/2
f 66/10/3 65/10/3 64/10/3
f 67/10/3 65/10/3 66/10/3
f 68/10/4 69/10/4 70/10/4
f 70/10/4 69/10/4 71/10/4
f 72/10/4 73/10/4 74/10/4
f 74/10/4 73/10/4 75/10/4
f 76/7/4 77/7/4 78/7/4
f 78/7/4 77/7/4 79/7/4
f 80/10/4 81/10/4 84/10/4
f 84/10/4 81/10/4 85/10/4
f 82/10/4 83/10/4 86/10/4
f 86/10/4 83/10/4 87/10/4
f 90/10/5 89/10/5 88/10/5
f 91/10/5 89/10/5 90/10/5
f 92/10/5 90/10/5 88/10/5
f 92/11/5 91/11/5 90/11/5
f 93/10/5 89/10/5 91/10/5
f 93/11/5 91/11/5 92/11/5
f 94/10/5 92/10/5 88/10/5
f 94/10/5 93/10/5 92/10/5
f 95/10/5 89/10/5 93/10/5
f 95/10/5 93/10/5 94/10/5
f 100/10/5 99/10/5 98/10/5
f 101/10/5 97/10/5 96/10/5
f 102/10/5 101/10/5 96/10/5
f 103/10/5 99/10/5 100/10/5
f 104/10/5 102/10/5 96/10/5
f 104/10/5 103/10/5 102/10/5
f 105/10/5 99/10/5 103/10/5
f 105/10/5 103/10/5 104/10/5
f 106/10/6 107/10/6 110/10/6
f 108/10/6 109/10/6 111/10/6
f 106/10/6 110/10/6 112/10/6
f 111/10/6 109/10/6 113/10/6
f 106/10/6 112/10/6 114/10/6
f 112/10/6 113/10/6 114/10/6
f 113/10/6 109/10/6 115/10/6
f 114/10/6 113/10/6 115/10/6
f 116/10/6 117/10/6 118/10/6
f 118/10/6 117/10/6 119/10/6
f 118/9/6 119/9/6 120/9/6
f 120/9/6 119/9/6 121/9/6
f 118/9/6 120/9/6 122/9/6
f 120/2/6 121/2/6 123/2/6
f 122/9/6 120/9/6 123/9/6
f 123/2/6 121/2/6 124/2/6
f 124/2/6 121/2/6 125/2/6
f 121/9/6 119/9/6 126/9/6
f 125/2/6 121/2/6 126/2/6
f 126/9/6 119/9/6 127/9/6
f 118/9/6 122/9/6 128/9/6
f 122/2/6 123/2/6 129/2/6
f 128/9/6 122/9/6 129/9/6
f 123/6/6 124/6/6 130/6/6
f 129/2/6 123/2/6 130/2/6
f 124/8/6 125/8/6 131/8/6
f 130/6/6 124/6/6 131/6/6
f 125/6/6 126/6/6 132/6/6
f 131/8/6 125/8/6 132/8/6
f 126/2/6 127/2/6 133/2/6
f 132/6/6 126/6/6 133/6/6
f 127/9/6 119/9/6 134/9/6
f 133/2/6 127/2/6 134/2/6
f 134/9/6 119/9/6 135/9/6
f 128/2/6 129/2/6 136/2/6
f 129/6/6 130/6/6 137/6/6
f 136/2/6 129/2/6 137/2/6
f 130/5/6 131/5/6 138/5/6
f 137/6/6 130/6/6 138/6/6
f 138/5/6 131/5/6 139/5/6
f 139/5/6 131/5/6 140/5/6
f 132/1/6 133/1/6 141/1/6
f 140/5/6 131/5/6 141/5/6
f 131/1/6 132/1/6 141/1/6
f 133/6/6 134/6/6 142/6/6
f 141/1/6 133/1/6 142/1/6
f 134/2/6 135/2/6 143/2/6
f 142/6/6 134/6/6 143/6/6
f 143/2/6 135/2/6 144/2/6
f 118/9/6 128/9/6 145/9/6
f 128/2/6 136/2/6 146/2/6
f 145/9/6 128/9/6 146/9/6
f 136/6/6 137/6/6 147/6/6
f 146/2/6 136/2/6 147/2/6
f 138/5/6 139/5/6 148/5/6
f 147/6/6 137/6/6 148/6/6
f 137/5/6 138/5/6 148/5/6
f 148/5/6 139/5/6 149/5/6
f 139/8/6 140/8/6 150/8/6
f 149/5/6 139/5/6 150/5/6
f 140/4/6 141/4/6 151/4/6
f 150/8/6 140/8/6 151/8/6
f 141/1/6 142/1/6 152/1/6
f 151/4/6 141/4/6 152/4/6
f 142/5/6 143/5/6 153/5/6
f 152/1/6 142/1/6 153/1/6
f 153/5/6 143/5/6 154/5/6
f 143/6/6 144/6/6 155/6/6
f 154/5/6 143/5/6 155/5/6
f 144/2/6 135/2/6 156/2/6
f 155/6/6 144/6/6 156/6/6
f 135/9/6 119/9/6 157/9/6
f 156/2/6 135/2/6 157/2/6
f 157/9/6 119/9/6 158/9/6
f 154/8/6 155/8/6 159/8/6
f 153/5/6 154/5/6 159/5/6
f 152/5/6 153/5/6 159/5/6
f 155/5/6 156/5/6 160/5/6
f 159/8/6 155/8/6 160/8/6
f 118/9/6 145/9/6 161/9/6
f 145/2/6 146/2/6 162/2/6
f 161/9/6 145/9/6 162/9/6
f 146/6/6 147/6/6 163/6/6
f 162/2/6 146/2/6 163/2/6
f 148/5/6 149/5/6 164/5/6
f 163/6/6 147/6/6 164/6/6
f 147/5/6 148/5/6 164/5/6
f 164/5/6 149/5/6 165/5/6
f 149/1/6 150/1/6 166/1/6
f 165/5/6 149/5/6 166/5/6
f 150/5/6 151/5/6 167/5/6
f 166/1/6 150/1/6 167/1/6
f 151/4/6 152/4/6 168/4/6
f 167/5/6 151/5/6 168/5/6
f 152/5/6 159/5/6 169/5/6
f 168/4/6 152/4/6 169/4/6
f 159/5/6 160/5/6 169/5/6
f 169/5/6 160/5/6 170/5/6
f 170/5/6 160/5/6 171/5/6
f 160/5/6 156/5/6 172/5/6
f 171/5/6 160/5/6 172/5/6
f 156/6/6 157/6/6 173/6/6
f 172/5/6 156/5/6 173/5/6
f 157/2/6 158/2/6 174/2/6
f 173/6/6 157/6/6 174/6/6
f 158/9/6 119/9/6 175/9/6
f 174/2/6 158/2/6 175/2/6
f 175/9/6 119/9/6 176/9/6
f 162/6/6 163/6/6 177/6/6
f 164/5/6 165/5/6 177/5/6
f 163/5/6 164/5/6 177/5/6
f 177/5/6 165/5/6 178/5/6
f 165/8/6 166/8/6 179/8/6
f 178/5/6 165/5/6 179/5/6
f 166/5/6 167/5/6 180/5/6
f 179/8/6 166/8/6 180/8/6
f 167/8/6 168/8/6 181/8/6
f 180/5/6 167/5/6 181/5/6
f 168/5/6 169/5/6 182/5/6
f 181/8/6 168/8/6 182/8/6
f 169/5/6 170/5/6 182/5/6
f 182/5/6 170/5/6 183/5/6
f 170/1/6 171/1/6 184/1/6
f 171/8/6 172/8/6 184/8/6
f 173/5/6 174/5/6 185/5/6
f 184/8/6 172/8/6 185/8/6
f 172/5/6 173/5/6 185/5/6
f 185/5/6 174/5/6 186/5/6
f 174/6/6 175/6/6 187/6/6
f 186/5/6 174/5/6 187/5/6
f 175/2/6 176/2/6 188/2/6
f 187/6/6 175/6/6 188/6/6
f 177/8/6 178/8/6 189/8/6
f 162/6/6 177/6/6 189/6/6
f 179/5/6 180/5/6 190/5/6
f 189/8/6 178/8/6 190/8/6
f 181/5/6 182/5/6 190/5/6
f 178/5/6 179/5/6 190/5/6
f 180/5/6 181/5/6 190/5/6
f 190/5/6 182/5/6 191/5/6
f 191/5/6 182/5/6 192/5/6
f 182/4/6 183/4/6 193/4/6
f 192/5/6 182/5/6 193/5/6
f 183/5/6 170/5/6 194/5/6
f 193/4/6 183/4/6 194/4/6
f 170/1/6 184/1/6 195/1/6
f 194/5/6 170/5/6 195/5/6
f 195/1/6 184/1/6 196/1/6
f 184/5/6 185/5/6 197/5/6
f 196/1/6 184/1/6 197/1/6
f 185/5/6 186/5/6 197/5/6
f 186/1/6 187/1/6 198/1/6
f 197/5/6 186/5/6 198/5/6
f 187/1/6 188/1/6 198/1/6
f 198/1/6 188/1/6 199/1/6
f 188/2/6 176/2/6 200/2/6
f 199/1/6 188/1/6 200/1/6
f 190/1/6 191/1/6 201/1/6
f 191/4/6 192/4/6 201/4/6
f 189/1/6 190/1/6 201/1/6
f 192/1/6 193/1/6 202/1/6
f 201/4/6 192/4/6 202/4/6
f 202/1/6 193/1/6 203/1/6
f 193/4/6 194/4/6 204/4/6
f 194/8/6 195/8/6 204/8/6
f 195/5/6 196/5/6 205/5/6
f 204/8/6 195/8/6 205/8/6
f 196/4/6 197/4/6 206/4/6
f 205/5/6 196/5/6 206/5/6
f 197/4/6 198/4/6 206/4/6
f 198/1/6 199/1/6 207/1/6
f 206/4/6 198/4/6 207/4/6
f 199/8/6 200/8/6 208/8/6
f 207/1/6 199/1/6 208/1/6
f 200/2/6 176/2/6 209/2/6
f 208/8/6 200/8/6 209/8/6
f 189/1/6 201/1/6 210/1/6
f 162/6/6 189/6/6 210/6/6
f 201/5/6 202/5/6 211/5/6
f 210/1/6 201/1/6 211/1/6
f 202/8/6 203/8/6 212/8/6
f 211/5/6 202/5/6 212/5/6
f 203/1/6 193/1/6 213/1/6
f 212/8/6 203/8/6 213/8/6
f 193/4/6 204/4/6 214/4/6
f 213/1/6 193/1/6 214/1/6
f 204/5/6 205/5/6 215/5/6
f 214/4/6 204/4/6 215/4/6
f 205/5/6 206/5/6 215/5/6
f 207/5/6 208/5/6 215/5/6
f 206/5/6 207/5/6 215/5/6
f 215/5/6 208/5/6 216/5/6
f 216/5/6 208/5/6 217/5/6
f 118/9/6 161/9/6 218/9/6
f 161/2/6 162/2/6 218/2/6
f 162/6/6 210/6/6 219/6/6
f 218/2/6 162/2/6 219/2/6
f 211/5/6 212/5/6 220/5/6
f 219/6/6 210/6/6 220/6/6
f 213/5/6 214/5/6 220/5/6
f 215/5/6 216/5/6 220/5/6
f 214/5/6 215/5/6 220/5/6
f 210/5/6 211/5/6 220/5/6
f 212/5/6 213/5/6 220/5/6
f 220/5/6 216/5/6 221/5/6
f 221/5/6 216/5/6 222/5/6
f 222/5/6 216/5/6 223/5/6
f 223/5/6 216/5/6 224/5/6
f 224/5/6 216/5/6 225/5/6
f 225/5/6 216/5/6 226/5/6
f 226/5/6 216/5/6 227/5/6
f 216/8/6 217/8/6 228/8/6
f 227/5/6 216/5/6 228/5/6
f 217/5/6 208/5/6 229/5/6
f 228/8/6 217/8/6 229/8/6
f 208/6/6 209/6/6 230/6/6
f 229/5/6 208/5/6 230/5/6
f 209/2/6 176/2/6 231/2/6
f 230/6/6 209/6/6 231/6/6
f 176/9/6 119/9/6 232/9/6
f 231/2/6 176/2/6 232/2/6
f 220/6/6 221/6/6 233/6/6
f 221/8/6 222/8/6 233/8/6
f 222/1/6 223/1/6 234/1/6
f 233/8/6 222/8/6 234/8/6
f 223/5/6 224/5/6 235/5/6
f 224/4/6 225/4/6 236/4/6
f 235/5/6 224/5/6 236/5/6
f 218/9/6 219/9/6 237/9/6
f 219/2/6 220/2/6 237/2/6
f 220/6/6 233/6/6 238/6/6
f 237/2/6 220/2/6 238/2/6
f 233/5/6 234/5/6 239/5/6
f 238/6/6 233/6/6 239/6/6
f 234/1/6 223/1/6 240/1/6
f 239/5/6 234/5/6 240/5/6
f 223/5/6 235/5/6 241/5/6
f 240/1/6 223/1/6 241/1/6
f 235/8/6 236/8/6 242/8/6
f 241/5/6 235/5/6 242/5/6
f 236/4/6 225/4/6 243/4/6
f 242/8/6 236/8/6 243/8/6
f 226/1/6 227/1/6 244/1/6
f 225/5/6 226/5/6 244/5/6
f 244/1/6 227/1/6 245/1/6
f 228/5/6 229/5/6 246/5/6
f 245/1/6 227/1/6 246/1/6
f 227/5/6 228/5/6 246/5/6
f 246/5/6 229/5/6 247/5/6
f 229/6/6 230/6/6 248/6/6
f 247/5/6 229/5/6 248/5/6
f 230/2/6 231/2/6 249/2/6
f 248/6/6 230/6/6 249/6/6
f 231/9/6 232/9/6 250/9/6
f 249/2/6 231/2/6 250/2/6
f 238/2/6 239/2/6 251/2/6
f 239/6/6 240/6/6 251/6/6
f 241/5/6 242/5/6 252/5/6
f 251/6/6 240/6/6 252/6/6
f 240/5/6 241/5/6 252/5/6
f 242/5/6 243/5/6 252/5/6
f 252/5/6 243/5/6 253/5/6
f 253/5/6 243/5/6 254/5/6
f 243/4/6 225/4/6 255/4/6
f 254/5/6 243/5/6 255/5/6
f 225/5/6 244/5/6 256/5/6
f 255/4/6 225/4/6 256/4/6
f 244/8/6 245/8/6 257/8/6
f 256/5/6 244/5/6 257/5/6
f 246/5/6 247/5/6 258/5/6
f 257/8/6 245/8/6 258/8/6
f 245/5/6 246/5/6 258/5/6
f 247/6/6 248/6/6 259/6/6
f 258/5/6 247/5/6 259/5/6
f 238/2/6 251/2/6 260/2/6
f 237/9/6 238/9/6 260/9/6
f 251/2/6 252/2/6 260/2/6
f 252/6/6 253/6/6 261/6/6
f 260/2/6 252/2/6 261/2/6
f 253/5/6 254/5/6 262/5/6
f 261/6/6 253/6/6 262/6/6
f 255/1/6 256/1/6 263/1/6
f 262/5/6 254/5/6 263/5/6
f 254/1/6 255/1/6 263/1/6
f 256/5/6 257/5/6 264/5/6
f 263/1/6 256/1/6 264/1/6
f 257/5/6 258/5/6 264/5/6
f 258/6/6 259/6/6 265/6/6
f 264/5/6 258/5/6 265/5/6
f 259/6/6 248/6/6 266/6/6
f 265/6/6 259/6/6 266/6/6
f 248/2/6 249/2/6 267/2/6
f 266/6/6 248/6/6 267/6/6
f 249/9/6 250/9/6 268/9/6
f 267/2/6 249/2/6 268/2/6
f 261/2/6 262/2/6 269/2/6
f 260/9/6 261/9/6 269/9/6
f 262/6/6 263/6/6 270/6/6
f 269/2/6 262/2/6 270/2/6
f 263/1/6 264/1/6 271/1/6
f 270/6/6 263/6/6 271/6/6
f 264/6/6 265/6/6 272/6/6
f 271/1/6 264/1/6 272/1/6
f 265/2/6 266/2/6 273/2/6
f 272/6/6 265/6/6 273/6/6
f 266/9/6 267/9/6 274/9/6
f 273/2/6 266/2/6 274/2/6
f 267/9/6 268/9/6 274/9/6
f 272/2/6 273/2/6 275/2/6
f 270/2/6 271/2/6 275/2/6
f 269/9/6 270/9/6 275/9/6
f 271/2/6 272/2/6 275/2/6
f 273/9/6 274/9/6 276/9/6
f 275/2/6 273/2/6 276/2/6
f 116/10/6 118/10/6 277/10/6
f 260/9/6 269/9/6 277/9/6
f 275/9/6 276/9/6 277/9/6
f 269/9/6 275/9/6 277/9/6
f 237/9/6 260/9/6 277/9/6
f 118/9/6 218/9/6 277/9/6
f 218/9/6 237/9/6 277/9/6
f 276/9/6 274/9/6 278/9/6
f 277/9/6 276/9/6 278/9/6
f 119/10/6 117/10/6 278/10/6
f 268/9/6 250/9/6 278/9/6
f 250/9/6 232/9/6 278/9/6
f 274/9/6 268/9/6 278/9/6
f 232/9/6 119/9/6 278/9/6
f 116/10/6 277/10/6 279/10/6
f 277/10/6 278/10/6 279/10/6
f 278/10/6 117/10/6 280/10/6
f 279/10/6 278/10/6 280/10/6
