# MagicaVoxel @ Ephtracy

# group
o 

# material
mtllib grass6.mtl
usemtl palette

# normals
vn -1 0 0
vn 1 0 0
vn 0 0 1
vn 0 0 -1
vn 0 -1 0
vn 0 1 0

# texcoords
vt 0.603516 0.5
vt 0.626953 0.5
vt 0.630859 0.5
vt 0.634766 0.5

# verts
v 0 2 0
v 0 2 -0.2
v 0 2 -0.5
v 0 2 -4
v 0 2.1 0
v 0 2.1 -0.2
v 0 2.1 -0.5
v 0 2.1 -4
v 2.1 2 0
v 2.1 2 -0.2
v 2.1 2 -0.5
v 2.1 2 -1.3
v 2.1 2 -1.5
v 2.1 2 -4
v 2.1 2.1 0
v 2.1 2.1 -0.2
v 2.1 2.1 -0.5
v 2.1 2.1 -1.3
v 2.1 2.1 -1.5
v 2.1 2.1 -4
v 0 2 0
v 0 2.1 0
v 1.3 2 0
v 1.3 2.1 0
v 1.5 2 0
v 1.5 2.1 0
v 2.1 2 0
v 2.1 2.1 0
v 0 2 -4
v 0 2.1 -4
v 0.8 2 -4
v 0.8 2.1 -4
v 1.1 2 -4
v 1.1 2.1 -4
v 2.1 2 -4
v 2.1 2.1 -4
v 0 2 0
v 1.3 2 0
v 1.5 2 0
v 2.1 2 0
v 1.5 2 -0.1
v 1.6 2 -0.1
v 0 2 -0.2
v 0.2 2 -0.2
v 0.5 2 -0.2
v 0.6 2 -0.2
v 1.3 2 -0.2
v 1.6 2 -0.2
v 2 2 -0.2
v 2.1 2 -0.2
v 0.5 2 -0.3
v 0.6 2 -0.3
v 0 2 -0.5
v 0.2 2 -0.5
v 1 2 -0.5
v 1.2 2 -0.5
v 2 2 -0.5
v 2.1 2 -0.5
v 1.8 2 -0.6
v 2 2 -0.6
v 0.5 2 -0.7
v 0.7 2 -0.7
v 1.6 2 -0.7
v 1.7 2 -0.7
v 1 2 -0.8
v 1.2 2 -0.8
v 1.6 2 -0.8
v 1.7 2 -0.8
v 1.8 2 -0.8
v 2 2 -0.8
v 0.2 2 -1.1
v 0.4 2 -1.1
v 0.5 2 -1.1
v 0.7 2 -1.1
v 1.4 2 -1.2
v 1.5 2 -1.2
v 1.4 2 -1.3
v 1.5 2 -1.3
v 1.7 2 -1.3
v 1.9 2 -1.3
v 2.1 2 -1.3
v 1.9 2 -1.5
v 2.1 2 -1.5
v 0.2 2 -1.6
v 0.4 2 -1.6
v 0.4 2 -1.7
v 0.7 2 -1.7
v 0.8 2 -1.7
v 0.7 2 -1.8
v 0.8 2 -1.8
v 1 2 -1.8
v 1.3 2 -1.8
v 1.5 2 -1.8
v 1.7 2 -1.8
v 0.4 2 -2
v 0.7 2 -2
v 1 2 -2.1
v 1.2 2 -2.1
v 1.3 2 -2.1
v 1 2 -2.2
v 1.2 2 -2.2
v 1.3 2 -2.3
v 1.4 2 -2.3
v 1.7 2 -2.3
v 1.8 2 -2.3
v 0.2 2 -2.4
v 0.5 2 -2.4
v 1.3 2 -2.4
v 1.4 2 -2.4
v 1.7 2 -2.4
v 1.8 2 -2.4
v 0.2 2 -2.6
v 0.4 2 -2.6
v 0.5 2 -2.6
v 0.9 2 -2.6
v 1 2 -2.6
v 0.4 2 -2.7
v 0.5 2 -2.7
v 0.9 2 -2.7
v 1 2 -2.7
v 1 2 -2.9
v 1.2 2 -2.9
v 1.9 2 -2.9
v 2 2 -2.9
v 0.1 2 -3
v 0.3 2 -3
v 1.9 2 -3
v 2 2 -3
v 0.1 2 -3.1
v 0.3 2 -3.1
v 1.3 2 -3.1
v 1.5 2 -3.1
v 1 2 -3.2
v 1.2 2 -3.2
v 0.4 2 -3.3
v 0.7 2 -3.3
v 0.4 2 -3.5
v 0.7 2 -3.5
v 1.3 2 -3.5
v 1.5 2 -3.5
v 1.9 2 -3.6
v 2 2 -3.6
v 0.2 2 -3.7
v 0.5 2 -3.7
v 1.3 2 -3.7
v 1.4 2 -3.7
v 1.9 2 -3.7
v 2 2 -3.7
v 1.3 2 -3.8
v 1.4 2 -3.8
v 0.2 2 -3.9
v 0.5 2 -3.9
v 0.8 2 -3.9
v 1.1 2 -3.9
v 0 2 -4
v 0.8 2 -4
v 1.1 2 -4
v 2.1 2 -4
v 0 2.1 0
v 1.3 2.1 0
v 1.5 2.1 0
v 2.1 2.1 0
v 1.5 2.1 -0.1
v 1.6 2.1 -0.1
v 0 2.1 -0.2
v 0.2 2.1 -0.2
v 0.5 2.1 -0.2
v 0.6 2.1 -0.2
v 1.3 2.1 -0.2
v 1.6 2.1 -0.2
v 2 2.1 -0.2
v 2.1 2.1 -0.2
v 0.5 2.1 -0.3
v 0.6 2.1 -0.3
v 0 2.1 -0.5
v 0.2 2.1 -0.5
v 1 2.1 -0.5
v 1.2 2.1 -0.5
v 2 2.1 -0.5
v 2.1 2.1 -0.5
v 1.8 2.1 -0.6
v 2 2.1 -0.6
v 0.5 2.1 -0.7
v 0.7 2.1 -0.7
v 1.6 2.1 -0.7
v 1.7 2.1 -0.7
v 1 2.1 -0.8
v 1.2 2.1 -0.8
v 1.6 2.1 -0.8
v 1.7 2.1 -0.8
v 1.8 2.1 -0.8
v 2 2.1 -0.8
v 0.2 2.1 -1.1
v 0.4 2.1 -1.1
v 0.5 2.1 -1.1
v 0.7 2.1 -1.1
v 1.4 2.1 -1.2
v 1.5 2.1 -1.2
v 1.4 2.1 -1.3
v 1.5 2.1 -1.3
v 1.7 2.1 -1.3
v 1.9 2.1 -1.3
v 2.1 2.1 -1.3
v 1.9 2.1 -1.5
v 2.1 2.1 -1.5
v 0.2 2.1 -1.6
v 0.4 2.1 -1.6
v 0.4 2.1 -1.7
v 0.7 2.1 -1.7
v 0.8 2.1 -1.7
v 0.7 2.1 -1.8
v 0.8 2.1 -1.8
v 1 2.1 -1.8
v 1.3 2.1 -1.8
v 1.5 2.1 -1.8
v 1.7 2.1 -1.8
v 0.4 2.1 -2
v 0.7 2.1 -2
v 1 2.1 -2.1
v 1.2 2.1 -2.1
v 1.3 2.1 -2.1
v 1 2.1 -2.2
v 1.2 2.1 -2.2
v 1.3 2.1 -2.3
v 1.4 2.1 -2.3
v 1.7 2.1 -2.3
v 1.8 2.1 -2.3
v 0.2 2.1 -2.4
v 0.5 2.1 -2.4
v 1.3 2.1 -2.4
v 1.4 2.1 -2.4
v 1.7 2.1 -2.4
v 1.8 2.1 -2.4
v 0.2 2.1 -2.6
v 0.4 2.1 -2.6
v 0.5 2.1 -2.6
v 0.9 2.1 -2.6
v 1 2.1 -2.6
v 0.4 2.1 -2.7
v 0.5 2.1 -2.7
v 0.9 2.1 -2.7
v 1 2.1 -2.7
v 1 2.1 -2.9
v 1.2 2.1 -2.9
v 1.9 2.1 -2.9
v 2 2.1 -2.9
v 0.1 2.1 -3
v 0.3 2.1 -3
v 1.9 2.1 -3
v 2 2.1 -3
v 0.1 2.1 -3.1
v 0.3 2.1 -3.1
v 1.3 2.1 -3.1
v 1.5 2.1 -3.1
v 1 2.1 -3.2
v 1.2 2.1 -3.2
v 0.4 2.1 -3.3
v 0.7 2.1 -3.3
v 0.4 2.1 -3.5
v 0.7 2.1 -3.5
v 1.3 2.1 -3.5
v 1.5 2.1 -3.5
v 1.9 2.1 -3.6
v 2 2.1 -3.6
v 0.2 2.1 -3.7
v 0.5 2.1 -3.7
v 1.3 2.1 -3.7
v 1.4 2.1 -3.7
v 1.9 2.1 -3.7
v 2 2.1 -3.7
v 1.3 2.1 -3.8
v 1.4 2.1 -3.8
v 0.2 2.1 -3.9
v 0.5 2.1 -3.9
v 0.8 2.1 -3.9
v 1.1 2.1 -3.9
v 0 2.1 -4
v 0.8 2.1 -4
v 1.1 2.1 -4
v 2.1 2.1 -4

# faces
f 5/1/1 2/1/1 1/1/1
f 6/4/1 3/4/1 2/4/1
f 6/1/1 2/1/1 5/1/1
f 7/1/1 4/1/1 3/1/1
f 7/4/1 3/4/1 6/4/1
f 8/1/1 4/1/1 7/1/1
f 9/1/2 10/1/2 15/1/2
f 10/2/2 11/2/2 16/2/2
f 15/1/2 10/1/2 16/1/2
f 11/1/2 12/1/2 17/1/2
f 16/2/2 11/2/2 17/2/2
f 12/2/2 13/2/2 18/2/2
f 17/1/2 12/1/2 18/1/2
f 13/1/2 14/1/2 19/1/2
f 18/2/2 13/2/2 19/2/2
f 19/1/2 14/1/2 20/1/2
f 23/1/3 22/1/3 21/1/3
f 24/1/3 22/1/3 23/1/3
f 25/4/3 24/4/3 23/4/3
f 26/4/3 24/4/3 25/4/3
f 27/1/3 26/1/3 25/1/3
f 28/1/3 26/1/3 27/1/3
f 29/1/4 30/1/4 31/1/4
f 31/1/4 30/1/4 32/1/4
f 31/3/4 32/3/4 33/3/4
f 33/3/4 32/3/4 34/3/4
f 33/1/4 34/1/4 35/1/4
f 35/1/4 34/1/4 36/1/4
f 41/4/5 39/4/5 38/4/5
f 41/1/5 40/1/5 39/1/5
f 42/1/5 40/1/5 41/1/5
f 43/1/5 38/1/5 37/1/5
f 44/1/5 38/1/5 43/1/5
f 45/1/5 38/1/5 44/1/5
f 46/1/5 38/1/5 45/1/5
f 47/4/5 41/4/5 38/4/5
f 47/1/5 38/1/5 46/1/5
f 47/4/5 42/4/5 41/4/5
f 48/1/5 40/1/5 42/1/5
f 48/4/5 42/4/5 47/4/5
f 49/1/5 40/1/5 48/1/5
f 50/1/5 40/1/5 49/1/5
f 51/2/5 46/2/5 45/2/5
f 51/1/5 45/1/5 44/1/5
f 52/1/5 47/1/5 46/1/5
f 52/2/5 46/2/5 51/2/5
f 52/1/5 48/1/5 47/1/5
f 52/1/5 49/1/5 48/1/5
f 53/4/5 44/4/5 43/4/5
f 54/1/5 51/1/5 44/1/5
f 54/4/5 44/4/5 53/4/5
f 54/1/5 52/1/5 51/1/5
f 55/1/5 49/1/5 52/1/5
f 55/1/5 52/1/5 54/1/5
f 56/1/5 49/1/5 55/1/5
f 57/2/5 50/2/5 49/2/5
f 57/1/5 49/1/5 56/1/5
f 58/2/5 50/2/5 57/2/5
f 59/1/5 57/1/5 56/1/5
f 59/1/5 58/1/5 57/1/5
f 60/1/5 58/1/5 59/1/5
f 61/1/5 54/1/5 53/1/5
f 61/1/5 55/1/5 54/1/5
f 62/1/5 55/1/5 61/1/5
f 63/1/5 59/1/5 56/1/5
f 64/1/5 59/1/5 63/1/5
f 65/3/5 56/3/5 55/3/5
f 65/1/5 55/1/5 62/1/5
f 66/1/5 63/1/5 56/1/5
f 66/3/5 56/3/5 65/3/5
f 67/4/5 64/4/5 63/4/5
f 67/1/5 63/1/5 66/1/5
f 68/1/5 59/1/5 64/1/5
f 68/4/5 64/4/5 67/4/5
f 69/2/5 60/2/5 59/2/5
f 69/1/5 59/1/5 68/1/5
f 70/1/5 58/1/5 60/1/5
f 70/2/5 60/2/5 69/2/5
f 71/1/5 61/1/5 53/1/5
f 72/1/5 61/1/5 71/1/5
f 73/2/5 62/2/5 61/2/5
f 73/1/5 61/1/5 72/1/5
f 74/1/5 67/1/5 66/1/5
f 74/2/5 62/2/5 73/2/5
f 74/1/5 69/1/5 68/1/5
f 74/1/5 68/1/5 67/1/5
f 74/1/5 70/1/5 69/1/5
f 74/1/5 65/1/5 62/1/5
f 74/1/5 66/1/5 65/1/5
f 75/1/5 73/1/5 72/1/5
f 75/1/5 70/1/5 74/1/5
f 75/1/5 74/1/5 73/1/5
f 76/1/5 70/1/5 75/1/5
f 77/1/5 75/1/5 72/1/5
f 77/4/5 76/4/5 75/4/5
f 78/1/5 70/1/5 76/1/5
f 78/4/5 76/4/5 77/4/5
f 79/1/5 70/1/5 78/1/5
f 80/1/5 70/1/5 79/1/5
f 81/1/5 58/1/5 70/1/5
f 81/1/5 70/1/5 80/1/5
f 82/1/5 80/1/5 79/1/5
f 82/2/5 81/2/5 80/2/5
f 83/2/5 81/2/5 82/2/5
f 84/1/5 71/1/5 53/1/5
f 84/3/5 72/3/5 71/3/5
f 85/1/5 77/1/5 72/1/5
f 85/3/5 72/3/5 84/3/5
f 85/1/5 78/1/5 77/1/5
f 86/1/5 85/1/5 84/1/5
f 86/1/5 78/1/5 85/1/5
f 87/1/5 78/1/5 86/1/5
f 88/1/5 78/1/5 87/1/5
f 89/4/5 87/4/5 86/4/5
f 89/2/5 88/2/5 87/2/5
f 90/1/5 78/1/5 88/1/5
f 90/2/5 88/2/5 89/2/5
f 91/1/5 78/1/5 90/1/5
f 92/1/5 78/1/5 91/1/5
f 93/3/5 79/3/5 78/3/5
f 93/1/5 78/1/5 92/1/5
f 94/1/5 83/1/5 82/1/5
f 94/3/5 79/3/5 93/3/5
f 94/1/5 82/1/5 79/1/5
f 95/1/5 86/1/5 84/1/5
f 95/4/5 89/4/5 86/4/5
f 96/1/5 91/1/5 90/1/5
f 96/4/5 89/4/5 95/4/5
f 96/1/5 90/1/5 89/1/5
f 97/3/5 92/3/5 91/3/5
f 97/1/5 91/1/5 96/1/5
f 97/1/5 96/1/5 95/1/5
f 98/3/5 92/3/5 97/3/5
f 99/1/5 93/1/5 92/1/5
f 99/3/5 92/3/5 98/3/5
f 99/1/5 94/1/5 93/1/5
f 100/2/5 98/2/5 97/2/5
f 100/1/5 97/1/5 95/1/5
f 101/1/5 99/1/5 98/1/5
f 101/2/5 98/2/5 100/2/5
f 102/1/5 94/1/5 99/1/5
f 102/1/5 99/1/5 101/1/5
f 102/1/5 101/1/5 100/1/5
f 103/1/5 94/1/5 102/1/5
f 104/1/5 83/1/5 94/1/5
f 104/1/5 94/1/5 103/1/5
f 105/1/5 83/1/5 104/1/5
f 106/1/5 84/1/5 53/1/5
f 106/1/5 95/1/5 84/1/5
f 106/1/5 100/1/5 95/1/5
f 106/1/5 102/1/5 100/1/5
f 107/1/5 102/1/5 106/1/5
f 108/3/5 103/3/5 102/3/5
f 108/1/5 102/1/5 107/1/5
f 109/1/5 104/1/5 103/1/5
f 109/3/5 103/3/5 108/3/5
f 110/4/5 105/4/5 104/4/5
f 110/1/5 104/1/5 109/1/5
f 111/1/5 83/1/5 105/1/5
f 111/4/5 105/4/5 110/4/5
f 112/3/5 107/3/5 106/3/5
f 112/1/5 106/1/5 53/1/5
f 113/3/5 107/3/5 112/3/5
f 114/1/5 110/1/5 109/1/5
f 114/3/5 107/3/5 113/3/5
f 114/1/5 109/1/5 108/1/5
f 114/1/5 108/1/5 107/1/5
f 114/1/5 111/1/5 110/1/5
f 115/1/5 111/1/5 114/1/5
f 116/1/5 111/1/5 115/1/5
f 117/1/5 113/1/5 112/1/5
f 117/2/5 114/2/5 113/2/5
f 118/1/5 115/1/5 114/1/5
f 118/2/5 114/2/5 117/2/5
f 119/3/5 116/3/5 115/3/5
f 119/1/5 115/1/5 118/1/5
f 120/1/5 111/1/5 116/1/5
f 120/3/5 116/3/5 119/3/5
f 121/1/5 119/1/5 118/1/5
f 121/1/5 111/1/5 120/1/5
f 121/1/5 120/1/5 119/1/5
f 121/1/5 118/1/5 117/1/5
f 122/1/5 111/1/5 121/1/5
f 123/1/5 83/1/5 111/1/5
f 123/1/5 111/1/5 122/1/5
f 124/1/5 83/1/5 123/1/5
f 125/1/5 117/1/5 112/1/5
f 125/1/5 112/1/5 53/1/5
f 125/1/5 121/1/5 117/1/5
f 126/1/5 121/1/5 125/1/5
f 127/2/5 124/2/5 123/2/5
f 127/1/5 123/1/5 122/1/5
f 128/1/5 83/1/5 124/1/5
f 128/2/5 124/2/5 127/2/5
f 129/4/5 126/4/5 125/4/5
f 129/1/5 125/1/5 53/1/5
f 130/1/5 121/1/5 126/1/5
f 130/4/5 126/4/5 129/4/5
f 131/1/5 127/1/5 122/1/5
f 131/1/5 128/1/5 127/1/5
f 132/1/5 128/1/5 131/1/5
f 133/4/5 122/4/5 121/4/5
f 133/1/5 121/1/5 130/1/5
f 133/1/5 130/1/5 129/1/5
f 134/1/5 131/1/5 122/1/5
f 134/4/5 122/4/5 133/4/5
f 135/1/5 133/1/5 129/1/5
f 135/1/5 134/1/5 133/1/5
f 136/1/5 134/1/5 135/1/5
f 137/1/5 135/1/5 129/1/5
f 137/2/5 136/2/5 135/2/5
f 138/1/5 134/1/5 136/1/5
f 138/2/5 136/2/5 137/2/5
f 139/2/5 132/2/5 131/2/5
f 139/1/5 134/1/5 138/1/5
f 139/1/5 131/1/5 134/1/5
f 140/1/5 128/1/5 132/1/5
f 140/2/5 132/2/5 139/2/5
f 141/1/5 139/1/5 138/1/5
f 141/1/5 128/1/5 140/1/5
f 141/1/5 140/1/5 139/1/5
f 141/1/5 138/1/5 137/1/5
f 142/1/5 83/1/5 128/1/5
f 142/1/5 128/1/5 141/1/5
f 143/1/5 137/1/5 129/1/5
f 143/1/5 141/1/5 137/1/5
f 144/1/5 141/1/5 143/1/5
f 145/1/5 141/1/5 144/1/5
f 146/1/5 141/1/5 145/1/5
f 147/3/5 142/3/5 141/3/5
f 147/1/5 141/1/5 146/1/5
f 148/1/5 83/1/5 142/1/5
f 148/3/5 142/3/5 147/3/5
f 149/3/5 146/3/5 145/3/5
f 149/1/5 145/1/5 144/1/5
f 150/1/5 147/1/5 146/1/5
f 150/3/5 146/3/5 149/3/5
f 150/1/5 148/1/5 147/1/5
f 151/1/5 143/1/5 129/1/5
f 151/4/5 144/4/5 143/4/5
f 152/1/5 149/1/5 144/1/5
f 152/4/5 144/4/5 151/4/5
f 152/1/5 150/1/5 149/1/5
f 153/1/5 150/1/5 152/1/5
f 154/1/5 150/1/5 153/1/5
f 155/1/5 151/1/5 129/1/5
f 155/1/5 129/1/5 53/1/5
f 155/1/5 152/1/5 151/1/5
f 155/1/5 153/1/5 152/1/5
f 156/3/5 154/3/5 153/3/5
f 156/1/5 153/1/5 155/1/5
f 157/1/5 150/1/5 154/1/5
f 157/3/5 154/3/5 156/3/5
f 158/1/5 83/1/5 148/1/5
f 158/1/5 150/1/5 157/1/5
f 158/1/5 148/1/5 150/1/5
f 160/4/6 161/4/6 163/4/6
f 161/1/6 162/1/6 163/1/6
f 163/1/6 162/1/6 164/1/6
f 159/1/6 160/1/6 165/1/6
f 165/1/6 160/1/6 166/1/6
f 166/1/6 160/1/6 167/1/6
f 167/1/6 160/1/6 168/1/6
f 160/4/6 163/4/6 169/4/6
f 168/1/6 160/1/6 169/1/6
f 163/4/6 164/4/6 169/4/6
f 164/1/6 162/1/6 170/1/6
f 169/4/6 164/4/6 170/4/6
f 170/1/6 162/1/6 171/1/6
f 171/1/6 162/1/6 172/1/6
f 167/2/6 168/2/6 173/2/6
f 166/1/6 167/1/6 173/1/6
f 168/1/6 169/1/6 174/1/6
f 173/2/6 168/2/6 174/2/6
f 169/1/6 170/1/6 174/1/6
f 170/1/6 171/1/6 174/1/6
f 165/4/6 166/4/6 175/4/6
f 166/1/6 173/1/6 176/1/6
f 175/4/6 166/4/6 176/4/6
f 173/1/6 174/1/6 176/1/6
f 174/1/6 171/1/6 177/1/6
f 176/1/6 174/1/6 177/1/6
f 177/1/6 171/1/6 178/1/6
f 171/2/6 172/2/6 179/2/6
f 178/1/6 171/1/6 179/1/6
f 179/2/6 172/2/6 180/2/6
f 178/1/6 179/1/6 181/1/6
f 179/1/6 180/1/6 181/1/6
f 181/1/6 180/1/6 182/1/6
f 175/1/6 176/1/6 183/1/6
f 176/1/6 177/1/6 183/1/6
f 183/1/6 177/1/6 184/1/6
f 178/1/6 181/1/6 185/1/6
f 185/1/6 181/1/6 186/1/6
f 177/3/6 178/3/6 187/3/6
f 184/1/6 177/1/6 187/1/6
f 178/1/6 185/1/6 188/1/6
f 187/3/6 178/3/6 188/3/6
f 185/4/6 186/4/6 189/4/6
f 188/1/6 185/1/6 189/1/6
f 186/1/6 181/1/6 190/1/6
f 189/4/6 186/4/6 190/4/6
f 181/2/6 182/2/6 191/2/6
f 190/1/6 181/1/6 191/1/6
f 182/1/6 180/1/6 192/1/6
f 191/2/6 182/2/6 192/2/6
f 175/1/6 183/1/6 193/1/6
f 193/1/6 183/1/6 194/1/6
f 183/2/6 184/2/6 195/2/6
f 194/1/6 183/1/6 195/1/6
f 188/1/6 189/1/6 196/1/6
f 195/2/6 184/2/6 196/2/6
f 190/1/6 191/1/6 196/1/6
f 189/1/6 190/1/6 196/1/6
f 191/1/6 192/1/6 196/1/6
f 184/1/6 187/1/6 196/1/6
f 187/1/6 188/1/6 196/1/6
f 194/1/6 195/1/6 197/1/6
f 196/1/6 192/1/6 197/1/6
f 195/1/6 196/1/6 197/1/6
f 197/1/6 192/1/6 198/1/6
f 194/1/6 197/1/6 199/1/6
f 197/4/6 198/4/6 199/4/6
f 198/1/6 192/1/6 200/1/6
f 199/4/6 198/4/6 200/4/6
f 200/1/6 192/1/6 201/1/6
f 201/1/6 192/1/6 202/1/6
f 192/1/6 180/1/6 203/1/6
f 202/1/6 192/1/6 203/1/6
f 201/1/6 202/1/6 204/1/6
f 202/2/6 203/2/6 204/2/6
f 204/2/6 203/2/6 205/2/6
f 175/1/6 193/1/6 206/1/6
f 193/3/6 194/3/6 206/3/6
f 194/1/6 199/1/6 207/1/6
f 206/3/6 194/3/6 207/3/6
f 199/1/6 200/1/6 207/1/6
f 206/1/6 207/1/6 208/1/6
f 207/1/6 200/1/6 208/1/6
f 208/1/6 200/1/6 209/1/6
f 209/1/6 200/1/6 210/1/6
f 208/4/6 209/4/6 211/4/6
f 209/2/6 210/2/6 211/2/6
f 210/1/6 200/1/6 212/1/6
f 211/2/6 210/2/6 212/2/6
f 212/1/6 200/1/6 213/1/6
f 213/1/6 200/1/6 214/1/6
f 200/3/6 201/3/6 215/3/6
f 214/1/6 200/1/6 215/1/6
f 204/1/6 205/1/6 216/1/6
f 215/3/6 201/3/6 216/3/6
f 201/1/6 204/1/6 216/1/6
f 206/1/6 208/1/6 217/1/6
f 208/4/6 211/4/6 217/4/6
f 212/1/6 213/1/6 218/1/6
f 217/4/6 211/4/6 218/4/6
f 211/1/6 212/1/6 218/1/6
f 213/3/6 214/3/6 219/3/6
f 218/1/6 213/1/6 219/1/6
f 217/1/6 218/1/6 219/1/6
f 219/3/6 214/3/6 220/3/6
f 214/1/6 215/1/6 221/1/6
f 220/3/6 214/3/6 221/3/6
f 215/1/6 216/1/6 221/1/6
f 219/2/6 220/2/6 222/2/6
f 217/1/6 219/1/6 222/1/6
f 220/1/6 221/1/6 223/1/6
f 222/2/6 220/2/6 223/2/6
f 221/1/6 216/1/6 224/1/6
f 223/1/6 221/1/6 224/1/6
f 222/1/6 223/1/6 224/1/6
f 224/1/6 216/1/6 225/1/6
f 216/1/6 205/1/6 226/1/6
f 225/1/6 216/1/6 226/1/6
f 226/1/6 205/1/6 227/1/6
f 175/1/6 206/1/6 228/1/6
f 206/1/6 217/1/6 228/1/6
f 217/1/6 222/1/6 228/1/6
f 222/1/6 224/1/6 228/1/6
f 228/1/6 224/1/6 229/1/6
f 224/3/6 225/3/6 230/3/6
f 229/1/6 224/1/6 230/1/6
f 225/1/6 226/1/6 231/1/6
f 230/3/6 225/3/6 231/3/6
f 226/4/6 227/4/6 232/4/6
f 231/1/6 226/1/6 232/1/6
f 227/1/6 205/1/6 233/1/6
f 232/4/6 227/4/6 233/4/6
f 228/3/6 229/3/6 234/3/6
f 175/1/6 228/1/6 234/1/6
f 234/3/6 229/3/6 235/3/6
f 231/1/6 232/1/6 236/1/6
f 235/3/6 229/3/6 236/3/6
f 230/1/6 231/1/6 236/1/6
f 229/1/6 230/1/6 236/1/6
f 232/1/6 233/1/6 236/1/6
f 236/1/6 233/1/6 237/1/6
f 237/1/6 233/1/6 238/1/6
f 234/1/6 235/1/6 239/1/6
f 235/2/6 236/2/6 239/2/6
f 236/1/6 237/1/6 240/1/6
f 239/2/6 236/2/6 240/2/6
f 237/3/6 238/3/6 241/3/6
f 240/1/6 237/1/6 241/1/6
f 238/1/6 233/1/6 242/1/6
f 241/3/6 238/3/6 242/3/6
f 240/1/6 241/1/6 243/1/6
f 242/1/6 233/1/6 243/1/6
f 241/1/6 242/1/6 243/1/6
f 239/1/6 240/1/6 243/1/6
f 243/1/6 233/1/6 244/1/6
f 233/1/6 205/1/6 245/1/6
f 244/1/6 233/1/6 245/1/6
f 245/1/6 205/1/6 246/1/6
f 234/1/6 239/1/6 247/1/6
f 175/1/6 234/1/6 247/1/6
f 239/1/6 243/1/6 247/1/6
f 247/1/6 243/1/6 248/1/6
f 245/2/6 246/2/6 249/2/6
f 244/1/6 245/1/6 249/1/6
f 246/1/6 205/1/6 250/1/6
f 249/2/6 246/2/6 250/2/6
f 247/4/6 248/4/6 251/4/6
f 175/1/6 247/1/6 251/1/6
f 248/1/6 243/1/6 252/1/6
f 251/4/6 248/4/6 252/4/6
f 244/1/6 249/1/6 253/1/6
f 249/1/6 250/1/6 253/1/6
f 253/1/6 250/1/6 254/1/6
f 243/4/6 244/4/6 255/4/6
f 252/1/6 243/1/6 255/1/6
f 251/1/6 252/1/6 255/1/6
f 244/1/6 253/1/6 256/1/6
f 255/4/6 244/4/6 256/4/6
f 251/1/6 255/1/6 257/1/6
f 255/1/6 256/1/6 257/1/6
f 257/1/6 256/1/6 258/1/6
f 251/1/6 257/1/6 259/1/6
f 257/2/6 258/2/6 259/2/6
f 258/1/6 256/1/6 260/1/6
f 259/2/6 258/2/6 260/2/6
f 253/2/6 254/2/6 261/2/6
f 260/1/6 256/1/6 261/1/6
f 256/1/6 253/1/6 261/1/6
f 254/1/6 250/1/6 262/1/6
f 261/2/6 254/2/6 262/2/6
f 260/1/6 261/1/6 263/1/6
f 262/1/6 250/1/6 263/1/6
f 261/1/6 262/1/6 263/1/6
f 259/1/6 260/1/6 263/1/6
f 250/1/6 205/1/6 264/1/6
f 263/1/6 250/1/6 264/1/6
f 251/1/6 259/1/6 265/1/6
f 259/1/6 263/1/6 265/1/6
f 265/1/6 263/1/6 266/1/6
f 266/1/6 263/1/6 267/1/6
f 267/1/6 263/1/6 268/1/6
f 263/3/6 264/3/6 269/3/6
f 268/1/6 263/1/6 269/1/6
f 264/1/6 205/1/6 270/1/6
f 269/3/6 264/3/6 270/3/6
f 267/3/6 268/3/6 271/3/6
f 266/1/6 267/1/6 271/1/6
f 268/1/6 269/1/6 272/1/6
f 271/3/6 268/3/6 272/3/6
f 269/1/6 270/1/6 272/1/6
f 251/1/6 265/1/6 273/1/6
f 265/4/6 266/4/6 273/4/6
f 266/1/6 271/1/6 274/1/6
f 273/4/6 266/4/6 274/4/6
f 271/1/6 272/1/6 274/1/6
f 274/1/6 272/1/6 275/1/6
f 275/1/6 272/1/6 276/1/6
f 251/1/6 273/1/6 277/1/6
f 175/1/6 251/1/6 277/1/6
f 273/1/6 274/1/6 277/1/6
f 274/1/6 275/1/6 277/1/6
f 275/3/6 276/3/6 278/3/6
f 277/1/6 275/1/6 278/1/6
f 276/1/6 272/1/6 279/1/6
f 278/3/6 276/3/6 279/3/6
f 270/1/6 205/1/6 280/1/6
f 279/1/6 272/1/6 280/1/6
f 272/1/6 270/1/6 280/1/6
