# MagicaVoxel @ Ephtracy

# group
o 

# material
mtllib grass7.mtl
usemtl palette

# normals
vn -1 0 0
vn 1 0 0
vn 0 0 1
vn 0 0 -1
vn 0 -1 0
vn 0 1 0

# texcoords
vt 0.603516 0.5
vt 0.626953 0.5
vt 0.630859 0.5
vt 0.634766 0.5

# verts
v 0 2 0
v 0 2 -0.2
v 0 2 -0.5
v 0 2 -2.7
v 0 2.1 0
v 0 2.1 -0.2
v 0 2.1 -0.5
v 0 2.1 -2.7
v 2 2 0
v 2 2 -2.7
v 2 2.1 0
v 2 2.1 -2.7
v 0 2 0
v 0 2.1 0
v 1.3 2 0
v 1.3 2.1 0
v 1.5 2 0
v 1.5 2.1 0
v 2 2 0
v 2 2.1 0
v 0 2 -2.7
v 0 2.1 -2.7
v 0.4 2 -2.7
v 0.4 2.1 -2.7
v 0.5 2 -2.7
v 0.5 2.1 -2.7
v 0.9 2 -2.7
v 0.9 2.1 -2.7
v 1 2 -2.7
v 1 2.1 -2.7
v 2 2 -2.7
v 2 2.1 -2.7
v 0 2 0
v 1.3 2 0
v 1.5 2 0
v 2 2 0
v 1.5 2 -0.1
v 1.6 2 -0.1
v 0 2 -0.2
v 0.2 2 -0.2
v 0.5 2 -0.2
v 0.6 2 -0.2
v 1.3 2 -0.2
v 1.6 2 -0.2
v 0.5 2 -0.3
v 0.6 2 -0.3
v 0 2 -0.5
v 0.2 2 -0.5
v 1 2 -0.5
v 1.2 2 -0.5
v 1.8 2 -0.6
v 1.9 2 -0.6
v 0.5 2 -0.7
v 0.7 2 -0.7
v 1.6 2 -0.7
v 1.7 2 -0.7
v 1 2 -0.8
v 1.2 2 -0.8
v 1.6 2 -0.8
v 1.7 2 -0.8
v 1.8 2 -0.8
v 1.9 2 -0.8
v 0.2 2 -1.1
v 0.4 2 -1.1
v 0.5 2 -1.1
v 0.7 2 -1.1
v 1.4 2 -1.2
v 1.5 2 -1.2
v 1.4 2 -1.3
v 1.5 2 -1.3
v 1.7 2 -1.3
v 0.2 2 -1.6
v 0.4 2 -1.6
v 0.4 2 -1.7
v 0.7 2 -1.7
v 0.8 2 -1.7
v 0.7 2 -1.8
v 0.8 2 -1.8
v 1 2 -1.8
v 1.3 2 -1.8
v 1.5 2 -1.8
v 1.7 2 -1.8
v 0.4 2 -2
v 0.7 2 -2
v 1 2 -2.1
v 1.2 2 -2.1
v 1.3 2 -2.1
v 1 2 -2.2
v 1.2 2 -2.2
v 1.3 2 -2.3
v 1.4 2 -2.3
v 1.7 2 -2.3
v 1.8 2 -2.3
v 0.2 2 -2.4
v 0.5 2 -2.4
v 1.3 2 -2.4
v 1.4 2 -2.4
v 1.7 2 -2.4
v 1.8 2 -2.4
v 0.2 2 -2.6
v 0.4 2 -2.6
v 0.5 2 -2.6
v 0.9 2 -2.6
v 1 2 -2.6
v 0 2 -2.7
v 0.4 2 -2.7
v 0.5 2 -2.7
v 0.9 2 -2.7
v 1 2 -2.7
v 2 2 -2.7
v 0 2.1 0
v 1.3 2.1 0
v 1.5 2.1 0
v 2 2.1 0
v 1.5 2.1 -0.1
v 1.6 2.1 -0.1
v 0 2.1 -0.2
v 0.2 2.1 -0.2
v 0.5 2.1 -0.2
v 0.6 2.1 -0.2
v 1.3 2.1 -0.2
v 1.6 2.1 -0.2
v 0.5 2.1 -0.3
v 0.6 2.1 -0.3
v 0 2.1 -0.5
v 0.2 2.1 -0.5
v 1 2.1 -0.5
v 1.2 2.1 -0.5
v 1.8 2.1 -0.6
v 1.9 2.1 -0.6
v 0.5 2.1 -0.7
v 0.7 2.1 -0.7
v 1.6 2.1 -0.7
v 1.7 2.1 -0.7
v 1 2.1 -0.8
v 1.2 2.1 -0.8
v 1.6 2.1 -0.8
v 1.7 2.1 -0.8
v 1.8 2.1 -0.8
v 1.9 2.1 -0.8
v 0.2 2.1 -1.1
v 0.4 2.1 -1.1
v 0.5 2.1 -1.1
v 0.7 2.1 -1.1
v 1.4 2.1 -1.2
v 1.5 2.1 -1.2
v 1.4 2.1 -1.3
v 1.5 2.1 -1.3
v 1.7 2.1 -1.3
v 0.2 2.1 -1.6
v 0.4 2.1 -1.6
v 0.4 2.1 -1.7
v 0.7 2.1 -1.7
v 0.8 2.1 -1.7
v 0.7 2.1 -1.8
v 0.8 2.1 -1.8
v 1 2.1 -1.8
v 1.3 2.1 -1.8
v 1.5 2.1 -1.8
v 1.7 2.1 -1.8
v 0.4 2.1 -2
v 0.7 2.1 -2
v 1 2.1 -2.1
v 1.2 2.1 -2.1
v 1.3 2.1 -2.1
v 1 2.1 -2.2
v 1.2 2.1 -2.2
v 1.3 2.1 -2.3
v 1.4 2.1 -2.3
v 1.7 2.1 -2.3
v 1.8 2.1 -2.3
v 0.2 2.1 -2.4
v 0.5 2.1 -2.4
v 1.3 2.1 -2.4
v 1.4 2.1 -2.4
v 1.7 2.1 -2.4
v 1.8 2.1 -2.4
v 0.2 2.1 -2.6
v 0.4 2.1 -2.6
v 0.5 2.1 -2.6
v 0.9 2.1 -2.6
v 1 2.1 -2.6
v 0 2.1 -2.7
v 0.4 2.1 -2.7
v 0.5 2.1 -2.7
v 0.9 2.1 -2.7
v 1 2.1 -2.7
v 2 2.1 -2.7

# faces
f 5/1/1 2/1/1 1/1/1
f 6/4/1 3/4/1 2/4/1
f 6/1/1 2/1/1 5/1/1
f 7/1/1 4/1/1 3/1/1
f 7/4/1 3/4/1 6/4/1
f 8/1/1 4/1/1 7/1/1
f 9/1/2 10/1/2 11/1/2
f 11/1/2 10/1/2 12/1/2
f 15/1/3 14/1/3 13/1/3
f 16/1/3 14/1/3 15/1/3
f 17/4/3 16/4/3 15/4/3
f 18/4/3 16/4/3 17/4/3
f 19/1/3 18/1/3 17/1/3
f 20/1/3 18/1/3 19/1/3
f 21/1/4 22/1/4 23/1/4
f 23/1/4 22/1/4 24/1/4
f 23/2/4 24/2/4 25/2/4
f 25/2/4 24/2/4 26/2/4
f 25/1/4 26/1/4 27/1/4
f 27/1/4 26/1/4 28/1/4
f 27/3/4 28/3/4 29/3/4
f 29/3/4 28/3/4 30/3/4
f 29/1/4 30/1/4 31/1/4
f 31/1/4 30/1/4 32/1/4
f 37/4/5 35/4/5 34/4/5
f 37/1/5 36/1/5 35/1/5
f 38/1/5 36/1/5 37/1/5
f 39/1/5 34/1/5 33/1/5
f 40/1/5 34/1/5 39/1/5
f 41/1/5 34/1/5 40/1/5
f 42/1/5 34/1/5 41/1/5
f 43/4/5 37/4/5 34/4/5
f 43/1/5 34/1/5 42/1/5
f 43/4/5 38/4/5 37/4/5
f 44/1/5 36/1/5 38/1/5
f 44/4/5 38/4/5 43/4/5
f 45/2/5 42/2/5 41/2/5
f 45/1/5 41/1/5 40/1/5
f 46/1/5 43/1/5 42/1/5
f 46/2/5 42/2/5 45/2/5
f 46/1/5 44/1/5 43/1/5
f 47/4/5 40/4/5 39/4/5
f 48/1/5 45/1/5 40/1/5
f 48/4/5 40/4/5 47/4/5
f 48/1/5 46/1/5 45/1/5
f 49/1/5 44/1/5 46/1/5
f 49/1/5 46/1/5 48/1/5
f 50/1/5 44/1/5 49/1/5
f 51/1/5 36/1/5 44/1/5
f 51/1/5 44/1/5 50/1/5
f 52/1/5 36/1/5 51/1/5
f 53/1/5 48/1/5 47/1/5
f 53/1/5 49/1/5 48/1/5
f 54/1/5 49/1/5 53/1/5
f 55/1/5 51/1/5 50/1/5
f 56/1/5 51/1/5 55/1/5
f 57/3/5 50/3/5 49/3/5
f 57/1/5 49/1/5 54/1/5
f 58/1/5 55/1/5 50/1/5
f 58/3/5 50/3/5 57/3/5
f 59/4/5 56/4/5 55/4/5
f 59/1/5 55/1/5 58/1/5
f 60/1/5 51/1/5 56/1/5
f 60/4/5 56/4/5 59/4/5
f 61/2/5 52/2/5 51/2/5
f 61/1/5 51/1/5 60/1/5
f 62/1/5 36/1/5 52/1/5
f 62/2/5 52/2/5 61/2/5
f 63/1/5 53/1/5 47/1/5
f 64/1/5 53/1/5 63/1/5
f 65/2/5 54/2/5 53/2/5
f 65/1/5 53/1/5 64/1/5
f 66/1/5 59/1/5 58/1/5
f 66/2/5 54/2/5 65/2/5
f 66/1/5 61/1/5 60/1/5
f 66/1/5 60/1/5 59/1/5
f 66/1/5 62/1/5 61/1/5
f 66/1/5 57/1/5 54/1/5
f 66/1/5 58/1/5 57/1/5
f 67/1/5 65/1/5 64/1/5
f 67/1/5 62/1/5 66/1/5
f 67/1/5 66/1/5 65/1/5
f 68/1/5 62/1/5 67/1/5
f 69/1/5 67/1/5 64/1/5
f 69/4/5 68/4/5 67/4/5
f 70/1/5 62/1/5 68/1/5
f 70/4/5 68/4/5 69/4/5
f 71/1/5 62/1/5 70/1/5
f 72/1/5 63/1/5 47/1/5
f 72/3/5 64/3/5 63/3/5
f 73/1/5 69/1/5 64/1/5
f 73/3/5 64/3/5 72/3/5
f 73/1/5 70/1/5 69/1/5
f 74/1/5 73/1/5 72/1/5
f 74/1/5 70/1/5 73/1/5
f 75/1/5 70/1/5 74/1/5
f 76/1/5 70/1/5 75/1/5
f 77/4/5 75/4/5 74/4/5
f 77/2/5 76/2/5 75/2/5
f 78/1/5 70/1/5 76/1/5
f 78/2/5 76/2/5 77/2/5
f 79/1/5 70/1/5 78/1/5
f 80/1/5 70/1/5 79/1/5
f 81/3/5 71/3/5 70/3/5
f 81/1/5 70/1/5 80/1/5
f 82/1/5 62/1/5 71/1/5
f 82/3/5 71/3/5 81/3/5
f 83/1/5 74/1/5 72/1/5
f 83/4/5 77/4/5 74/4/5
f 84/1/5 78/1/5 77/1/5
f 84/4/5 77/4/5 83/4/5
f 84/1/5 79/1/5 78/1/5
f 85/3/5 80/3/5 79/3/5
f 85/1/5 79/1/5 84/1/5
f 85/1/5 84/1/5 83/1/5
f 86/3/5 80/3/5 85/3/5
f 87/1/5 81/1/5 80/1/5
f 87/3/5 80/3/5 86/3/5
f 87/1/5 82/1/5 81/1/5
f 88/2/5 86/2/5 85/2/5
f 88/1/5 85/1/5 83/1/5
f 89/1/5 87/1/5 86/1/5
f 89/2/5 86/2/5 88/2/5
f 90/1/5 82/1/5 87/1/5
f 90/1/5 87/1/5 89/1/5
f 90/1/5 89/1/5 88/1/5
f 91/1/5 82/1/5 90/1/5
f 92/1/5 62/1/5 82/1/5
f 92/1/5 82/1/5 91/1/5
f 93/1/5 62/1/5 92/1/5
f 94/1/5 88/1/5 83/1/5
f 94/1/5 83/1/5 72/1/5
f 94/1/5 72/1/5 47/1/5
f 94/1/5 90/1/5 88/1/5
f 95/1/5 90/1/5 94/1/5
f 96/3/5 91/3/5 90/3/5
f 96/1/5 90/1/5 95/1/5
f 97/1/5 92/1/5 91/1/5
f 97/3/5 91/3/5 96/3/5
f 98/4/5 93/4/5 92/4/5
f 98/1/5 92/1/5 97/1/5
f 99/1/5 62/1/5 93/1/5
f 99/4/5 93/4/5 98/4/5
f 100/3/5 95/3/5 94/3/5
f 100/1/5 94/1/5 47/1/5
f 101/3/5 95/3/5 100/3/5
f 102/1/5 98/1/5 97/1/5
f 102/3/5 95/3/5 101/3/5
f 102/1/5 97/1/5 96/1/5
f 102/1/5 96/1/5 95/1/5
f 102/1/5 99/1/5 98/1/5
f 103/1/5 99/1/5 102/1/5
f 104/1/5 99/1/5 103/1/5
f 105/1/5 101/1/5 100/1/5
f 105/1/5 100/1/5 47/1/5
f 106/2/5 102/2/5 101/2/5
f 106/1/5 101/1/5 105/1/5
f 107/1/5 103/1/5 102/1/5
f 107/2/5 102/2/5 106/2/5
f 108/3/5 104/3/5 103/3/5
f 108/1/5 103/1/5 107/1/5
f 109/1/5 99/1/5 104/1/5
f 109/3/5 104/3/5 108/3/5
f 110/1/5 36/1/5 62/1/5
f 110/1/5 99/1/5 109/1/5
f 110/1/5 62/1/5 99/1/5
f 112/4/6 113/4/6 115/4/6
f 113/1/6 114/1/6 115/1/6
f 115/1/6 114/1/6 116/1/6
f 111/1/6 112/1/6 117/1/6
f 117/1/6 112/1/6 118/1/6
f 118/1/6 112/1/6 119/1/6
f 119/1/6 112/1/6 120/1/6
f 112/4/6 115/4/6 121/4/6
f 120/1/6 112/1/6 121/1/6
f 115/4/6 116/4/6 121/4/6
f 116/1/6 114/1/6 122/1/6
f 121/4/6 116/4/6 122/4/6
f 119/2/6 120/2/6 123/2/6
f 118/1/6 119/1/6 123/1/6
f 120/1/6 121/1/6 124/1/6
f 123/2/6 120/2/6 124/2/6
f 121/1/6 122/1/6 124/1/6
f 117/4/6 118/4/6 125/4/6
f 118/1/6 123/1/6 126/1/6
f 125/4/6 118/4/6 126/4/6
f 123/1/6 124/1/6 126/1/6
f 124/1/6 122/1/6 127/1/6
f 126/1/6 124/1/6 127/1/6
f 127/1/6 122/1/6 128/1/6
f 122/1/6 114/1/6 129/1/6
f 128/1/6 122/1/6 129/1/6
f 129/1/6 114/1/6 130/1/6
f 125/1/6 126/1/6 131/1/6
f 126/1/6 127/1/6 131/1/6
f 131/1/6 127/1/6 132/1/6
f 128/1/6 129/1/6 133/1/6
f 133/1/6 129/1/6 134/1/6
f 127/3/6 128/3/6 135/3/6
f 132/1/6 127/1/6 135/1/6
f 128/1/6 133/1/6 136/1/6
f 135/3/6 128/3/6 136/3/6
f 133/4/6 134/4/6 137/4/6
f 136/1/6 133/1/6 137/1/6
f 134/1/6 129/1/6 138/1/6
f 137/4/6 134/4/6 138/4/6
f 129/2/6 130/2/6 139/2/6
f 138/1/6 129/1/6 139/1/6
f 130/1/6 114/1/6 140/1/6
f 139/2/6 130/2/6 140/2/6
f 125/1/6 131/1/6 141/1/6
f 141/1/6 131/1/6 142/1/6
f 131/2/6 132/2/6 143/2/6
f 142/1/6 131/1/6 143/1/6
f 136/1/6 137/1/6 144/1/6
f 143/2/6 132/2/6 144/2/6
f 138/1/6 139/1/6 144/1/6
f 137/1/6 138/1/6 144/1/6
f 139/1/6 140/1/6 144/1/6
f 132/1/6 135/1/6 144/1/6
f 135/1/6 136/1/6 144/1/6
f 142/1/6 143/1/6 145/1/6
f 144/1/6 140/1/6 145/1/6
f 143/1/6 144/1/6 145/1/6
f 145/1/6 140/1/6 146/1/6
f 142/1/6 145/1/6 147/1/6
f 145/4/6 146/4/6 147/4/6
f 146/1/6 140/1/6 148/1/6
f 147/4/6 146/4/6 148/4/6
f 148/1/6 140/1/6 149/1/6
f 125/1/6 141/1/6 150/1/6
f 141/3/6 142/3/6 150/3/6
f 142/1/6 147/1/6 151/1/6
f 150/3/6 142/3/6 151/3/6
f 147/1/6 148/1/6 151/1/6
f 150/1/6 151/1/6 152/1/6
f 151/1/6 148/1/6 152/1/6
f 152/1/6 148/1/6 153/1/6
f 153/1/6 148/1/6 154/1/6
f 152/4/6 153/4/6 155/4/6
f 153/2/6 154/2/6 155/2/6
f 154/1/6 148/1/6 156/1/6
f 155/2/6 154/2/6 156/2/6
f 156/1/6 148/1/6 157/1/6
f 157/1/6 148/1/6 158/1/6
f 148/3/6 149/3/6 159/3/6
f 158/1/6 148/1/6 159/1/6
f 149/1/6 140/1/6 160/1/6
f 159/3/6 149/3/6 160/3/6
f 150/1/6 152/1/6 161/1/6
f 152/4/6 155/4/6 161/4/6
f 155/1/6 156/1/6 162/1/6
f 161/4/6 155/4/6 162/4/6
f 156/1/6 157/1/6 162/1/6
f 157/3/6 158/3/6 163/3/6
f 162/1/6 157/1/6 163/1/6
f 161/1/6 162/1/6 163/1/6
f 163/3/6 158/3/6 164/3/6
f 158/1/6 159/1/6 165/1/6
f 164/3/6 158/3/6 165/3/6
f 159/1/6 160/1/6 165/1/6
f 163/2/6 164/2/6 166/2/6
f 161/1/6 163/1/6 166/1/6
f 164/1/6 165/1/6 167/1/6
f 166/2/6 164/2/6 167/2/6
f 165/1/6 160/1/6 168/1/6
f 167/1/6 165/1/6 168/1/6
f 166/1/6 167/1/6 168/1/6
f 168/1/6 160/1/6 169/1/6
f 160/1/6 140/1/6 170/1/6
f 169/1/6 160/1/6 170/1/6
f 170/1/6 140/1/6 171/1/6
f 161/1/6 166/1/6 172/1/6
f 150/1/6 161/1/6 172/1/6
f 125/1/6 150/1/6 172/1/6
f 166/1/6 168/1/6 172/1/6
f 172/1/6 168/1/6 173/1/6
f 168/3/6 169/3/6 174/3/6
f 173/1/6 168/1/6 174/1/6
f 169/1/6 170/1/6 175/1/6
f 174/3/6 169/3/6 175/3/6
f 170/4/6 171/4/6 176/4/6
f 175/1/6 170/1/6 176/1/6
f 171/1/6 140/1/6 177/1/6
f 176/4/6 171/4/6 177/4/6
f 172/3/6 173/3/6 178/3/6
f 125/1/6 172/1/6 178/1/6
f 178/3/6 173/3/6 179/3/6
f 175/1/6 176/1/6 180/1/6
f 179/3/6 173/3/6 180/3/6
f 174/1/6 175/1/6 180/1/6
f 173/1/6 174/1/6 180/1/6
f 176/1/6 177/1/6 180/1/6
f 180/1/6 177/1/6 181/1/6
f 181/1/6 177/1/6 182/1/6
f 178/1/6 179/1/6 183/1/6
f 125/1/6 178/1/6 183/1/6
f 179/2/6 180/2/6 184/2/6
f 183/1/6 179/1/6 184/1/6
f 180/1/6 181/1/6 185/1/6
f 184/2/6 180/2/6 185/2/6
f 181/3/6 182/3/6 186/3/6
f 185/1/6 181/1/6 186/1/6
f 182/1/6 177/1/6 187/1/6
f 186/3/6 182/3/6 187/3/6
f 140/1/6 114/1/6 188/1/6
f 187/1/6 177/1/6 188/1/6
f 177/1/6 140/1/6 188/1/6
