# MagicaVoxel @ Ephtracy

# group
o 

# material
mtllib asphalt3.mtl
usemtl palette

# normals
vn -1 0 0
vn 1 0 0
vn 0 0 1
vn 0 0 -1
vn 0 -1 0
vn 0 1 0

# texcoords
vt 0.306641 0.5
vt 0.943359 0.5
vt 0.970703 0.5

# verts
v 0 2 0
v 0 2 -2.2
v 0 2.1 0
v 0 2.1 -2.2
v 2.7 2 0
v 2.7 2 -2.2
v 2.7 2.1 0
v 2.7 2.1 -2.2
v 0 2 0
v 0 2.1 0
v 2.7 2 0
v 2.7 2.1 0
v 0 2 -2.2
v 0 2.1 -2.2
v 2.7 2 -2.2
v 2.7 2.1 -2.2
v 0 2 0
v 2.7 2 0
v 0.1 2 -0.1
v 2 2 -0.1
v 2.6 2 -0.1
v 0.2 2 -0.3
v 0.4 2 -0.3
v 0.2 2 -0.6
v 0.4 2 -0.6
v 1.6 2 -1
v 1.7 2 -1
v 1.6 2 -1.2
v 1.7 2 -1.2
v 0.1 2 -1.8
v 2 2 -1.8
v 0.1 2 -2.1
v 2.6 2 -2.1
v 0 2 -2.2
v 2.7 2 -2.2
v 0 2.1 0
v 2.7 2.1 0
v 0.1 2.1 -0.1
v 2 2.1 -0.1
v 2.6 2.1 -0.1
v 0.2 2.1 -0.3
v 0.4 2.1 -0.3
v 0.2 2.1 -0.6
v 0.4 2.1 -0.6
v 1.6 2.1 -1
v 1.7 2.1 -1
v 1.6 2.1 -1.2
v 1.7 2.1 -1.2
v 0.1 2.1 -1.8
v 2 2.1 -1.8
v 0.1 2.1 -2.1
v 2.6 2.1 -2.1
v 0 2.1 -2.2
v 2.7 2.1 -2.2

# faces
f 3/2/1 2/2/1 1/2/1
f 4/2/1 2/2/1 3/2/1
f 5/2/2 6/2/2 7/2/2
f 7/2/2 6/2/2 8/2/2
f 11/2/3 10/2/3 9/2/3
f 12/2/3 10/2/3 11/2/3
f 13/2/4 14/2/4 15/2/4
f 15/2/4 14/2/4 16/2/4
f 19/2/5 18/2/5 17/2/5
f 20/2/5 18/2/5 19/2/5
f 21/2/5 18/2/5 20/2/5
f 22/1/5 20/1/5 19/1/5
f 23/1/5 20/1/5 22/1/5
f 24/1/5 22/1/5 19/1/5
f 24/3/5 23/3/5 22/3/5
f 25/1/5 20/1/5 23/1/5
f 25/3/5 23/3/5 24/3/5
f 26/1/5 25/1/5 24/1/5
f 26/1/5 20/1/5 25/1/5
f 27/1/5 20/1/5 26/1/5
f 28/1/5 26/1/5 24/1/5
f 28/3/5 27/3/5 26/3/5
f 29/1/5 20/1/5 27/1/5
f 29/3/5 27/3/5 28/3/5
f 30/2/5 19/2/5 17/2/5
f 30/1/5 24/1/5 19/1/5
f 30/1/5 29/1/5 28/1/5
f 30/1/5 28/1/5 24/1/5
f 31/1/5 20/1/5 29/1/5
f 31/1/5 29/1/5 30/1/5
f 31/3/5 21/3/5 20/3/5
f 32/2/5 30/2/5 17/2/5
f 32/3/5 31/3/5 30/3/5
f 33/3/5 21/3/5 31/3/5
f 33/3/5 31/3/5 32/3/5
f 33/2/5 18/2/5 21/2/5
f 34/2/5 32/2/5 17/2/5
f 34/2/5 33/2/5 32/2/5
f 35/2/5 18/2/5 33/2/5
f 35/2/5 33/2/5 34/2/5
f 36/2/6 37/2/6 38/2/6
f 38/2/6 37/2/6 39/2/6
f 39/2/6 37/2/6 40/2/6
f 38/1/6 39/1/6 41/1/6
f 41/1/6 39/1/6 42/1/6
f 38/1/6 41/1/6 43/1/6
f 41/3/6 42/3/6 43/3/6
f 42/1/6 39/1/6 44/1/6
f 43/3/6 42/3/6 44/3/6
f 43/1/6 44/1/6 45/1/6
f 44/1/6 39/1/6 45/1/6
f 45/1/6 39/1/6 46/1/6
f 43/1/6 45/1/6 47/1/6
f 45/3/6 46/3/6 47/3/6
f 46/1/6 39/1/6 48/1/6
f 47/3/6 46/3/6 48/3/6
f 36/2/6 38/2/6 49/2/6
f 38/1/6 43/1/6 49/1/6
f 47/1/6 48/1/6 49/1/6
f 43/1/6 47/1/6 49/1/6
f 48/1/6 39/1/6 50/1/6
f 49/1/6 48/1/6 50/1/6
f 39/3/6 40/3/6 50/3/6
f 36/2/6 49/2/6 51/2/6
f 49/3/6 50/3/6 51/3/6
f 50/3/6 40/3/6 52/3/6
f 51/3/6 50/3/6 52/3/6
f 40/2/6 37/2/6 52/2/6
f 36/2/6 51/2/6 53/2/6
f 51/2/6 52/2/6 53/2/6
f 52/2/6 37/2/6 54/2/6
f 53/2/6 52/2/6 54/2/6
