# MagicaVoxel @ Ephtracy

# group
o 

# material
mtllib road2.mtl
usemtl palette

# normals
vn -1 0 0
vn 1 0 0
vn 0 0 1
vn 0 0 -1
vn 0 -1 0
vn 0 1 0

# texcoords
vt 0.908203 0.5
vt 0.912109 0.5
vt 0.916016 0.5
vt 0.919922 0.5

# verts
v 0 2 0
v 0 2 -4
v 0 2.1 0
v 0 2.1 -4
v 4 2 0
v 4 2 -3.7
v 4 2 -3.9
v 4 2 -4
v 4 2.1 0
v 4 2.1 -3.7
v 4 2.1 -3.9
v 4 2.1 -4
v 0 2 0
v 0 2.1 0
v 2.3 2 0
v 2.3 2.1 0
v 2.7 2 0
v 2.7 2.1 0
v 4 2 0
v 4 2.1 0
v 0 2 -4
v 0 2.1 -4
v 4 2 -4
v 4 2.1 -4
v 0 2 0
v 2.3 2 0
v 2.7 2 0
v 4 2 0
v 0.2 2 -0.2
v 0.6 2 -0.2
v 2.3 2 -0.2
v 2.7 2 -0.2
v 3 2 -0.2
v 3.5 2 -0.2
v 1.3 2 -0.6
v 2 2 -0.6
v 0.2 2 -0.8
v 0.6 2 -0.8
v 1.3 2 -0.8
v 2 2 -0.8
v 3 2 -0.8
v 3.5 2 -0.8
v 3.6 2 -0.8
v 3.5 2 -0.9
v 3.6 2 -0.9
v 1.8 2 -1
v 2 2 -1
v 0.1 2 -1.3
v 0.6 2 -1.3
v 1.8 2 -1.3
v 2 2 -1.3
v 0.8 2 -1.4
v 1 2 -1.4
v 2.2 2 -1.4
v 2.3 2 -1.4
v 3 2 -1.4
v 3.3 2 -1.4
v 0.8 2 -1.5
v 1 2 -1.5
v 1.3 2 -1.5
v 1.4 2 -1.5
v 2.2 2 -1.5
v 2.3 2 -1.5
v 1.3 2 -1.6
v 1.4 2 -1.6
v 0.1 2 -1.7
v 0.6 2 -1.7
v 2.9 2 -1.8
v 3 2 -1.8
v 3.7 2 -1.8
v 3.8 2 -1.8
v 1.4 2 -1.9
v 1.5 2 -1.9
v 1.9 2 -1.9
v 2.3 2 -1.9
v 2.9 2 -1.9
v 3 2 -1.9
v 3.3 2 -1.9
v 3.7 2 -1.9
v 3.8 2 -1.9
v 1.4 2 -2
v 1.5 2 -2
v 2.7 2 -2.2
v 3.5 2 -2.2
v 0.4 2 -2.3
v 0.9 2 -2.3
v 1 2 -2.3
v 1.1 2 -2.3
v 1.9 2 -2.3
v 2.3 2 -2.3
v 1.1 2 -2.4
v 1.6 2 -2.4
v 0.1 2 -2.5
v 0.2 2 -2.5
v 0.4 2 -2.5
v 0.9 2 -2.5
v 2.7 2 -2.5
v 3.5 2 -2.5
v 0.1 2 -2.6
v 0.2 2 -2.6
v 1.1 2 -2.7
v 1.6 2 -2.7
v 1.9 2 -2.8
v 2 2 -2.8
v 1 2 -2.9
v 1.1 2 -2.9
v 1.9 2 -2.9
v 2 2 -2.9
v 0.1 2 -3
v 0.4 2 -3
v 3.7 2 -3
v 3.8 2 -3
v 2.2 2 -3.1
v 2.3 2 -3.1
v 2.9 2 -3.1
v 3.2 2 -3.1
v 0.1 2 -3.2
v 0.4 2 -3.2
v 2.2 2 -3.2
v 2.3 2 -3.2
v 3.7 2 -3.2
v 3.8 2 -3.2
v 0.8 2 -3.3
v 1 2 -3.3
v 1.6 2 -3.4
v 2.1 2 -3.4
v 2.9 2 -3.5
v 3.2 2 -3.5
v 0.8 2 -3.6
v 1 2 -3.6
v 0.4 2 -3.7
v 0.9 2 -3.7
v 1.6 2 -3.7
v 2.1 2 -3.7
v 3.6 2 -3.7
v 4 2 -3.7
v 0.4 2 -3.9
v 0.9 2 -3.9
v 3.6 2 -3.9
v 4 2 -3.9
v 0 2 -4
v 4 2 -4
v 0 2.1 0
v 2.3 2.1 0
v 2.7 2.1 0
v 4 2.1 0
v 0.2 2.1 -0.2
v 0.6 2.1 -0.2
v 2.3 2.1 -0.2
v 2.7 2.1 -0.2
v 3 2.1 -0.2
v 3.5 2.1 -0.2
v 1.3 2.1 -0.6
v 2 2.1 -0.6
v 0.2 2.1 -0.8
v 0.6 2.1 -0.8
v 1.3 2.1 -0.8
v 2 2.1 -0.8
v 3 2.1 -0.8
v 3.5 2.1 -0.8
v 3.6 2.1 -0.8
v 3.5 2.1 -0.9
v 3.6 2.1 -0.9
v 1.8 2.1 -1
v 2 2.1 -1
v 0.1 2.1 -1.3
v 0.6 2.1 -1.3
v 1.8 2.1 -1.3
v 2 2.1 -1.3
v 0.8 2.1 -1.4
v 1 2.1 -1.4
v 2.2 2.1 -1.4
v 2.3 2.1 -1.4
v 3 2.1 -1.4
v 3.3 2.1 -1.4
v 0.8 2.1 -1.5
v 1 2.1 -1.5
v 1.3 2.1 -1.5
v 1.4 2.1 -1.5
v 2.2 2.1 -1.5
v 2.3 2.1 -1.5
v 1.3 2.1 -1.6
v 1.4 2.1 -1.6
v 0.1 2.1 -1.7
v 0.6 2.1 -1.7
v 2.9 2.1 -1.8
v 3 2.1 -1.8
v 3.7 2.1 -1.8
v 3.8 2.1 -1.8
v 1.4 2.1 -1.9
v 1.5 2.1 -1.9
v 1.9 2.1 -1.9
v 2.3 2.1 -1.9
v 2.9 2.1 -1.9
v 3 2.1 -1.9
v 3.3 2.1 -1.9
v 3.7 2.1 -1.9
v 3.8 2.1 -1.9
v 1.4 2.1 -2
v 1.5 2.1 -2
v 2.7 2.1 -2.2
v 3.5 2.1 -2.2
v 0.4 2.1 -2.3
v 0.9 2.1 -2.3
v 1 2.1 -2.3
v 1.1 2.1 -2.3
v 1.9 2.1 -2.3
v 2.3 2.1 -2.3
v 1.1 2.1 -2.4
v 1.6 2.1 -2.4
v 0.1 2.1 -2.5
v 0.2 2.1 -2.5
v 0.4 2.1 -2.5
v 0.9 2.1 -2.5
v 2.7 2.1 -2.5
v 3.5 2.1 -2.5
v 0.1 2.1 -2.6
v 0.2 2.1 -2.6
v 1.1 2.1 -2.7
v 1.6 2.1 -2.7
v 1.9 2.1 -2.8
v 2 2.1 -2.8
v 1 2.1 -2.9
v 1.1 2.1 -2.9
v 1.9 2.1 -2.9
v 2 2.1 -2.9
v 0.1 2.1 -3
v 0.4 2.1 -3
v 3.7 2.1 -3
v 3.8 2.1 -3
v 2.2 2.1 -3.1
v 2.3 2.1 -3.1
v 2.9 2.1 -3.1
v 3.2 2.1 -3.1
v 0.1 2.1 -3.2
v 0.4 2.1 -3.2
v 2.2 2.1 -3.2
v 2.3 2.1 -3.2
v 3.7 2.1 -3.2
v 3.8 2.1 -3.2
v 0.8 2.1 -3.3
v 1 2.1 -3.3
v 1.6 2.1 -3.4
v 2.1 2.1 -3.4
v 2.9 2.1 -3.5
v 3.2 2.1 -3.5
v 0.8 2.1 -3.6
v 1 2.1 -3.6
v 0.4 2.1 -3.7
v 0.9 2.1 -3.7
v 1.6 2.1 -3.7
v 2.1 2.1 -3.7
v 3.6 2.1 -3.7
v 4 2.1 -3.7
v 0.4 2.1 -3.9
v 0.9 2.1 -3.9
v 3.6 2.1 -3.9
v 4 2.1 -3.9
v 0 2.1 -4
v 4 2.1 -4

# faces
f 3/1/1 2/1/1 1/1/1
f 4/1/1 2/1/1 3/1/1
f 5/1/2 6/1/2 9/1/2
f 6/4/2 7/4/2 10/4/2
f 9/1/2 6/1/2 10/1/2
f 7/1/2 8/1/2 11/1/2
f 10/4/2 7/4/2 11/4/2
f 11/1/2 8/1/2 12/1/2
f 15/1/3 14/1/3 13/1/3
f 16/1/3 14/1/3 15/1/3
f 17/4/3 16/4/3 15/4/3
f 18/4/3 16/4/3 17/4/3
f 19/1/3 18/1/3 17/1/3
f 20/1/3 18/1/3 19/1/3
f 21/1/4 22/1/4 23/1/4
f 23/1/4 22/1/4 24/1/4
f 29/1/5 26/1/5 25/1/5
f 30/1/5 26/1/5 29/1/5
f 31/4/5 27/4/5 26/4/5
f 31/1/5 26/1/5 30/1/5
f 32/1/5 28/1/5 27/1/5
f 32/4/5 27/4/5 31/4/5
f 33/1/5 28/1/5 32/1/5
f 34/1/5 28/1/5 33/1/5
f 35/1/5 31/1/5 30/1/5
f 35/1/5 32/1/5 31/1/5
f 35/1/5 33/1/5 32/1/5
f 36/1/5 33/1/5 35/1/5
f 37/3/5 30/3/5 29/3/5
f 37/1/5 29/1/5 25/1/5
f 38/1/5 35/1/5 30/1/5
f 38/3/5 30/3/5 37/3/5
f 39/2/5 36/2/5 35/2/5
f 39/1/5 35/1/5 38/1/5
f 40/1/5 33/1/5 36/1/5
f 40/2/5 36/2/5 39/2/5
f 41/3/5 34/3/5 33/3/5
f 41/1/5 33/1/5 40/1/5
f 42/1/5 28/1/5 34/1/5
f 42/3/5 34/3/5 41/3/5
f 43/1/5 28/1/5 42/1/5
f 44/1/5 41/1/5 40/1/5
f 44/1/5 39/1/5 38/1/5
f 44/2/5 43/2/5 42/2/5
f 44/1/5 42/1/5 41/1/5
f 44/1/5 38/1/5 37/1/5
f 44/1/5 40/1/5 39/1/5
f 45/1/5 28/1/5 43/1/5
f 45/2/5 43/2/5 44/2/5
f 46/1/5 44/1/5 37/1/5
f 46/1/5 45/1/5 44/1/5
f 47/1/5 45/1/5 46/1/5
f 48/1/5 37/1/5 25/1/5
f 48/1/5 46/1/5 37/1/5
f 49/1/5 46/1/5 48/1/5
f 50/4/5 47/4/5 46/4/5
f 50/1/5 46/1/5 49/1/5
f 51/1/5 45/1/5 47/1/5
f 51/4/5 47/4/5 50/4/5
f 52/1/5 50/1/5 49/1/5
f 52/1/5 51/1/5 50/1/5
f 53/1/5 51/1/5 52/1/5
f 54/1/5 45/1/5 51/1/5
f 54/1/5 51/1/5 53/1/5
f 55/1/5 45/1/5 54/1/5
f 56/1/5 45/1/5 55/1/5
f 57/1/5 45/1/5 56/1/5
f 58/2/5 53/2/5 52/2/5
f 58/1/5 52/1/5 49/1/5
f 59/1/5 54/1/5 53/1/5
f 59/2/5 53/2/5 58/2/5
f 60/1/5 54/1/5 59/1/5
f 61/1/5 54/1/5 60/1/5
f 62/3/5 55/3/5 54/3/5
f 62/1/5 54/1/5 61/1/5
f 63/1/5 56/1/5 55/1/5
f 63/3/5 55/3/5 62/3/5
f 64/4/5 61/4/5 60/4/5
f 64/1/5 59/1/5 58/1/5
f 64/1/5 60/1/5 59/1/5
f 65/1/5 62/1/5 61/1/5
f 65/4/5 61/4/5 64/4/5
f 65/1/5 63/1/5 62/1/5
f 66/4/5 49/4/5 48/4/5
f 66/1/5 48/1/5 25/1/5
f 67/1/5 65/1/5 64/1/5
f 67/4/5 49/4/5 66/4/5
f 67/1/5 58/1/5 49/1/5
f 67/1/5 64/1/5 58/1/5
f 68/1/5 63/1/5 65/1/5
f 68/1/5 65/1/5 67/1/5
f 68/1/5 67/1/5 66/1/5
f 68/1/5 56/1/5 63/1/5
f 69/3/5 57/3/5 56/3/5
f 69/1/5 56/1/5 68/1/5
f 70/1/5 28/1/5 45/1/5
f 70/1/5 45/1/5 57/1/5
f 71/1/5 28/1/5 70/1/5
f 72/1/5 68/1/5 66/1/5
f 73/1/5 68/1/5 72/1/5
f 74/1/5 68/1/5 73/1/5
f 75/1/5 68/1/5 74/1/5
f 76/2/5 69/2/5 68/2/5
f 76/1/5 68/1/5 75/1/5
f 77/3/5 57/3/5 69/3/5
f 77/2/5 69/2/5 76/2/5
f 78/1/5 70/1/5 57/1/5
f 78/3/5 57/3/5 77/3/5
f 79/4/5 71/4/5 70/4/5
f 79/1/5 70/1/5 78/1/5
f 80/1/5 28/1/5 71/1/5
f 80/4/5 71/4/5 79/4/5
f 81/1/5 72/1/5 66/1/5
f 81/4/5 73/4/5 72/4/5
f 82/1/5 74/1/5 73/1/5
f 82/4/5 73/4/5 81/4/5
f 83/1/5 76/1/5 75/1/5
f 83/1/5 79/1/5 78/1/5
f 83/1/5 77/1/5 76/1/5
f 83/1/5 78/1/5 77/1/5
f 83/1/5 80/1/5 79/1/5
f 84/1/5 80/1/5 83/1/5
f 85/1/5 82/1/5 81/1/5
f 85/1/5 81/1/5 66/1/5
f 86/1/5 82/1/5 85/1/5
f 87/1/5 82/1/5 86/1/5
f 88/1/5 82/1/5 87/1/5
f 89/1/5 74/1/5 82/1/5
f 89/1/5 82/1/5 88/1/5
f 89/4/5 75/4/5 74/4/5
f 90/1/5 83/1/5 75/1/5
f 90/4/5 75/4/5 89/4/5
f 91/2/5 88/2/5 87/2/5
f 91/1/5 89/1/5 88/1/5
f 91/1/5 90/1/5 89/1/5
f 92/1/5 90/1/5 91/1/5
f 93/1/5 66/1/5 25/1/5
f 93/1/5 85/1/5 66/1/5
f 94/1/5 85/1/5 93/1/5
f 95/4/5 86/4/5 85/4/5
f 95/1/5 85/1/5 94/1/5
f 96/1/5 87/1/5 86/1/5
f 96/4/5 86/4/5 95/4/5
f 97/1/5 83/1/5 90/1/5
f 97/1/5 90/1/5 92/1/5
f 97/3/5 84/3/5 83/3/5
f 98/1/5 80/1/5 84/1/5
f 98/3/5 84/3/5 97/3/5
f 99/1/5 93/1/5 25/1/5
f 99/2/5 94/2/5 93/2/5
f 100/1/5 95/1/5 94/1/5
f 100/2/5 94/2/5 99/2/5
f 100/1/5 96/1/5 95/1/5
f 101/2/5 91/2/5 87/2/5
f 101/4/5 92/4/5 91/4/5
f 102/1/5 97/1/5 92/1/5
f 102/4/5 92/4/5 101/4/5
f 102/1/5 98/1/5 97/1/5
f 103/1/5 102/1/5 101/1/5
f 103/1/5 98/1/5 102/1/5
f 104/1/5 98/1/5 103/1/5
f 105/1/5 87/1/5 96/1/5
f 105/2/5 101/2/5 87/2/5
f 105/1/5 96/1/5 100/1/5
f 105/1/5 100/1/5 99/1/5
f 106/1/5 103/1/5 101/1/5
f 106/2/5 101/2/5 105/2/5
f 107/2/5 104/2/5 103/2/5
f 107/1/5 103/1/5 106/1/5
f 108/1/5 98/1/5 104/1/5
f 108/2/5 104/2/5 107/2/5
f 109/1/5 107/1/5 106/1/5
f 109/1/5 99/1/5 25/1/5
f 109/1/5 108/1/5 107/1/5
f 109/1/5 106/1/5 105/1/5
f 109/1/5 105/1/5 99/1/5
f 110/1/5 108/1/5 109/1/5
f 111/1/5 98/1/5 108/1/5
f 111/1/5 108/1/5 110/1/5
f 111/1/5 80/1/5 98/1/5
f 112/1/5 28/1/5 80/1/5
f 112/1/5 80/1/5 111/1/5
f 113/1/5 111/1/5 110/1/5
f 114/1/5 111/1/5 113/1/5
f 115/1/5 111/1/5 114/1/5
f 116/1/5 111/1/5 115/1/5
f 117/3/5 110/3/5 109/3/5
f 117/1/5 109/1/5 25/1/5
f 118/1/5 113/1/5 110/1/5
f 118/3/5 110/3/5 117/3/5
f 119/3/5 114/3/5 113/3/5
f 119/1/5 113/1/5 118/1/5
f 120/1/5 115/1/5 114/1/5
f 120/3/5 114/3/5 119/3/5
f 121/1/5 111/1/5 116/1/5
f 121/4/5 112/4/5 111/4/5
f 122/1/5 28/1/5 112/1/5
f 122/4/5 112/4/5 121/4/5
f 123/1/5 120/1/5 119/1/5
f 123/1/5 118/1/5 117/1/5
f 123/1/5 119/1/5 118/1/5
f 124/1/5 120/1/5 123/1/5
f 125/1/5 120/1/5 124/1/5
f 126/1/5 120/1/5 125/1/5
f 127/1/5 115/1/5 120/1/5
f 127/1/5 120/1/5 126/1/5
f 127/2/5 116/2/5 115/2/5
f 128/1/5 121/1/5 116/1/5
f 128/2/5 116/2/5 127/2/5
f 128/1/5 122/1/5 121/1/5
f 129/4/5 124/4/5 123/4/5
f 129/1/5 123/1/5 117/1/5
f 130/1/5 125/1/5 124/1/5
f 130/4/5 124/4/5 129/4/5
f 131/1/5 129/1/5 117/1/5
f 131/1/5 130/1/5 129/1/5
f 132/1/5 130/1/5 131/1/5
f 133/3/5 126/3/5 125/3/5
f 133/1/5 130/1/5 132/1/5
f 133/1/5 125/1/5 130/1/5
f 134/1/5 127/1/5 126/1/5
f 134/3/5 126/3/5 133/3/5
f 134/1/5 128/1/5 127/1/5
f 135/1/5 122/1/5 128/1/5
f 135/1/5 128/1/5 134/1/5
f 136/1/5 28/1/5 122/1/5
f 136/1/5 122/1/5 135/1/5
f 137/2/5 132/2/5 131/2/5
f 137/1/5 131/1/5 117/1/5
f 138/1/5 133/1/5 132/1/5
f 138/2/5 132/2/5 137/2/5
f 138/1/5 135/1/5 134/1/5
f 138/1/5 134/1/5 133/1/5
f 139/4/5 136/4/5 135/4/5
f 139/1/5 135/1/5 138/1/5
f 140/4/5 136/4/5 139/4/5
f 141/1/5 137/1/5 117/1/5
f 141/1/5 138/1/5 137/1/5
f 141/1/5 140/1/5 139/1/5
f 141/1/5 139/1/5 138/1/5
f 141/1/5 117/1/5 25/1/5
f 142/1/5 140/1/5 141/1/5
f 143/1/6 144/1/6 147/1/6
f 147/1/6 144/1/6 148/1/6
f 144/4/6 145/4/6 149/4/6
f 148/1/6 144/1/6 149/1/6
f 145/1/6 146/1/6 150/1/6
f 149/4/6 145/4/6 150/4/6
f 150/1/6 146/1/6 151/1/6
f 151/1/6 146/1/6 152/1/6
f 148/1/6 149/1/6 153/1/6
f 149/1/6 150/1/6 153/1/6
f 150/1/6 151/1/6 153/1/6
f 153/1/6 151/1/6 154/1/6
f 147/3/6 148/3/6 155/3/6
f 143/1/6 147/1/6 155/1/6
f 148/1/6 153/1/6 156/1/6
f 155/3/6 148/3/6 156/3/6
f 153/2/6 154/2/6 157/2/6
f 156/1/6 153/1/6 157/1/6
f 154/1/6 151/1/6 158/1/6
f 157/2/6 154/2/6 158/2/6
f 151/3/6 152/3/6 159/3/6
f 158/1/6 151/1/6 159/1/6
f 152/1/6 146/1/6 160/1/6
f 159/3/6 152/3/6 160/3/6
f 160/1/6 146/1/6 161/1/6
f 158/1/6 159/1/6 162/1/6
f 156/1/6 157/1/6 162/1/6
f 160/2/6 161/2/6 162/2/6
f 159/1/6 160/1/6 162/1/6
f 155/1/6 156/1/6 162/1/6
f 157/1/6 158/1/6 162/1/6
f 161/1/6 146/1/6 163/1/6
f 162/2/6 161/2/6 163/2/6
f 155/1/6 162/1/6 164/1/6
f 162/1/6 163/1/6 164/1/6
f 164/1/6 163/1/6 165/1/6
f 143/1/6 155/1/6 166/1/6
f 155/1/6 164/1/6 166/1/6
f 166/1/6 164/1/6 167/1/6
f 164/4/6 165/4/6 168/4/6
f 167/1/6 164/1/6 168/1/6
f 165/1/6 163/1/6 169/1/6
f 168/4/6 165/4/6 169/4/6
f 167/1/6 168/1/6 170/1/6
f 168/1/6 169/1/6 170/1/6
f 170/1/6 169/1/6 171/1/6
f 169/1/6 163/1/6 172/1/6
f 171/1/6 169/1/6 172/1/6
f 172/1/6 163/1/6 173/1/6
f 173/1/6 163/1/6 174/1/6
f 174/1/6 163/1/6 175/1/6
f 170/2/6 171/2/6 176/2/6
f 167/1/6 170/1/6 176/1/6
f 171/1/6 172/1/6 177/1/6
f 176/2/6 171/2/6 177/2/6
f 177/1/6 172/1/6 178/1/6
f 178/1/6 172/1/6 179/1/6
f 172/3/6 173/3/6 180/3/6
f 179/1/6 172/1/6 180/1/6
f 173/1/6 174/1/6 181/1/6
f 180/3/6 173/3/6 181/3/6
f 178/4/6 179/4/6 182/4/6
f 176/1/6 177/1/6 182/1/6
f 177/1/6 178/1/6 182/1/6
f 179/1/6 180/1/6 183/1/6
f 182/4/6 179/4/6 183/4/6
f 180/1/6 181/1/6 183/1/6
f 166/4/6 167/4/6 184/4/6
f 143/1/6 166/1/6 184/1/6
f 182/1/6 183/1/6 185/1/6
f 184/4/6 167/4/6 185/4/6
f 167/1/6 176/1/6 185/1/6
f 176/1/6 182/1/6 185/1/6
f 183/1/6 181/1/6 186/1/6
f 185/1/6 183/1/6 186/1/6
f 184/1/6 185/1/6 186/1/6
f 181/1/6 174/1/6 186/1/6
f 174/3/6 175/3/6 187/3/6
f 186/1/6 174/1/6 187/1/6
f 163/1/6 146/1/6 188/1/6
f 175/1/6 163/1/6 188/1/6
f 188/1/6 146/1/6 189/1/6
f 184/1/6 186/1/6 190/1/6
f 190/1/6 186/1/6 191/1/6
f 191/1/6 186/1/6 192/1/6
f 192/1/6 186/1/6 193/1/6
f 186/2/6 187/2/6 194/2/6
f 193/1/6 186/1/6 194/1/6
f 187/3/6 175/3/6 195/3/6
f 194/2/6 187/2/6 195/2/6
f 175/1/6 188/1/6 196/1/6
f 195/3/6 175/3/6 196/3/6
f 188/4/6 189/4/6 197/4/6
f 196/1/6 188/1/6 197/1/6
f 189/1/6 146/1/6 198/1/6
f 197/4/6 189/4/6 198/4/6
f 184/1/6 190/1/6 199/1/6
f 190/4/6 191/4/6 199/4/6
f 191/1/6 192/1/6 200/1/6
f 199/4/6 191/4/6 200/4/6
f 193/1/6 194/1/6 201/1/6
f 196/1/6 197/1/6 201/1/6
f 194/1/6 195/1/6 201/1/6
f 195/1/6 196/1/6 201/1/6
f 197/1/6 198/1/6 201/1/6
f 201/1/6 198/1/6 202/1/6
f 199/1/6 200/1/6 203/1/6
f 184/1/6 199/1/6 203/1/6
f 203/1/6 200/1/6 204/1/6
f 204/1/6 200/1/6 205/1/6
f 205/1/6 200/1/6 206/1/6
f 200/1/6 192/1/6 207/1/6
f 206/1/6 200/1/6 207/1/6
f 192/4/6 193/4/6 207/4/6
f 193/1/6 201/1/6 208/1/6
f 207/4/6 193/4/6 208/4/6
f 205/2/6 206/2/6 209/2/6
f 206/1/6 207/1/6 209/1/6
f 207/1/6 208/1/6 209/1/6
f 209/1/6 208/1/6 210/1/6
f 143/1/6 184/1/6 211/1/6
f 184/1/6 203/1/6 211/1/6
f 211/1/6 203/1/6 212/1/6
f 203/4/6 204/4/6 213/4/6
f 212/1/6 203/1/6 213/1/6
f 204/1/6 205/1/6 214/1/6
f 213/4/6 204/4/6 214/4/6
f 208/1/6 201/1/6 215/1/6
f 210/1/6 208/1/6 215/1/6
f 201/3/6 202/3/6 215/3/6
f 202/1/6 198/1/6 216/1/6
f 215/3/6 202/3/6 216/3/6
f 143/1/6 211/1/6 217/1/6
f 211/2/6 212/2/6 217/2/6
f 212/1/6 213/1/6 218/1/6
f 217/2/6 212/2/6 218/2/6
f 213/1/6 214/1/6 218/1/6
f 205/2/6 209/2/6 219/2/6
f 209/4/6 210/4/6 219/4/6
f 210/1/6 215/1/6 220/1/6
f 219/4/6 210/4/6 220/4/6
f 215/1/6 216/1/6 220/1/6
f 219/1/6 220/1/6 221/1/6
f 220/1/6 216/1/6 221/1/6
f 221/1/6 216/1/6 222/1/6
f 214/1/6 205/1/6 223/1/6
f 205/2/6 219/2/6 223/2/6
f 218/1/6 214/1/6 223/1/6
f 217/1/6 218/1/6 223/1/6
f 219/1/6 221/1/6 224/1/6
f 223/2/6 219/2/6 224/2/6
f 221/2/6 222/2/6 225/2/6
f 224/1/6 221/1/6 225/1/6
f 222/1/6 216/1/6 226/1/6
f 225/2/6 222/2/6 226/2/6
f 224/1/6 225/1/6 227/1/6
f 143/1/6 217/1/6 227/1/6
f 225/1/6 226/1/6 227/1/6
f 223/1/6 224/1/6 227/1/6
f 217/1/6 223/1/6 227/1/6
f 227/1/6 226/1/6 228/1/6
f 226/1/6 216/1/6 229/1/6
f 228/1/6 226/1/6 229/1/6
f 216/1/6 198/1/6 229/1/6
f 198/1/6 146/1/6 230/1/6
f 229/1/6 198/1/6 230/1/6
f 228/1/6 229/1/6 231/1/6
f 231/1/6 229/1/6 232/1/6
f 232/1/6 229/1/6 233/1/6
f 233/1/6 229/1/6 234/1/6
f 227/3/6 228/3/6 235/3/6
f 143/1/6 227/1/6 235/1/6
f 228/1/6 231/1/6 236/1/6
f 235/3/6 228/3/6 236/3/6
f 231/3/6 232/3/6 237/3/6
f 236/1/6 231/1/6 237/1/6
f 232/1/6 233/1/6 238/1/6
f 237/3/6 232/3/6 238/3/6
f 234/1/6 229/1/6 239/1/6
f 229/4/6 230/4/6 239/4/6
f 230/1/6 146/1/6 240/1/6
f 239/4/6 230/4/6 240/4/6
f 237/1/6 238/1/6 241/1/6
f 235/1/6 236/1/6 241/1/6
f 236/1/6 237/1/6 241/1/6
f 241/1/6 238/1/6 242/1/6
f 242/1/6 238/1/6 243/1/6
f 243/1/6 238/1/6 244/1/6
f 238/1/6 233/1/6 245/1/6
f 244/1/6 238/1/6 245/1/6
f 233/2/6 234/2/6 245/2/6
f 234/1/6 239/1/6 246/1/6
f 245/2/6 234/2/6 246/2/6
f 239/1/6 240/1/6 246/1/6
f 241/4/6 242/4/6 247/4/6
f 235/1/6 241/1/6 247/1/6
f 242/1/6 243/1/6 248/1/6
f 247/4/6 242/4/6 248/4/6
f 235/1/6 247/1/6 249/1/6
f 247/1/6 248/1/6 249/1/6
f 249/1/6 248/1/6 250/1/6
f 243/3/6 244/3/6 251/3/6
f 250/1/6 248/1/6 251/1/6
f 248/1/6 243/1/6 251/1/6
f 244/1/6 245/1/6 252/1/6
f 251/3/6 244/3/6 252/3/6
f 245/1/6 246/1/6 252/1/6
f 246/1/6 240/1/6 253/1/6
f 252/1/6 246/1/6 253/1/6
f 240/1/6 146/1/6 254/1/6
f 253/1/6 240/1/6 254/1/6
f 249/2/6 250/2/6 255/2/6
f 235/1/6 249/1/6 255/1/6
f 250/1/6 251/1/6 256/1/6
f 255/2/6 250/2/6 256/2/6
f 252/1/6 253/1/6 256/1/6
f 251/1/6 252/1/6 256/1/6
f 253/4/6 254/4/6 257/4/6
f 256/1/6 253/1/6 257/1/6
f 257/4/6 254/4/6 258/4/6
f 235/1/6 255/1/6 259/1/6
f 255/1/6 256/1/6 259/1/6
f 257/1/6 258/1/6 259/1/6
f 256/1/6 257/1/6 259/1/6
f 143/1/6 235/1/6 259/1/6
f 259/1/6 258/1/6 260/1/6
