# MagicaVoxel @ Ephtracy

# group
o 

# material
mtllib lemonadeStand.mtl
usemtl palette

# normals
vn -1 0 0
vn 1 0 0
vn 0 0 1
vn 0 0 -1
vn 0 -1 0
vn 0 1 0

# texcoords
vt 0.595703 0.5
vt 0.751953 0.5
vt 0.791016 0.5
vt 0.880859 0.5
vt 0.888672 0.5
vt 0.892578 0.5

# verts
v 4.1 2.7 -4
v 4.1 2.7 -5.2
v 4.1 2.8 -4
v 4.1 2.8 -5.2
v 4.2 2 -4
v 4.2 2 -5
v 4.2 2.7 -4
v 4.2 2.7 -5
v 4.2 3.4 -4.5
v 4.2 3.4 -4.6
v 4.2 3.7 -4.5
v 4.2 3.7 -4.6
v 4.2 3.9 -4.5
v 4.2 3.9 -4.6
v 4.2 4 -4.5
v 4.2 4 -4.6
v 4.2 4.3 -4.5
v 4.2 4.3 -4.6
v 4.3 2.8 -4.4
v 4.3 2.8 -4.5
v 4.3 3.4 -4.5
v 4.3 3.7 -4.5
v 4.3 3.7 -4.6
v 4.3 3.9 -4.5
v 4.3 3.9 -4.6
v 4.3 4 -4.5
v 4.3 4.3 -4.5
v 4.3 4.4 -4.4
v 4.3 4.4 -4.5
v 5.5 2.8 -4.9
v 5.5 2.8 -5.1
v 5.5 3 -4.9
v 5.5 3 -5.1
v 5.5 3.1 -4.9
v 5.5 3.1 -5.1
v 5.8 2.8 -4.9
v 5.8 2.8 -5.1
v 5.8 3 -4.9
v 5.8 3 -5.1
v 5.8 3.1 -4.9
v 5.8 3.1 -5.1
v 6.1 2.8 -4.9
v 6.1 2.8 -5.1
v 6.1 3 -4.9
v 6.1 3 -5.1
v 6.1 3.1 -4.9
v 6.1 3.1 -5.1
v 6.3 2.8 -4.4
v 6.3 2.8 -4.5
v 6.3 3.4 -4.5
v 6.3 3.6 -4.5
v 6.3 4.1 -4.5
v 6.3 4.3 -4.5
v 6.3 4.4 -4.4
v 6.3 4.4 -4.5
v 4.4 2.8 -4.4
v 4.4 2.8 -4.5
v 4.4 3.4 -4.5
v 4.4 3.6 -4.5
v 4.4 4 -4.5
v 4.4 4.3 -4.5
v 4.4 4.4 -4.4
v 4.4 4.4 -4.5
v 5.7 2.8 -4.9
v 5.7 2.8 -5.1
v 5.7 3 -4.9
v 5.7 3 -5.1
v 5.7 3.1 -4.9
v 5.7 3.1 -5.1
v 6 2.8 -4.9
v 6 2.8 -5.1
v 6 3 -4.9
v 6 3 -5.1
v 6 3.1 -4.9
v 6 3.1 -5.1
v 6.3 2.8 -4.9
v 6.3 2.8 -5.1
v 6.3 3 -4.9
v 6.3 3 -5.1
v 6.3 3.1 -4.9
v 6.3 3.1 -5.1
v 6.4 2.8 -4.4
v 6.4 2.8 -4.5
v 6.4 3.4 -4.5
v 6.4 3.5 -4.5
v 6.4 3.5 -4.6
v 6.4 3.6 -4.5
v 6.4 3.6 -4.6
v 6.4 3.7 -4.5
v 6.4 4 -4.5
v 6.4 4 -4.6
v 6.4 4.1 -4.5
v 6.4 4.1 -4.6
v 6.4 4.3 -4.5
v 6.4 4.4 -4.4
v 6.4 4.4 -4.5
v 6.5 2 -4
v 6.5 2 -5
v 6.5 2.7 -4
v 6.5 2.7 -5
v 6.5 3.4 -4.5
v 6.5 3.4 -4.6
v 6.5 3.5 -4.5
v 6.5 3.5 -4.6
v 6.5 3.6 -4.5
v 6.5 3.6 -4.6
v 6.5 3.7 -4.5
v 6.5 3.7 -4.6
v 6.5 4 -4.5
v 6.5 4 -4.6
v 6.5 4.1 -4.5
v 6.5 4.1 -4.6
v 6.5 4.3 -4.5
v 6.5 4.3 -4.6
v 6.6 2.7 -4
v 6.6 2.7 -5.2
v 6.6 2.8 -4
v 6.6 2.8 -5.2
v 4.1 2.7 -4
v 4.1 2.8 -4
v 4.2 2 -4
v 4.2 2.7 -4
v 6.5 2 -4
v 6.5 2.7 -4
v 6.6 2.7 -4
v 6.6 2.8 -4
v 4.3 2.8 -4.4
v 4.3 4.4 -4.4
v 4.4 2.8 -4.4
v 4.4 4.4 -4.4
v 6.3 2.8 -4.4
v 6.3 4.4 -4.4
v 6.4 2.8 -4.4
v 6.4 4.4 -4.4
v 4.2 3.4 -4.5
v 4.2 3.7 -4.5
v 4.2 3.9 -4.5
v 4.2 4 -4.5
v 4.2 4.3 -4.5
v 4.3 3.4 -4.5
v 4.3 3.7 -4.5
v 4.3 3.9 -4.5
v 4.3 4 -4.5
v 4.3 4.3 -4.5
v 4.4 3.4 -4.5
v 4.4 3.6 -4.5
v 4.4 4 -4.5
v 4.4 4.3 -4.5
v 4.5 3.6 -4.5
v 4.5 3.7 -4.5
v 4.5 4 -4.5
v 4.5 4.1 -4.5
v 4.6 3.6 -4.5
v 4.6 3.7 -4.5
v 4.6 4 -4.5
v 4.7 3.6 -4.5
v 4.7 3.7 -4.5
v 4.7 4 -4.5
v 4.7 4.1 -4.5
v 4.8 3.6 -4.5
v 4.8 3.7 -4.5
v 4.8 4 -4.5
v 4.8 4.1 -4.5
v 4.9 3.7 -4.5
v 4.9 4 -4.5
v 5 3.7 -4.5
v 5 4 -4.5
v 5.1 3.6 -4.5
v 5.1 3.7 -4.5
v 5.1 4 -4.5
v 5.1 4.1 -4.5
v 5.2 3.6 -4.5
v 5.2 3.7 -4.5
v 5.2 4 -4.5
v 5.3 3.6 -4.5
v 5.3 3.7 -4.5
v 5.3 4 -4.5
v 5.3 4.1 -4.5
v 5.4 3.6 -4.5
v 5.4 3.7 -4.5
v 5.4 4 -4.5
v 5.5 3.6 -4.5
v 5.5 3.7 -4.5
v 5.5 4 -4.5
v 5.6 3.6 -4.5
v 5.6 3.7 -4.5
v 5.6 4 -4.5
v 5.6 4.1 -4.5
v 5.7 3.6 -4.5
v 5.7 3.7 -4.5
v 5.7 4 -4.5
v 5.8 3.6 -4.5
v 5.8 3.7 -4.5
v 5.8 3.8 -4.5
v 5.8 3.9 -4.5
v 5.8 4 -4.5
v 5.8 4.1 -4.5
v 5.9 3.7 -4.5
v 5.9 3.8 -4.5
v 5.9 3.9 -4.5
v 5.9 4 -4.5
v 6 3.6 -4.5
v 6 3.7 -4.5
v 6 4 -4.5
v 6 4.1 -4.5
v 6.1 3.6 -4.5
v 6.1 3.7 -4.5
v 6.2 3.7 -4.5
v 6.2 4 -4.5
v 6.2 4.1 -4.5
v 6.3 3.4 -4.5
v 6.3 3.6 -4.5
v 6.3 4.1 -4.5
v 6.3 4.3 -4.5
v 6.4 3.4 -4.5
v 6.4 3.5 -4.5
v 6.4 3.6 -4.5
v 6.4 3.7 -4.5
v 6.4 4 -4.5
v 6.4 4.1 -4.5
v 6.4 4.3 -4.5
v 6.5 3.4 -4.5
v 6.5 3.5 -4.5
v 6.5 3.6 -4.5
v 6.5 3.7 -4.5
v 6.5 4 -4.5
v 6.5 4.1 -4.5
v 6.5 4.3 -4.5
v 5.5 2.8 -4.9
v 5.5 3 -4.9
v 5.5 3.1 -4.9
v 5.7 2.8 -4.9
v 5.7 3 -4.9
v 5.7 3.1 -4.9
v 5.8 2.8 -4.9
v 5.8 3 -4.9
v 5.8 3.1 -4.9
v 6 2.8 -4.9
v 6 3 -4.9
v 6 3.1 -4.9
v 6.1 2.8 -4.9
v 6.1 3 -4.9
v 6.1 3.1 -4.9
v 6.3 2.8 -4.9
v 6.3 3 -4.9
v 6.3 3.1 -4.9
v 4.3 2.8 -4.5
v 4.3 3.4 -4.5
v 4.3 4.3 -4.5
v 4.3 4.4 -4.5
v 4.4 2.8 -4.5
v 4.4 3.4 -4.5
v 4.4 4.3 -4.5
v 4.4 4.4 -4.5
v 6.3 2.8 -4.5
v 6.3 3.4 -4.5
v 6.3 4.3 -4.5
v 6.3 4.4 -4.5
v 6.4 2.8 -4.5
v 6.4 3.4 -4.5
v 6.4 4.3 -4.5
v 6.4 4.4 -4.5
v 4.2 3.4 -4.6
v 4.2 3.7 -4.6
v 4.2 3.9 -4.6
v 4.2 4 -4.6
v 4.2 4.3 -4.6
v 4.3 3.7 -4.6
v 4.3 3.9 -4.6
v 4.4 3.6 -4.6
v 4.4 3.7 -4.6
v 4.4 4 -4.6
v 4.5 3.6 -4.6
v 4.5 3.7 -4.6
v 4.5 4 -4.6
v 4.5 4.1 -4.6
v 4.6 3.6 -4.6
v 4.6 3.7 -4.6
v 4.6 4 -4.6
v 4.7 3.6 -4.6
v 4.7 3.7 -4.6
v 4.7 4 -4.6
v 4.7 4.1 -4.6
v 4.8 3.6 -4.6
v 4.8 3.7 -4.6
v 4.8 4 -4.6
v 4.8 4.1 -4.6
v 4.9 3.7 -4.6
v 4.9 4 -4.6
v 5 3.7 -4.6
v 5 4 -4.6
v 5.1 3.6 -4.6
v 5.1 3.7 -4.6
v 5.1 4 -4.6
v 5.1 4.1 -4.6
v 5.2 3.6 -4.6
v 5.2 3.7 -4.6
v 5.2 4 -4.6
v 5.3 3.6 -4.6
v 5.3 3.7 -4.6
v 5.3 4 -4.6
v 5.3 4.1 -4.6
v 5.4 3.6 -4.6
v 5.4 3.7 -4.6
v 5.4 4 -4.6
v 5.5 3.6 -4.6
v 5.5 3.7 -4.6
v 5.5 4 -4.6
v 5.6 3.6 -4.6
v 5.6 3.7 -4.6
v 5.6 4 -4.6
v 5.6 4.1 -4.6
v 5.7 3.6 -4.6
v 5.7 3.7 -4.6
v 5.7 4 -4.6
v 5.8 3.6 -4.6
v 5.8 3.7 -4.6
v 5.8 3.8 -4.6
v 5.8 3.9 -4.6
v 5.8 4 -4.6
v 5.8 4.1 -4.6
v 5.9 3.7 -4.6
v 5.9 3.8 -4.6
v 5.9 3.9 -4.6
v 5.9 4 -4.6
v 6 3.6 -4.6
v 6 3.7 -4.6
v 6 4 -4.6
v 6 4.1 -4.6
v 6.1 3.6 -4.6
v 6.1 3.7 -4.6
v 6.2 3.7 -4.6
v 6.2 4 -4.6
v 6.2 4.1 -4.6
v 6.3 3.6 -4.6
v 6.3 3.7 -4.6
v 6.3 4 -4.6
v 6.3 4.1 -4.6
v 6.4 3.5 -4.6
v 6.4 3.6 -4.6
v 6.4 4 -4.6
v 6.4 4.1 -4.6
v 6.5 3.4 -4.6
v 6.5 3.5 -4.6
v 6.5 3.6 -4.6
v 6.5 3.7 -4.6
v 6.5 4 -4.6
v 6.5 4.1 -4.6
v 6.5 4.3 -4.6
v 4.2 2 -5
v 4.2 2.7 -5
v 6.5 2 -5
v 6.5 2.7 -5
v 5.5 2.8 -5.1
v 5.5 3 -5.1
v 5.5 3.1 -5.1
v 5.7 2.8 -5.1
v 5.7 3 -5.1
v 5.7 3.1 -5.1
v 5.8 2.8 -5.1
v 5.8 3 -5.1
v 5.8 3.1 -5.1
v 6 2.8 -5.1
v 6 3 -5.1
v 6 3.1 -5.1
v 6.1 2.8 -5.1
v 6.1 3 -5.1
v 6.1 3.1 -5.1
v 6.3 2.8 -5.1
v 6.3 3 -5.1
v 6.3 3.1 -5.1
v 4.1 2.7 -5.2
v 4.1 2.8 -5.2
v 6.6 2.7 -5.2
v 6.6 2.8 -5.2
v 4.2 2 -4
v 6.5 2 -4
v 4.5 2 -4.1
v 4.6 2 -4.1
v 4.5 2 -4.9
v 4.6 2 -4.9
v 4.2 2 -5
v 6.5 2 -5
v 4.1 2.7 -4
v 4.2 2.7 -4
v 6.5 2.7 -4
v 6.6 2.7 -4
v 4.2 2.7 -5
v 6.5 2.7 -5
v 4.1 2.7 -5.2
v 6.6 2.7 -5.2
v 4.2 3.4 -4.5
v 4.3 3.4 -4.5
v 4.4 3.4 -4.5
v 6.3 3.4 -4.5
v 6.4 3.4 -4.5
v 6.5 3.4 -4.5
v 4.2 3.4 -4.6
v 6.5 3.4 -4.6
v 6.4 3.6 -4.5
v 6.5 3.6 -4.5
v 6.4 3.6 -4.6
v 6.5 3.6 -4.6
v 4.2 3.9 -4.5
v 4.3 3.9 -4.5
v 4.2 3.9 -4.6
v 4.3 3.9 -4.6
v 6.4 4.1 -4.5
v 6.5 4.1 -4.5
v 6.4 4.1 -4.6
v 6.5 4.1 -4.6
v 4.1 2.8 -4
v 6.6 2.8 -4
v 4.3 2.8 -4.4
v 4.4 2.8 -4.4
v 6.3 2.8 -4.4
v 6.4 2.8 -4.4
v 4.3 2.8 -4.5
v 4.4 2.8 -4.5
v 6.3 2.8 -4.5
v 6.4 2.8 -4.5
v 5.5 2.8 -4.9
v 5.7 2.8 -4.9
v 5.8 2.8 -4.9
v 6 2.8 -4.9
v 6.1 2.8 -4.9
v 6.3 2.8 -4.9
v 5.5 2.8 -5.1
v 5.7 2.8 -5.1
v 5.8 2.8 -5.1
v 6 2.8 -5.1
v 6.1 2.8 -5.1
v 6.3 2.8 -5.1
v 4.1 2.8 -5.2
v 6.6 2.8 -5.2
v 5.5 3.1 -4.9
v 5.7 3.1 -4.9
v 5.8 3.1 -4.9
v 6 3.1 -4.9
v 6.1 3.1 -4.9
v 6.3 3.1 -4.9
v 5.5 3.1 -5.1
v 5.7 3.1 -5.1
v 5.8 3.1 -5.1
v 6 3.1 -5.1
v 6.1 3.1 -5.1
v 6.3 3.1 -5.1
v 6.4 3.5 -4.5
v 6.5 3.5 -4.5
v 6.4 3.5 -4.6
v 6.5 3.5 -4.6
v 4.2 3.7 -4.5
v 4.3 3.7 -4.5
v 4.2 3.7 -4.6
v 4.3 3.7 -4.6
v 6.4 4 -4.5
v 6.5 4 -4.5
v 6.4 4 -4.6
v 6.5 4 -4.6
v 4.2 4.3 -4.5
v 4.3 4.3 -4.5
v 4.4 4.3 -4.5
v 6.3 4.3 -4.5
v 6.4 4.3 -4.5
v 6.5 4.3 -4.5
v 4.2 4.3 -4.6
v 6.5 4.3 -4.6
v 4.3 4.4 -4.4
v 4.4 4.4 -4.4
v 6.3 4.4 -4.4
v 6.4 4.4 -4.4
v 4.3 4.4 -4.5
v 4.4 4.4 -4.5
v 6.3 4.4 -4.5
v 6.4 4.4 -4.5

# faces
f 3/2/1 2/2/1 1/2/1
f 4/2/1 2/2/1 3/2/1
f 7/3/1 6/3/1 5/3/1
f 8/3/1 6/3/1 7/3/1
f 11/3/1 10/3/1 9/3/1
f 12/3/1 10/3/1 11/3/1
f 15/2/1 14/2/1 13/2/1
f 16/2/1 14/2/1 15/2/1
f 17/3/1 16/3/1 15/3/1
f 18/3/1 16/3/1 17/3/1
f 21/5/1 20/5/1 19/5/1
f 22/5/1 21/5/1 19/5/1
f 24/5/1 22/5/1 19/5/1
f 24/2/1 23/2/1 22/2/1
f 25/2/1 23/2/1 24/2/1
f 26/5/1 24/5/1 19/5/1
f 27/5/1 26/5/1 19/5/1
f 28/5/1 27/5/1 19/5/1
f 29/5/1 27/5/1 28/5/1
f 32/1/1 31/1/1 30/1/1
f 33/1/1 31/1/1 32/1/1
f 34/4/1 33/4/1 32/4/1
f 35/4/1 33/4/1 34/4/1
f 38/1/1 37/1/1 36/1/1
f 39/1/1 37/1/1 38/1/1
f 40/4/1 39/4/1 38/4/1
f 41/4/1 39/4/1 40/4/1
f 44/1/1 43/1/1 42/1/1
f 45/1/1 43/1/1 44/1/1
f 46/4/1 45/4/1 44/4/1
f 47/4/1 45/4/1 46/4/1
f 50/5/1 49/5/1 48/5/1
f 51/5/1 50/5/1 48/5/1
f 52/5/1 51/5/1 48/5/1
f 53/5/1 52/5/1 48/5/1
f 54/5/1 53/5/1 48/5/1
f 55/5/1 53/5/1 54/5/1
f 56/5/2 57/5/2 58/5/2
f 56/5/2 58/5/2 59/5/2
f 56/5/2 59/5/2 60/5/2
f 56/5/2 60/5/2 61/5/2
f 56/5/2 61/5/2 62/5/2
f 62/5/2 61/5/2 63/5/2
f 64/1/2 65/1/2 66/1/2
f 66/1/2 65/1/2 67/1/2
f 66/4/2 67/4/2 68/4/2
f 68/4/2 67/4/2 69/4/2
f 70/1/2 71/1/2 72/1/2
f 72/1/2 71/1/2 73/1/2
f 72/4/2 73/4/2 74/4/2
f 74/4/2 73/4/2 75/4/2
f 76/1/2 77/1/2 78/1/2
f 78/1/2 77/1/2 79/1/2
f 78/4/2 79/4/2 80/4/2
f 80/4/2 79/4/2 81/4/2
f 82/5/2 83/5/2 84/5/2
f 82/5/2 84/5/2 85/5/2
f 82/5/2 85/5/2 87/5/2
f 85/3/2 86/3/2 87/3/2
f 87/3/2 86/3/2 88/3/2
f 82/5/2 87/5/2 89/5/2
f 82/5/2 89/5/2 90/5/2
f 82/5/2 90/5/2 92/5/2
f 90/3/2 91/3/2 92/3/2
f 92/3/2 91/3/2 93/3/2
f 82/5/2 92/5/2 94/5/2
f 82/5/2 94/5/2 95/5/2
f 95/5/2 94/5/2 96/5/2
f 97/3/2 98/3/2 99/3/2
f 99/3/2 98/3/2 100/3/2
f 101/3/2 102/3/2 103/3/2
f 103/3/2 102/3/2 104/3/2
f 105/3/2 106/3/2 107/3/2
f 107/3/2 106/3/2 108/3/2
f 107/2/2 108/2/2 109/2/2
f 109/2/2 108/2/2 110/2/2
f 111/3/2 112/3/2 113/3/2
f 113/3/2 112/3/2 114/3/2
f 115/2/2 116/2/2 117/2/2
f 117/2/2 116/2/2 118/2/2
f 122/2/3 120/2/3 119/2/3
f 123/3/3 122/3/3 121/3/3
f 124/2/3 120/2/3 122/2/3
f 124/3/3 122/3/3 123/3/3
f 125/2/3 120/2/3 124/2/3
f 126/2/3 120/2/3 125/2/3
f 129/5/3 128/5/3 127/5/3
f 130/5/3 128/5/3 129/5/3
f 133/5/3 132/5/3 131/5/3
f 134/5/3 132/5/3 133/5/3
f 140/3/3 136/3/3 135/3/3
f 141/3/3 136/3/3 140/3/3
f 142/2/3 138/2/3 137/2/3
f 143/3/3 139/3/3 138/3/3
f 143/2/3 138/2/3 142/2/3
f 144/3/3 139/3/3 143/3/3
f 149/3/3 146/3/3 145/3/3
f 149/1/3 147/1/3 146/1/3
f 150/1/3 147/1/3 149/1/3
f 151/3/3 148/3/3 147/3/3
f 151/1/3 147/1/3 150/1/3
f 152/3/3 148/3/3 151/3/3
f 153/3/3 150/3/3 149/3/3
f 153/3/3 149/3/3 145/3/3
f 154/2/3 151/2/3 150/2/3
f 154/3/3 150/3/3 153/3/3
f 155/1/3 152/1/3 151/1/3
f 155/2/3 151/2/3 154/2/3
f 156/1/3 154/1/3 153/1/3
f 156/3/3 153/3/3 145/3/3
f 156/1/3 155/1/3 154/1/3
f 157/1/3 155/1/3 156/1/3
f 158/1/3 152/1/3 155/1/3
f 158/1/3 155/1/3 157/1/3
f 159/3/3 148/3/3 152/3/3
f 159/1/3 152/1/3 158/1/3
f 160/3/3 157/3/3 156/3/3
f 160/3/3 156/3/3 145/3/3
f 161/2/3 158/2/3 157/2/3
f 161/3/3 157/3/3 160/3/3
f 162/3/3 159/3/3 158/3/3
f 162/2/3 158/2/3 161/2/3
f 163/3/3 148/3/3 159/3/3
f 163/3/3 159/3/3 162/3/3
f 164/1/3 162/1/3 161/1/3
f 164/1/3 161/1/3 160/1/3
f 164/1/3 163/1/3 162/1/3
f 165/1/3 163/1/3 164/1/3
f 166/1/3 164/1/3 160/1/3
f 166/2/3 165/2/3 164/2/3
f 167/1/3 163/1/3 165/1/3
f 167/2/3 165/2/3 166/2/3
f 168/3/3 160/3/3 145/3/3
f 168/1/3 166/1/3 160/1/3
f 168/1/3 167/1/3 166/1/3
f 169/1/3 167/1/3 168/1/3
f 170/1/3 163/1/3 167/1/3
f 170/1/3 167/1/3 169/1/3
f 171/3/3 148/3/3 163/3/3
f 171/1/3 163/1/3 170/1/3
f 172/3/3 169/3/3 168/3/3
f 172/3/3 168/3/3 145/3/3
f 173/2/3 170/2/3 169/2/3
f 173/3/3 169/3/3 172/3/3
f 174/3/3 171/3/3 170/3/3
f 174/2/3 170/2/3 173/2/3
f 175/3/3 172/3/3 145/3/3
f 175/1/3 173/1/3 172/1/3
f 175/1/3 174/1/3 173/1/3
f 176/1/3 174/1/3 175/1/3
f 177/3/3 171/3/3 174/3/3
f 177/1/3 174/1/3 176/1/3
f 178/3/3 148/3/3 171/3/3
f 178/3/3 171/3/3 177/3/3
f 179/3/3 176/3/3 175/3/3
f 179/3/3 175/3/3 145/3/3
f 180/2/3 177/2/3 176/2/3
f 180/3/3 176/3/3 179/3/3
f 181/1/3 178/1/3 177/1/3
f 181/2/3 177/2/3 180/2/3
f 182/3/3 179/3/3 145/3/3
f 182/1/3 180/1/3 179/1/3
f 182/1/3 181/1/3 180/1/3
f 183/1/3 181/1/3 182/1/3
f 184/1/3 178/1/3 181/1/3
f 184/1/3 181/1/3 183/1/3
f 185/3/3 183/3/3 182/3/3
f 185/3/3 182/3/3 145/3/3
f 186/2/3 184/2/3 183/2/3
f 186/3/3 183/3/3 185/3/3
f 187/1/3 178/1/3 184/1/3
f 187/2/3 184/2/3 186/2/3
f 188/3/3 148/3/3 178/3/3
f 188/1/3 178/1/3 187/1/3
f 189/1/3 186/1/3 185/1/3
f 189/1/3 187/1/3 186/1/3
f 189/3/3 185/3/3 145/3/3
f 190/1/3 187/1/3 189/1/3
f 191/3/3 188/3/3 187/3/3
f 191/1/3 187/1/3 190/1/3
f 192/3/3 190/3/3 189/3/3
f 192/3/3 189/3/3 145/3/3
f 193/2/3 191/2/3 190/2/3
f 193/3/3 190/3/3 192/3/3
f 194/2/3 191/2/3 193/2/3
f 195/2/3 191/2/3 194/2/3
f 196/3/3 188/3/3 191/3/3
f 196/2/3 191/2/3 195/2/3
f 197/3/3 148/3/3 188/3/3
f 197/3/3 188/3/3 196/3/3
f 198/1/3 193/1/3 192/1/3
f 198/2/3 194/2/3 193/2/3
f 199/1/3 195/1/3 194/1/3
f 199/2/3 194/2/3 198/2/3
f 200/2/3 196/2/3 195/2/3
f 200/1/3 195/1/3 199/1/3
f 201/1/3 197/1/3 196/1/3
f 201/2/3 196/2/3 200/2/3
f 202/1/3 199/1/3 198/1/3
f 202/1/3 198/1/3 192/1/3
f 202/1/3 201/1/3 200/1/3
f 202/1/3 200/1/3 199/1/3
f 202/3/3 192/3/3 145/3/3
f 203/1/3 201/1/3 202/1/3
f 204/1/3 197/1/3 201/1/3
f 204/1/3 201/1/3 203/1/3
f 205/3/3 148/3/3 197/3/3
f 205/1/3 197/1/3 204/1/3
f 206/3/3 203/3/3 202/3/3
f 206/3/3 202/3/3 145/3/3
f 207/2/3 204/2/3 203/2/3
f 207/3/3 203/3/3 206/3/3
f 208/1/3 207/1/3 206/1/3
f 208/2/3 204/2/3 207/2/3
f 209/3/3 205/3/3 204/3/3
f 209/2/3 204/2/3 208/2/3
f 210/3/3 148/3/3 205/3/3
f 210/3/3 205/3/3 209/3/3
f 211/3/3 206/3/3 145/3/3
f 212/1/3 209/1/3 208/1/3
f 212/3/3 206/3/3 211/3/3
f 212/1/3 208/1/3 206/1/3
f 212/1/3 210/1/3 209/1/3
f 213/3/3 148/3/3 210/3/3
f 213/1/3 210/1/3 212/1/3
f 214/3/3 148/3/3 213/3/3
f 222/3/3 216/3/3 215/3/3
f 223/3/3 216/3/3 222/3/3
f 224/3/3 218/3/3 217/3/3
f 225/2/3 219/2/3 218/2/3
f 225/3/3 218/3/3 224/3/3
f 226/2/3 219/2/3 225/2/3
f 227/3/3 221/3/3 220/3/3
f 228/3/3 221/3/3 227/3/3
f 232/1/3 230/1/3 229/1/3
f 233/4/3 231/4/3 230/4/3
f 233/1/3 230/1/3 232/1/3
f 234/4/3 231/4/3 233/4/3
f 238/1/3 236/1/3 235/1/3
f 239/4/3 237/4/3 236/4/3
f 239/1/3 236/1/3 238/1/3
f 240/4/3 237/4/3 239/4/3
f 244/1/3 242/1/3 241/1/3
f 245/4/3 243/4/3 242/4/3
f 245/1/3 242/1/3 244/1/3
f 246/4/3 243/4/3 245/4/3
f 247/5/4 248/5/4 251/5/4
f 251/5/4 248/5/4 252/5/4
f 249/5/4 250/5/4 253/5/4
f 253/5/4 250/5/4 254/5/4
f 255/5/4 256/5/4 259/5/4
f 259/5/4 256/5/4 260/5/4
f 257/5/4 258/5/4 261/5/4
f 261/5/4 258/5/4 262/5/4
f 263/3/4 264/3/4 268/3/4
f 265/2/4 266/2/4 269/2/4
f 263/3/4 268/3/4 270/3/4
f 268/2/4 269/2/4 271/2/4
f 270/3/4 268/3/4 271/3/4
f 266/3/4 267/3/4 272/3/4
f 271/2/4 269/2/4 272/2/4
f 269/2/4 266/2/4 272/2/4
f 270/1/4 271/1/4 273/1/4
f 263/3/4 270/3/4 273/3/4
f 271/1/4 272/1/4 273/1/4
f 273/1/4 272/1/4 274/1/4
f 272/3/4 267/3/4 275/3/4
f 274/1/4 272/1/4 275/1/4
f 275/3/4 267/3/4 276/3/4
f 273/3/4 274/3/4 277/3/4
f 263/3/4 273/3/4 277/3/4
f 274/2/4 275/2/4 278/2/4
f 277/3/4 274/3/4 278/3/4
f 275/1/4 276/1/4 279/1/4
f 278/2/4 275/2/4 279/2/4
f 277/1/4 278/1/4 280/1/4
f 263/3/4 277/3/4 280/3/4
f 278/1/4 279/1/4 280/1/4
f 280/1/4 279/1/4 281/1/4
f 279/1/4 276/1/4 282/1/4
f 281/1/4 279/1/4 282/1/4
f 276/3/4 267/3/4 283/3/4
f 282/1/4 276/1/4 283/1/4
f 280/3/4 281/3/4 284/3/4
f 263/3/4 280/3/4 284/3/4
f 281/2/4 282/2/4 285/2/4
f 284/3/4 281/3/4 285/3/4
f 282/3/4 283/3/4 286/3/4
f 285/2/4 282/2/4 286/2/4
f 283/3/4 267/3/4 287/3/4
f 286/3/4 283/3/4 287/3/4
f 285/1/4 286/1/4 288/1/4
f 284/1/4 285/1/4 288/1/4
f 286/1/4 287/1/4 288/1/4
f 288/1/4 287/1/4 289/1/4
f 284/1/4 288/1/4 290/1/4
f 288/2/4 289/2/4 290/2/4
f 289/1/4 287/1/4 291/1/4
f 290/2/4 289/2/4 291/2/4
f 263/3/4 284/3/4 292/3/4
f 284/1/4 290/1/4 292/1/4
f 290/1/4 291/1/4 292/1/4
f 292/1/4 291/1/4 293/1/4
f 291/1/4 287/1/4 294/1/4
f 293/1/4 291/1/4 294/1/4
f 287/3/4 267/3/4 295/3/4
f 294/1/4 287/1/4 295/1/4
f 292/3/4 293/3/4 296/3/4
f 263/3/4 292/3/4 296/3/4
f 293/2/4 294/2/4 297/2/4
f 296/3/4 293/3/4 297/3/4
f 294/3/4 295/3/4 298/3/4
f 297/2/4 294/2/4 298/2/4
f 263/3/4 296/3/4 299/3/4
f 296/1/4 297/1/4 299/1/4
f 297/1/4 298/1/4 299/1/4
f 299/1/4 298/1/4 300/1/4
f 298/3/4 295/3/4 301/3/4
f 300/1/4 298/1/4 301/1/4
f 295/3/4 267/3/4 302/3/4
f 301/3/4 295/3/4 302/3/4
f 299/3/4 300/3/4 303/3/4
f 263/3/4 299/3/4 303/3/4
f 300/2/4 301/2/4 304/2/4
f 303/3/4 300/3/4 304/3/4
f 301/1/4 302/1/4 305/1/4
f 304/2/4 301/2/4 305/2/4
f 263/3/4 303/3/4 306/3/4
f 303/1/4 304/1/4 306/1/4
f 304/1/4 305/1/4 306/1/4
f 306/1/4 305/1/4 307/1/4
f 305/1/4 302/1/4 308/1/4
f 307/1/4 305/1/4 308/1/4
f 306/3/4 307/3/4 309/3/4
f 263/3/4 306/3/4 309/3/4
f 307/2/4 308/2/4 310/2/4
f 309/3/4 307/3/4 310/3/4
f 308/1/4 302/1/4 311/1/4
f 310/2/4 308/2/4 311/2/4
f 302/3/4 267/3/4 312/3/4
f 311/1/4 302/1/4 312/1/4
f 309/1/4 310/1/4 313/1/4
f 310/1/4 311/1/4 313/1/4
f 263/3/4 309/3/4 313/3/4
f 313/1/4 311/1/4 314/1/4
f 311/3/4 312/3/4 315/3/4
f 314/1/4 311/1/4 315/1/4
f 313/3/4 314/3/4 316/3/4
f 263/3/4 313/3/4 316/3/4
f 314/2/4 315/2/4 317/2/4
f 316/3/4 314/3/4 317/3/4
f 317/2/4 315/2/4 318/2/4
f 318/2/4 315/2/4 319/2/4
f 315/3/4 312/3/4 320/3/4
f 319/2/4 315/2/4 320/2/4
f 312/3/4 267/3/4 321/3/4
f 320/3/4 312/3/4 321/3/4
f 316/1/4 317/1/4 322/1/4
f 317/2/4 318/2/4 322/2/4
f 318/1/4 319/1/4 323/1/4
f 322/2/4 318/2/4 323/2/4
f 319/2/4 320/2/4 324/2/4
f 323/1/4 319/1/4 324/1/4
f 320/1/4 321/1/4 325/1/4
f 324/2/4 320/2/4 325/2/4
f 322/1/4 323/1/4 326/1/4
f 316/1/4 322/1/4 326/1/4
f 324/1/4 325/1/4 326/1/4
f 323/1/4 324/1/4 326/1/4
f 263/3/4 316/3/4 326/3/4
f 326/1/4 325/1/4 327/1/4
f 325/1/4 321/1/4 328/1/4
f 327/1/4 325/1/4 328/1/4
f 321/3/4 267/3/4 329/3/4
f 328/1/4 321/1/4 329/1/4
f 326/3/4 327/3/4 330/3/4
f 263/3/4 326/3/4 330/3/4
f 327/2/4 328/2/4 331/2/4
f 330/3/4 327/3/4 331/3/4
f 330/1/4 331/1/4 332/1/4
f 331/2/4 328/2/4 332/2/4
f 328/3/4 329/3/4 333/3/4
f 332/2/4 328/2/4 333/2/4
f 329/3/4 267/3/4 334/3/4
f 333/3/4 329/3/4 334/3/4
f 332/1/4 333/1/4 335/1/4
f 263/3/4 330/3/4 335/3/4
f 333/1/4 334/1/4 335/1/4
f 330/1/4 332/1/4 335/1/4
f 335/1/4 334/1/4 336/1/4
f 336/1/4 334/1/4 337/1/4
f 334/3/4 267/3/4 338/3/4
f 337/1/4 334/1/4 338/1/4
f 263/3/4 335/3/4 339/3/4
f 335/3/4 336/3/4 339/3/4
f 339/3/4 336/3/4 340/3/4
f 336/2/4 337/2/4 341/2/4
f 337/3/4 338/3/4 341/3/4
f 338/3/4 267/3/4 342/3/4
f 341/3/4 338/3/4 342/3/4
f 263/3/4 339/3/4 343/3/4
f 343/3/4 339/3/4 344/3/4
f 340/3/4 336/3/4 345/3/4
f 336/2/4 341/2/4 346/2/4
f 345/3/4 336/3/4 346/3/4
f 346/2/4 341/2/4 347/2/4
f 342/3/4 267/3/4 348/3/4
f 348/3/4 267/3/4 349/3/4
f 350/3/4 351/3/4 352/3/4
f 352/3/4 351/3/4 353/3/4
f 354/1/4 355/1/4 357/1/4
f 355/4/4 356/4/4 358/4/4
f 357/1/4 355/1/4 358/1/4
f 358/4/4 356/4/4 359/4/4
f 360/1/4 361/1/4 363/1/4
f 361/4/4 362/4/4 364/4/4
f 363/1/4 361/1/4 364/1/4
f 364/4/4 362/4/4 365/4/4
f 366/1/4 367/1/4 369/1/4
f 367/4/4 368/4/4 370/4/4
f 369/1/4 367/1/4 370/1/4
f 370/4/4 368/4/4 371/4/4
f 372/2/4 373/2/4 374/2/4
f 374/2/4 373/2/4 375/2/4
f 378/3/5 377/3/5 376/3/5
f 379/3/5 377/3/5 378/3/5
f 380/3/5 378/3/5 376/3/5
f 380/5/5 379/5/5 378/5/5
f 381/3/5 377/3/5 379/3/5
f 381/5/5 379/5/5 380/5/5
f 382/3/5 380/3/5 376/3/5
f 382/3/5 381/3/5 380/3/5
f 383/3/5 377/3/5 381/3/5
f 383/3/5 381/3/5 382/3/5
f 388/2/5 385/2/5 384/2/5
f 389/2/5 387/2/5 386/2/5
f 390/2/5 388/2/5 384/2/5
f 390/2/5 389/2/5 388/2/5
f 391/2/5 387/2/5 389/2/5
f 391/2/5 389/2/5 390/2/5
f 398/3/5 393/3/5 392/3/5
f 398/3/5 397/3/5 396/3/5
f 398/3/5 396/3/5 395/3/5
f 398/3/5 395/3/5 394/3/5
f 398/3/5 394/3/5 393/3/5
f 399/3/5 397/3/5 398/3/5
f 402/3/5 401/3/5 400/3/5
f 403/3/5 401/3/5 402/3/5
f 406/2/5 405/2/5 404/2/5
f 407/2/5 405/2/5 406/2/5
f 410/3/5 409/3/5 408/3/5
f 411/3/5 409/3/5 410/3/5
f 412/2/6 413/2/6 414/2/6
f 414/2/6 413/2/6 415/2/6
f 415/2/6 413/2/6 416/2/6
f 416/2/6 413/2/6 417/2/6
f 412/2/6 414/2/6 418/2/6
f 415/2/6 416/2/6 419/2/6
f 419/2/6 416/2/6 420/2/6
f 417/2/6 413/2/6 421/2/6
f 419/2/6 420/2/6 422/2/6
f 420/2/6 421/2/6 422/2/6
f 418/2/6 419/2/6 422/2/6
f 422/2/6 421/2/6 423/2/6
f 423/2/6 421/2/6 424/2/6
f 424/2/6 421/2/6 425/2/6
f 425/2/6 421/2/6 426/2/6
f 426/2/6 421/2/6 427/2/6
f 418/2/6 422/2/6 428/2/6
f 423/2/6 424/2/6 429/2/6
f 429/2/6 424/2/6 430/2/6
f 425/2/6 426/2/6 431/2/6
f 431/2/6 426/2/6 432/2/6
f 427/2/6 421/2/6 433/2/6
f 412/2/6 418/2/6 434/2/6
f 432/2/6 433/2/6 434/2/6
f 431/2/6 432/2/6 434/2/6
f 429/2/6 430/2/6 434/2/6
f 430/2/6 431/2/6 434/2/6
f 418/2/6 428/2/6 434/2/6
f 428/2/6 429/2/6 434/2/6
f 421/2/6 413/2/6 435/2/6
f 434/2/6 433/2/6 435/2/6
f 433/2/6 421/2/6 435/2/6
f 436/4/6 437/4/6 442/4/6
f 442/4/6 437/4/6 443/4/6
f 438/4/6 439/4/6 444/4/6
f 444/4/6 439/4/6 445/4/6
f 440/4/6 441/4/6 446/4/6
f 446/4/6 441/4/6 447/4/6
f 448/3/6 449/3/6 450/3/6
f 450/3/6 449/3/6 451/3/6
f 452/3/6 453/3/6 454/3/6
f 454/3/6 453/3/6 455/3/6
f 456/2/6 457/2/6 458/2/6
f 458/2/6 457/2/6 459/2/6
f 460/3/6 461/3/6 466/3/6
f 464/3/6 465/3/6 466/3/6
f 463/3/6 464/3/6 466/3/6
f 462/3/6 463/3/6 466/3/6
f 461/3/6 462/3/6 466/3/6
f 466/3/6 465/3/6 467/3/6
f 468/5/6 469/5/6 472/5/6
f 472/5/6 469/5/6 473/5/6
f 470/5/6 471/5/6 474/5/6
f 474/5/6 471/5/6 475/5/6
