# MagicaVoxel @ Ephtracy

# group
o 

# material
mtllib busHouse3.mtl
usemtl palette

# normals
vn -1 0 0
vn 1 0 0
vn 0 0 1
vn 0 0 -1
vn 0 -1 0
vn 0 1 0

# texcoords
vt 0.306641 0.5
vt 0.908203 0.5
vt 0.912109 0.5
vt 0.939453 0.5
vt 0.943359 0.5
vt 0.947266 0.5

# verts
v 0 2 0
v 0 2 -6
v 0 2.1 0
v 0 2.1 -6
v 0 2.3 0
v 0 2.3 -6
v 0 12 0
v 0 12 -6
v 0.1 2.3 0
v 0.1 2.3 -6
v 0.1 11.4 0
v 0.1 11.4 -6
v 0.2 2.1 0
v 0.2 2.1 -0.9
v 0.2 2.1 -1
v 0.2 2.1 -1.9
v 0.2 2.1 -2
v 0.2 2.1 -2.9
v 0.2 2.1 -3
v 0.2 2.1 -3.9
v 0.2 2.1 -4
v 0.2 2.1 -4.1
v 0.2 2.1 -4.9
v 0.2 2.1 -5
v 0.2 2.1 -5.9
v 0.2 2.1 -6
v 0.2 2.2 -4.1
v 0.2 2.2 -4.9
v 0.2 2.3 0
v 0.2 2.3 -6
v 0.3 11.4 0
v 0.3 11.4 -6
v 0.3 12 0
v 0.3 12 -6
v 12.6 2 0
v 12.6 2 -0.9
v 12.6 2 -1
v 12.6 2 -1.9
v 12.6 2 -2
v 12.6 2 -2.9
v 12.6 2 -3
v 12.6 2 -3.9
v 12.6 2 -5
v 12.6 2 -5.9
v 12.6 2 -6
v 12.6 2.1 0
v 12.6 2.1 -0.9
v 12.6 2.1 -1
v 12.6 2.1 -1.9
v 12.6 2.1 -2
v 12.6 2.1 -2.9
v 12.6 2.1 -3
v 12.6 2.1 -3.9
v 12.6 2.1 -5
v 12.6 2.1 -5.9
v 12.6 2.1 -6
v 0 2 0
v 0 2.1 0
v 0 2.3 0
v 0 12 0
v 0.1 2.3 0
v 0.1 11.4 0
v 0.1 12 0
v 0.2 2 0
v 0.2 2.1 0
v 0.2 2.3 0
v 0.3 11.4 0
v 0.3 12 0
v 4 2 0
v 4 2.1 0
v 4.1 2 0
v 4.1 2.1 0
v 8 2 0
v 8 2.1 0
v 8.1 2 0
v 8.1 2.1 0
v 12 2 0
v 12 2.1 0
v 12.1 2 0
v 12.1 2.1 0
v 12.6 2 0
v 12.6 2.1 0
v 0 2 -6
v 0 2.1 -6
v 0 2.3 -6
v 0 12 -6
v 0.1 2.3 -6
v 0.1 11.4 -6
v 0.1 12 -6
v 0.2 2 -6
v 0.2 2.1 -6
v 0.2 2.3 -6
v 0.3 11.4 -6
v 0.3 12 -6
v 12.6 2 -6
v 12.6 2.1 -6
v 0 2 0
v 0.2 2 0
v 4 2 0
v 4.1 2 0
v 8 2 0
v 8.1 2 0
v 12 2 0
v 12.1 2 0
v 12.6 2 0
v 0.2 2 -0.9
v 4 2 -0.9
v 4.1 2 -0.9
v 8 2 -0.9
v 8.1 2 -0.9
v 12 2 -0.9
v 12.1 2 -0.9
v 12.6 2 -0.9
v 0.2 2 -1
v 3 2 -1
v 3.1 2 -1
v 7 2 -1
v 7.1 2 -1
v 11 2 -1
v 11.1 2 -1
v 12.6 2 -1
v 0.2 2 -1.9
v 3 2 -1.9
v 3.1 2 -1.9
v 7 2 -1.9
v 7.1 2 -1.9
v 11 2 -1.9
v 11.1 2 -1.9
v 12.6 2 -1.9
v 0.2 2 -2
v 4 2 -2
v 4.1 2 -2
v 7 2 -2
v 7.1 2 -2
v 10 2 -2
v 10.1 2 -2
v 12 2 -2
v 12.1 2 -2
v 12.6 2 -2
v 0.2 2 -2.9
v 4 2 -2.9
v 4.1 2 -2.9
v 7 2 -2.9
v 7.1 2 -2.9
v 10 2 -2.9
v 10.1 2 -2.9
v 12 2 -2.9
v 12.1 2 -2.9
v 12.6 2 -2.9
v 0.2 2 -3
v 4 2 -3
v 4.1 2 -3
v 8 2 -3
v 8.1 2 -3
v 11 2 -3
v 11.1 2 -3
v 12.6 2 -3
v 0.2 2 -3.9
v 4 2 -3.9
v 4.1 2 -3.9
v 8 2 -3.9
v 8.1 2 -3.9
v 11 2 -3.9
v 11.1 2 -3.9
v 12.6 2 -3.9
v 0.2 2 -4
v 3 2 -4
v 3.1 2 -4
v 7 2 -4
v 7.1 2 -4
v 10 2 -4
v 10.1 2 -4
v 12.5 2 -4
v 0.1 2 -4.1
v 0.2 2 -4.1
v 0.1 2 -4.9
v 0.2 2 -4.9
v 3 2 -4.9
v 3.1 2 -4.9
v 7 2 -4.9
v 7.1 2 -4.9
v 10 2 -4.9
v 10.1 2 -4.9
v 12.5 2 -4.9
v 0.2 2 -5
v 3.9 2 -5
v 4 2 -5
v 8 2 -5
v 8.1 2 -5
v 10.9 2 -5
v 11 2 -5
v 12.6 2 -5
v 0.2 2 -5.9
v 3.9 2 -5.9
v 4 2 -5.9
v 8 2 -5.9
v 8.1 2 -5.9
v 10.9 2 -5.9
v 11 2 -5.9
v 12.6 2 -5.9
v 0 2 -6
v 0.2 2 -6
v 12.6 2 -6
v 0.1 11.4 0
v 0.3 11.4 0
v 0.1 11.4 -6
v 0.3 11.4 -6
v 0.2 2.1 0
v 4 2.1 0
v 4.1 2.1 0
v 8 2.1 0
v 8.1 2.1 0
v 12 2.1 0
v 12.1 2.1 0
v 12.6 2.1 0
v 0.2 2.1 -0.9
v 4 2.1 -0.9
v 4.1 2.1 -0.9
v 8 2.1 -0.9
v 8.1 2.1 -0.9
v 12 2.1 -0.9
v 12.1 2.1 -0.9
v 12.6 2.1 -0.9
v 0.2 2.1 -1
v 3 2.1 -1
v 3.1 2.1 -1
v 7 2.1 -1
v 7.1 2.1 -1
v 11 2.1 -1
v 11.1 2.1 -1
v 12.6 2.1 -1
v 0.2 2.1 -1.9
v 3 2.1 -1.9
v 3.1 2.1 -1.9
v 7 2.1 -1.9
v 7.1 2.1 -1.9
v 11 2.1 -1.9
v 11.1 2.1 -1.9
v 12.6 2.1 -1.9
v 0.2 2.1 -2
v 4 2.1 -2
v 4.1 2.1 -2
v 7 2.1 -2
v 7.1 2.1 -2
v 10 2.1 -2
v 10.1 2.1 -2
v 12 2.1 -2
v 12.1 2.1 -2
v 12.6 2.1 -2
v 0.2 2.1 -2.9
v 4 2.1 -2.9
v 4.1 2.1 -2.9
v 7 2.1 -2.9
v 7.1 2.1 -2.9
v 10 2.1 -2.9
v 10.1 2.1 -2.9
v 12 2.1 -2.9
v 12.1 2.1 -2.9
v 12.6 2.1 -2.9
v 0.2 2.1 -3
v 4 2.1 -3
v 4.1 2.1 -3
v 8 2.1 -3
v 8.1 2.1 -3
v 11 2.1 -3
v 11.1 2.1 -3
v 12.6 2.1 -3
v 0.2 2.1 -3.9
v 4 2.1 -3.9
v 4.1 2.1 -3.9
v 8 2.1 -3.9
v 8.1 2.1 -3.9
v 11 2.1 -3.9
v 11.1 2.1 -3.9
v 12.6 2.1 -3.9
v 0.2 2.1 -4
v 3 2.1 -4
v 3.1 2.1 -4
v 7 2.1 -4
v 7.1 2.1 -4
v 10 2.1 -4
v 10.1 2.1 -4
v 12.5 2.1 -4
v 0.2 2.1 -4.1
v 0.2 2.1 -4.9
v 3 2.1 -4.9
v 3.1 2.1 -4.9
v 7 2.1 -4.9
v 7.1 2.1 -4.9
v 10 2.1 -4.9
v 10.1 2.1 -4.9
v 12.5 2.1 -4.9
v 0.2 2.1 -5
v 3.9 2.1 -5
v 4 2.1 -5
v 8 2.1 -5
v 8.1 2.1 -5
v 10.9 2.1 -5
v 11 2.1 -5
v 12.6 2.1 -5
v 0.2 2.1 -5.9
v 3.9 2.1 -5.9
v 4 2.1 -5.9
v 8 2.1 -5.9
v 8.1 2.1 -5.9
v 10.9 2.1 -5.9
v 11 2.1 -5.9
v 12.6 2.1 -5.9
v 0.2 2.1 -6
v 12.6 2.1 -6
v 0.1 2.3 0
v 0.2 2.3 0
v 0.1 2.3 -6
v 0.2 2.3 -6
v 0 12 0
v 0.1 12 0
v 0.3 12 0
v 0 12 -6
v 0.1 12 -6
v 0.3 12 -6

# faces
f 3/1/1 2/1/1 1/1/1
f 4/1/1 2/1/1 3/1/1
f 5/4/1 4/4/1 3/4/1
f 6/4/1 4/4/1 5/4/1
f 7/5/1 6/5/1 5/5/1
f 8/5/1 6/5/1 7/5/1
f 9/5/2 10/5/2 11/5/2
f 11/5/2 10/5/2 12/5/2
f 13/4/2 14/4/2 27/4/2
f 14/4/2 15/4/2 27/4/2
f 15/4/2 16/4/2 27/4/2
f 16/4/2 17/4/2 27/4/2
f 22/3/2 23/3/2 27/3/2
f 21/4/2 22/4/2 27/4/2
f 20/4/2 21/4/2 27/4/2
f 19/4/2 20/4/2 27/4/2
f 18/4/2 19/4/2 27/4/2
f 17/4/2 18/4/2 27/4/2
f 25/4/2 26/4/2 28/4/2
f 27/3/2 23/3/2 28/3/2
f 24/4/2 25/4/2 28/4/2
f 23/4/2 24/4/2 28/4/2
f 13/4/2 27/4/2 29/4/2
f 27/4/2 28/4/2 29/4/2
f 28/4/2 26/4/2 30/4/2
f 29/4/2 28/4/2 30/4/2
f 31/4/2 32/4/2 33/4/2
f 33/4/2 32/4/2 34/4/2
f 35/2/2 36/2/2 46/2/2
f 36/6/2 37/6/2 47/6/2
f 46/2/2 36/2/2 47/2/2
f 37/3/2 38/3/2 48/3/2
f 47/6/2 37/6/2 48/6/2
f 38/6/2 39/6/2 49/6/2
f 48/3/2 38/3/2 49/3/2
f 39/3/2 40/3/2 50/3/2
f 49/6/2 39/6/2 50/6/2
f 40/6/2 41/6/2 51/6/2
f 50/3/2 40/3/2 51/3/2
f 41/2/2 42/2/2 52/2/2
f 51/6/2 41/6/2 52/6/2
f 42/6/2 43/6/2 53/6/2
f 52/2/2 42/2/2 53/2/2
f 43/3/2 44/3/2 54/3/2
f 53/6/2 43/6/2 54/6/2
f 44/6/2 45/6/2 55/6/2
f 54/3/2 44/3/2 55/3/2
f 55/6/2 45/6/2 56/6/2
f 61/4/3 59/4/3 58/4/3
f 61/5/3 60/5/3 59/5/3
f 62/5/3 60/5/3 61/5/3
f 63/5/3 60/5/3 62/5/3
f 64/1/3 58/1/3 57/1/3
f 65/4/3 61/4/3 58/4/3
f 65/1/3 58/1/3 64/1/3
f 66/4/3 61/4/3 65/4/3
f 67/4/3 63/4/3 62/4/3
f 68/4/3 63/4/3 67/4/3
f 69/3/3 65/3/3 64/3/3
f 70/3/3 65/3/3 69/3/3
f 71/6/3 70/6/3 69/6/3
f 72/6/3 70/6/3 71/6/3
f 73/2/3 72/2/3 71/2/3
f 74/2/3 72/2/3 73/2/3
f 75/6/3 74/6/3 73/6/3
f 76/6/3 74/6/3 75/6/3
f 77/3/3 76/3/3 75/3/3
f 78/3/3 76/3/3 77/3/3
f 79/6/3 78/6/3 77/6/3
f 80/6/3 78/6/3 79/6/3
f 81/2/3 80/2/3 79/2/3
f 82/2/3 80/2/3 81/2/3
f 84/4/4 85/4/4 87/4/4
f 85/5/4 86/5/4 87/5/4
f 87/5/4 86/5/4 88/5/4
f 88/5/4 86/5/4 89/5/4
f 83/1/4 84/1/4 90/1/4
f 84/4/4 87/4/4 91/4/4
f 90/1/4 84/1/4 91/1/4
f 91/4/4 87/4/4 92/4/4
f 88/4/4 89/4/4 93/4/4
f 93/4/4 89/4/4 94/4/4
f 90/6/4 91/6/4 95/6/4
f 95/6/4 91/6/4 96/6/4
f 106/1/5 98/1/5 97/1/5
f 106/3/5 99/3/5 98/3/5
f 107/6/5 100/6/5 99/6/5
f 107/3/5 99/3/5 106/3/5
f 108/2/5 101/2/5 100/2/5
f 108/6/5 100/6/5 107/6/5
f 109/6/5 102/6/5 101/6/5
f 109/2/5 101/2/5 108/2/5
f 110/3/5 103/3/5 102/3/5
f 110/6/5 102/6/5 109/6/5
f 111/6/5 104/6/5 103/6/5
f 111/3/5 103/3/5 110/3/5
f 112/2/5 105/2/5 104/2/5
f 112/6/5 104/6/5 111/6/5
f 113/2/5 105/2/5 112/2/5
f 114/6/5 111/6/5 110/6/5
f 114/6/5 110/6/5 109/6/5
f 114/6/5 113/6/5 112/6/5
f 114/6/5 112/6/5 111/6/5
f 114/6/5 109/6/5 108/6/5
f 114/6/5 108/6/5 107/6/5
f 114/6/5 107/6/5 106/6/5
f 114/1/5 106/1/5 97/1/5
f 115/6/5 113/6/5 114/6/5
f 116/6/5 113/6/5 115/6/5
f 117/6/5 113/6/5 116/6/5
f 118/6/5 113/6/5 117/6/5
f 119/6/5 113/6/5 118/6/5
f 120/6/5 113/6/5 119/6/5
f 121/6/5 113/6/5 120/6/5
f 122/1/5 114/1/5 97/1/5
f 122/2/5 115/2/5 114/2/5
f 123/6/5 116/6/5 115/6/5
f 123/2/5 115/2/5 122/2/5
f 124/3/5 117/3/5 116/3/5
f 124/6/5 116/6/5 123/6/5
f 125/6/5 118/6/5 117/6/5
f 125/3/5 117/3/5 124/3/5
f 126/2/5 119/2/5 118/2/5
f 126/6/5 118/6/5 125/6/5
f 127/6/5 120/6/5 119/6/5
f 127/2/5 119/2/5 126/2/5
f 128/3/5 121/3/5 120/3/5
f 128/6/5 120/6/5 127/6/5
f 129/3/5 121/3/5 128/3/5
f 130/6/5 127/6/5 126/6/5
f 130/1/5 122/1/5 97/1/5
f 130/6/5 129/6/5 128/6/5
f 130/6/5 128/6/5 127/6/5
f 130/6/5 126/6/5 125/6/5
f 130/6/5 125/6/5 124/6/5
f 130/6/5 124/6/5 123/6/5
f 130/6/5 123/6/5 122/6/5
f 131/6/5 129/6/5 130/6/5
f 132/6/5 129/6/5 131/6/5
f 133/6/5 129/6/5 132/6/5
f 134/6/5 129/6/5 133/6/5
f 135/6/5 129/6/5 134/6/5
f 136/6/5 129/6/5 135/6/5
f 137/6/5 129/6/5 136/6/5
f 138/6/5 129/6/5 137/6/5
f 139/6/5 129/6/5 138/6/5
f 140/1/5 130/1/5 97/1/5
f 140/3/5 131/3/5 130/3/5
f 141/6/5 132/6/5 131/6/5
f 141/3/5 131/3/5 140/3/5
f 142/2/5 133/2/5 132/2/5
f 142/6/5 132/6/5 141/6/5
f 143/6/5 134/6/5 133/6/5
f 143/2/5 133/2/5 142/2/5
f 144/3/5 135/3/5 134/3/5
f 144/6/5 134/6/5 143/6/5
f 145/6/5 136/6/5 135/6/5
f 145/3/5 135/3/5 144/3/5
f 146/2/5 137/2/5 136/2/5
f 146/6/5 136/6/5 145/6/5
f 147/6/5 138/6/5 137/6/5
f 147/2/5 137/2/5 146/2/5
f 148/3/5 139/3/5 138/3/5
f 148/6/5 138/6/5 147/6/5
f 149/3/5 139/3/5 148/3/5
f 150/6/5 147/6/5 146/6/5
f 150/1/5 140/1/5 97/1/5
f 150/6/5 149/6/5 148/6/5
f 150/6/5 148/6/5 147/6/5
f 150/6/5 146/6/5 145/6/5
f 150/6/5 145/6/5 144/6/5
f 150/6/5 144/6/5 143/6/5
f 150/6/5 143/6/5 142/6/5
f 150/6/5 142/6/5 141/6/5
f 150/6/5 141/6/5 140/6/5
f 151/6/5 149/6/5 150/6/5
f 152/6/5 149/6/5 151/6/5
f 153/6/5 149/6/5 152/6/5
f 154/6/5 149/6/5 153/6/5
f 155/6/5 149/6/5 154/6/5
f 156/6/5 149/6/5 155/6/5
f 157/6/5 149/6/5 156/6/5
f 158/1/5 150/1/5 97/1/5
f 158/2/5 151/2/5 150/2/5
f 159/6/5 152/6/5 151/6/5
f 159/2/5 151/2/5 158/2/5
f 160/3/5 153/3/5 152/3/5
f 160/6/5 152/6/5 159/6/5
f 161/6/5 154/6/5 153/6/5
f 161/3/5 153/3/5 160/3/5
f 162/3/5 155/3/5 154/3/5
f 162/6/5 154/6/5 161/6/5
f 163/6/5 156/6/5 155/6/5
f 163/3/5 155/3/5 162/3/5
f 164/2/5 157/2/5 156/2/5
f 164/6/5 156/6/5 163/6/5
f 165/2/5 157/2/5 164/2/5
f 166/6/5 163/6/5 162/6/5
f 166/1/5 158/1/5 97/1/5
f 166/6/5 165/6/5 164/6/5
f 166/6/5 164/6/5 163/6/5
f 166/6/5 162/6/5 161/6/5
f 166/6/5 161/6/5 160/6/5
f 166/6/5 160/6/5 159/6/5
f 166/6/5 159/6/5 158/6/5
f 167/6/5 165/6/5 166/6/5
f 168/6/5 165/6/5 167/6/5
f 169/6/5 165/6/5 168/6/5
f 170/6/5 165/6/5 169/6/5
f 171/6/5 165/6/5 170/6/5
f 172/6/5 165/6/5 171/6/5
f 173/6/5 165/6/5 172/6/5
f 174/1/5 166/1/5 97/1/5
f 175/3/5 167/3/5 166/3/5
f 175/1/5 166/1/5 174/1/5
f 176/1/5 174/1/5 97/1/5
f 176/3/5 175/3/5 174/3/5
f 177/3/5 167/3/5 175/3/5
f 177/3/5 175/3/5 176/3/5
f 178/6/5 168/6/5 167/6/5
f 178/3/5 167/3/5 177/3/5
f 179/2/5 169/2/5 168/2/5
f 179/6/5 168/6/5 178/6/5
f 180/6/5 170/6/5 169/6/5
f 180/2/5 169/2/5 179/2/5
f 181/3/5 171/3/5 170/3/5
f 181/6/5 170/6/5 180/6/5
f 182/6/5 172/6/5 171/6/5
f 182/3/5 171/3/5 181/3/5
f 183/2/5 173/2/5 172/2/5
f 183/6/5 172/6/5 182/6/5
f 184/6/5 165/6/5 173/6/5
f 184/2/5 173/2/5 183/2/5
f 185/6/5 183/6/5 182/6/5
f 185/1/5 177/1/5 176/1/5
f 185/6/5 184/6/5 183/6/5
f 185/6/5 182/6/5 181/6/5
f 185/6/5 181/6/5 180/6/5
f 185/6/5 180/6/5 179/6/5
f 185/6/5 179/6/5 178/6/5
f 185/6/5 178/6/5 177/6/5
f 186/6/5 184/6/5 185/6/5
f 187/6/5 184/6/5 186/6/5
f 188/6/5 184/6/5 187/6/5
f 189/6/5 184/6/5 188/6/5
f 190/6/5 184/6/5 189/6/5
f 191/6/5 184/6/5 190/6/5
f 192/6/5 165/6/5 184/6/5
f 192/6/5 184/6/5 191/6/5
f 193/1/5 185/1/5 176/1/5
f 193/2/5 186/2/5 185/2/5
f 194/6/5 187/6/5 186/6/5
f 194/2/5 186/2/5 193/2/5
f 195/3/5 188/3/5 187/3/5
f 195/6/5 187/6/5 194/6/5
f 196/6/5 189/6/5 188/6/5
f 196/3/5 188/3/5 195/3/5
f 197/2/5 190/2/5 189/2/5
f 197/6/5 189/6/5 196/6/5
f 198/6/5 191/6/5 190/6/5
f 198/2/5 190/2/5 197/2/5
f 199/3/5 192/3/5 191/3/5
f 199/6/5 191/6/5 198/6/5
f 200/3/5 192/3/5 199/3/5
f 201/1/5 176/1/5 97/1/5
f 201/1/5 193/1/5 176/1/5
f 202/6/5 197/6/5 196/6/5
f 202/1/5 193/1/5 201/1/5
f 202/6/5 198/6/5 197/6/5
f 202/6/5 199/6/5 198/6/5
f 202/6/5 196/6/5 195/6/5
f 202/6/5 195/6/5 194/6/5
f 202/6/5 194/6/5 193/6/5
f 202/6/5 200/6/5 199/6/5
f 203/6/5 200/6/5 202/6/5
f 206/4/5 205/4/5 204/4/5
f 207/4/5 205/4/5 206/4/5
f 208/3/6 209/3/6 216/3/6
f 209/6/6 210/6/6 217/6/6
f 216/3/6 209/3/6 217/3/6
f 210/2/6 211/2/6 218/2/6
f 217/6/6 210/6/6 218/6/6
f 211/6/6 212/6/6 219/6/6
f 218/2/6 211/2/6 219/2/6
f 212/3/6 213/3/6 220/3/6
f 219/6/6 212/6/6 220/6/6
f 213/6/6 214/6/6 221/6/6
f 220/3/6 213/3/6 221/3/6
f 214/2/6 215/2/6 222/2/6
f 221/6/6 214/6/6 222/6/6
f 222/2/6 215/2/6 223/2/6
f 220/6/6 221/6/6 224/6/6
f 216/6/6 217/6/6 224/6/6
f 222/6/6 223/6/6 224/6/6
f 221/6/6 222/6/6 224/6/6
f 219/6/6 220/6/6 224/6/6
f 218/6/6 219/6/6 224/6/6
f 217/6/6 218/6/6 224/6/6
f 224/6/6 223/6/6 225/6/6
f 225/6/6 223/6/6 226/6/6
f 226/6/6 223/6/6 227/6/6
f 227/6/6 223/6/6 228/6/6
f 228/6/6 223/6/6 229/6/6
f 229/6/6 223/6/6 230/6/6
f 230/6/6 223/6/6 231/6/6
f 224/2/6 225/2/6 232/2/6
f 225/6/6 226/6/6 233/6/6
f 232/2/6 225/2/6 233/2/6
f 226/3/6 227/3/6 234/3/6
f 233/6/6 226/6/6 234/6/6
f 227/6/6 228/6/6 235/6/6
f 234/3/6 227/3/6 235/3/6
f 228/2/6 229/2/6 236/2/6
f 235/6/6 228/6/6 236/6/6
f 229/6/6 230/6/6 237/6/6
f 236/2/6 229/2/6 237/2/6
f 230/3/6 231/3/6 238/3/6
f 237/6/6 230/6/6 238/6/6
f 238/3/6 231/3/6 239/3/6
f 232/6/6 233/6/6 240/6/6
f 233/6/6 234/6/6 240/6/6
f 238/6/6 239/6/6 240/6/6
f 237/6/6 238/6/6 240/6/6
f 236/6/6 237/6/6 240/6/6
f 235/6/6 236/6/6 240/6/6
f 234/6/6 235/6/6 240/6/6
f 240/6/6 239/6/6 241/6/6
f 241/6/6 239/6/6 242/6/6
f 242/6/6 239/6/6 243/6/6
f 243/6/6 239/6/6 244/6/6
f 244/6/6 239/6/6 245/6/6
f 245/6/6 239/6/6 246/6/6
f 246/6/6 239/6/6 247/6/6
f 247/6/6 239/6/6 248/6/6
f 248/6/6 239/6/6 249/6/6
f 240/3/6 241/3/6 250/3/6
f 241/6/6 242/6/6 251/6/6
f 250/3/6 241/3/6 251/3/6
f 242/2/6 243/2/6 252/2/6
f 251/6/6 242/6/6 252/6/6
f 243/6/6 244/6/6 253/6/6
f 252/2/6 243/2/6 253/2/6
f 244/3/6 245/3/6 254/3/6
f 253/6/6 244/6/6 254/6/6
f 245/6/6 246/6/6 255/6/6
f 254/3/6 245/3/6 255/3/6
f 246/2/6 247/2/6 256/2/6
f 255/6/6 246/6/6 256/6/6
f 247/6/6 248/6/6 257/6/6
f 256/2/6 247/2/6 257/2/6
f 248/3/6 249/3/6 258/3/6
f 257/6/6 248/6/6 258/6/6
f 258/3/6 249/3/6 259/3/6
f 250/6/6 251/6/6 260/6/6
f 251/6/6 252/6/6 260/6/6
f 258/6/6 259/6/6 260/6/6
f 257/6/6 258/6/6 260/6/6
f 256/6/6 257/6/6 260/6/6
f 255/6/6 256/6/6 260/6/6
f 254/6/6 255/6/6 260/6/6
f 253/6/6 254/6/6 260/6/6
f 252/6/6 253/6/6 260/6/6
f 260/6/6 259/6/6 261/6/6
f 261/6/6 259/6/6 262/6/6
f 262/6/6 259/6/6 263/6/6
f 263/6/6 259/6/6 264/6/6
f 264/6/6 259/6/6 265/6/6
f 265/6/6 259/6/6 266/6/6
f 266/6/6 259/6/6 267/6/6
f 260/2/6 261/2/6 268/2/6
f 261/6/6 262/6/6 269/6/6
f 268/2/6 261/2/6 269/2/6
f 262/3/6 263/3/6 270/3/6
f 269/6/6 262/6/6 270/6/6
f 263/6/6 264/6/6 271/6/6
f 270/3/6 263/3/6 271/3/6
f 264/3/6 265/3/6 272/3/6
f 271/6/6 264/6/6 272/6/6
f 265/6/6 266/6/6 273/6/6
f 272/3/6 265/3/6 273/3/6
f 266/2/6 267/2/6 274/2/6
f 273/6/6 266/6/6 274/6/6
f 274/2/6 267/2/6 275/2/6
f 268/6/6 269/6/6 276/6/6
f 269/6/6 270/6/6 276/6/6
f 274/6/6 275/6/6 276/6/6
f 273/6/6 274/6/6 276/6/6
f 272/6/6 273/6/6 276/6/6
f 271/6/6 272/6/6 276/6/6
f 270/6/6 271/6/6 276/6/6
f 276/6/6 275/6/6 277/6/6
f 277/6/6 275/6/6 278/6/6
f 278/6/6 275/6/6 279/6/6
f 279/6/6 275/6/6 280/6/6
f 280/6/6 275/6/6 281/6/6
f 281/6/6 275/6/6 282/6/6
f 282/6/6 275/6/6 283/6/6
f 276/3/6 277/3/6 284/3/6
f 284/3/6 277/3/6 285/3/6
f 277/6/6 278/6/6 286/6/6
f 285/3/6 277/3/6 286/3/6
f 278/2/6 279/2/6 287/2/6
f 286/6/6 278/6/6 287/6/6
f 279/6/6 280/6/6 288/6/6
f 287/2/6 279/2/6 288/2/6
f 280/3/6 281/3/6 289/3/6
f 288/6/6 280/6/6 289/6/6
f 281/6/6 282/6/6 290/6/6
f 289/3/6 281/3/6 290/3/6
f 282/2/6 283/2/6 291/2/6
f 290/6/6 282/6/6 291/6/6
f 283/6/6 275/6/6 292/6/6
f 291/2/6 283/2/6 292/2/6
f 290/6/6 291/6/6 293/6/6
f 285/6/6 286/6/6 293/6/6
f 291/6/6 292/6/6 293/6/6
f 286/6/6 287/6/6 293/6/6
f 289/6/6 290/6/6 293/6/6
f 288/6/6 289/6/6 293/6/6
f 287/6/6 288/6/6 293/6/6
f 293/6/6 292/6/6 294/6/6
f 294/6/6 292/6/6 295/6/6
f 295/6/6 292/6/6 296/6/6
f 296/6/6 292/6/6 297/6/6
f 297/6/6 292/6/6 298/6/6
f 298/6/6 292/6/6 299/6/6
f 292/6/6 275/6/6 300/6/6
f 299/6/6 292/6/6 300/6/6
f 293/2/6 294/2/6 301/2/6
f 294/6/6 295/6/6 302/6/6
f 301/2/6 294/2/6 302/2/6
f 295/3/6 296/3/6 303/3/6
f 302/6/6 295/6/6 303/6/6
f 296/6/6 297/6/6 304/6/6
f 303/3/6 296/3/6 304/3/6
f 297/2/6 298/2/6 305/2/6
f 304/6/6 297/6/6 305/6/6
f 298/6/6 299/6/6 306/6/6
f 305/2/6 298/2/6 306/2/6
f 299/3/6 300/3/6 307/3/6
f 306/6/6 299/6/6 307/6/6
f 307/3/6 300/3/6 308/3/6
f 304/6/6 305/6/6 309/6/6
f 301/6/6 302/6/6 309/6/6
f 307/6/6 308/6/6 309/6/6
f 306/6/6 307/6/6 309/6/6
f 305/6/6 306/6/6 309/6/6
f 303/6/6 304/6/6 309/6/6
f 302/6/6 303/6/6 309/6/6
f 309/6/6 308/6/6 310/6/6
f 311/4/6 312/4/6 313/4/6
f 313/4/6 312/4/6 314/4/6
f 315/5/6 316/5/6 318/5/6
f 316/4/6 317/4/6 319/4/6
f 318/5/6 316/5/6 319/5/6
f 319/4/6 317/4/6 320/4/6
