# MagicaVoxel @ Ephtracy

# group
o 

# material
mtllib busHouse4.mtl
usemtl palette

# normals
vn -1 0 0
vn 1 0 0
vn 0 0 1
vn 0 0 -1
vn 0 -1 0
vn 0 1 0

# texcoords
vt 0.306641 0.5
vt 0.908203 0.5
vt 0.943359 0.5
vt 0.947266 0.5
vt 0.951172 0.5
vt 0.955078 0.5

# verts
v 0 2 0
v 0 2 -0.9
v 0 2 -1
v 0 2 -1.9
v 0 2 -2
v 0 2 -2.9
v 0 2 -3
v 0 2 -3.9
v 0 2 -4
v 0 2 -4.9
v 0 2 -5
v 0 2 -5.9
v 0 2 -6
v 0 2.1 0
v 0 2.1 -0.9
v 0 2.1 -1
v 0 2.1 -1.9
v 0 2.1 -2
v 0 2.1 -2.9
v 0 2.1 -3
v 0 2.1 -3.9
v 0 2.1 -4
v 0 2.1 -4.9
v 0 2.1 -5
v 0 2.1 -5.9
v 0 2.1 -6
v 12.3 11.4 0
v 12.3 11.4 -6
v 12.3 12 0
v 12.3 12 -6
v 12.4 2.1 0
v 12.4 2.1 -0.9
v 12.4 2.1 -1
v 12.4 2.1 -1.9
v 12.4 2.1 -2
v 12.4 2.1 -2.9
v 12.4 2.1 -3
v 12.4 2.1 -3.9
v 12.4 2.1 -4
v 12.4 2.1 -4.9
v 12.4 2.1 -5
v 12.4 2.1 -5.9
v 12.4 2.1 -6
v 12.4 2.4 0
v 12.4 2.4 -6
v 12.5 2.4 0
v 12.5 2.4 -6
v 12.5 11.4 0
v 12.5 11.4 -6
v 12.6 2 0
v 12.6 2 -0.1
v 12.6 2 -5.9
v 12.6 2 -6
v 12.6 2.3 0
v 12.6 2.3 -0.1
v 12.6 2.3 -5.9
v 12.6 2.3 -6
v 12.6 11.9 0
v 12.6 11.9 -6
v 12.6 12 0
v 12.6 12 -6
v 0 2 0
v 0 2.1 0
v 3 2 0
v 3 2.1 0
v 3.1 2 0
v 3.1 2.1 0
v 5 2 0
v 5 2.1 0
v 5.1 2 0
v 5.1 2.1 0
v 9 2 0
v 9 2.1 0
v 9.1 2 0
v 9.1 2.1 0
v 12.3 11.4 0
v 12.3 12 0
v 12.4 2 0
v 12.4 2.1 0
v 12.4 2.4 0
v 12.5 2.3 0
v 12.5 2.4 0
v 12.5 11.4 0
v 12.5 11.9 0
v 12.6 2 0
v 12.6 2.3 0
v 12.6 11.9 0
v 12.6 12 0
v 0 2 -6
v 0 2.1 -6
v 12.3 11.4 -6
v 12.3 12 -6
v 12.4 2 -6
v 12.4 2.1 -6
v 12.4 2.4 -6
v 12.5 2.3 -6
v 12.5 2.4 -6
v 12.5 11.4 -6
v 12.5 11.9 -6
v 12.6 2 -6
v 12.6 2.3 -6
v 12.6 11.9 -6
v 12.6 12 -6
v 0 2 0
v 3 2 0
v 3.1 2 0
v 5 2 0
v 5.1 2 0
v 9 2 0
v 9.1 2 0
v 12.4 2 0
v 12.6 2 0
v 12.4 2 -0.1
v 12.6 2 -0.1
v 0 2 -0.9
v 3 2 -0.9
v 3.1 2 -0.9
v 5 2 -0.9
v 5.1 2 -0.9
v 9 2 -0.9
v 9.1 2 -0.9
v 12.4 2 -0.9
v 0 2 -1
v 1 2 -1
v 1.1 2 -1
v 4 2 -1
v 4.1 2 -1
v 7 2 -1
v 7.1 2 -1
v 10 2 -1
v 10.1 2 -1
v 12.4 2 -1
v 0 2 -1.9
v 1 2 -1.9
v 1.1 2 -1.9
v 4 2 -1.9
v 4.1 2 -1.9
v 7 2 -1.9
v 7.1 2 -1.9
v 10 2 -1.9
v 10.1 2 -1.9
v 12.4 2 -1.9
v 0 2 -2
v 2 2 -2
v 2.1 2 -2
v 6 2 -2
v 6.1 2 -2
v 9 2 -2
v 9.1 2 -2
v 11 2 -2
v 11.1 2 -2
v 12.4 2 -2
v 0 2 -2.9
v 2 2 -2.9
v 2.1 2 -2.9
v 6 2 -2.9
v 6.1 2 -2.9
v 9 2 -2.9
v 9.1 2 -2.9
v 11 2 -2.9
v 11.1 2 -2.9
v 12.4 2 -2.9
v 0 2 -3
v 3 2 -3
v 3.1 2 -3
v 5 2 -3
v 5.1 2 -3
v 8 2 -3
v 8.1 2 -3
v 12 2 -3
v 12.1 2 -3
v 12.4 2 -3
v 0 2 -3.9
v 3 2 -3.9
v 3.1 2 -3.9
v 5 2 -3.9
v 5.1 2 -3.9
v 8 2 -3.9
v 8.1 2 -3.9
v 12 2 -3.9
v 12.1 2 -3.9
v 12.4 2 -3.9
v 0 2 -4
v 3 2 -4
v 3.1 2 -4
v 6 2 -4
v 6.1 2 -4
v 10 2 -4
v 10.1 2 -4
v 12.4 2 -4
v 12.5 2 -4
v 0 2 -4.9
v 3 2 -4.9
v 3.1 2 -4.9
v 6 2 -4.9
v 6.1 2 -4.9
v 10 2 -4.9
v 10.1 2 -4.9
v 12.4 2 -4.9
v 12.5 2 -4.9
v 0 2 -5
v 2 2 -5
v 2.1 2 -5
v 5 2 -5
v 5.1 2 -5
v 9 2 -5
v 9.1 2 -5
v 12.4 2 -5
v 0 2 -5.9
v 2 2 -5.9
v 2.1 2 -5.9
v 5 2 -5.9
v 5.1 2 -5.9
v 9 2 -5.9
v 9.1 2 -5.9
v 12.4 2 -5.9
v 12.6 2 -5.9
v 0 2 -6
v 12.4 2 -6
v 12.6 2 -6
v 12.3 11.4 0
v 12.5 11.4 0
v 12.3 11.4 -6
v 12.5 11.4 -6
v 0 2.1 0
v 3 2.1 0
v 3.1 2.1 0
v 5 2.1 0
v 5.1 2.1 0
v 9 2.1 0
v 9.1 2.1 0
v 12.4 2.1 0
v 0 2.1 -0.9
v 3 2.1 -0.9
v 3.1 2.1 -0.9
v 5 2.1 -0.9
v 5.1 2.1 -0.9
v 9 2.1 -0.9
v 9.1 2.1 -0.9
v 12.4 2.1 -0.9
v 0 2.1 -1
v 1 2.1 -1
v 1.1 2.1 -1
v 4 2.1 -1
v 4.1 2.1 -1
v 7 2.1 -1
v 7.1 2.1 -1
v 10 2.1 -1
v 10.1 2.1 -1
v 12.4 2.1 -1
v 0 2.1 -1.9
v 1 2.1 -1.9
v 1.1 2.1 -1.9
v 4 2.1 -1.9
v 4.1 2.1 -1.9
v 7 2.1 -1.9
v 7.1 2.1 -1.9
v 10 2.1 -1.9
v 10.1 2.1 -1.9
v 12.4 2.1 -1.9
v 0 2.1 -2
v 2 2.1 -2
v 2.1 2.1 -2
v 6 2.1 -2
v 6.1 2.1 -2
v 9 2.1 -2
v 9.1 2.1 -2
v 11 2.1 -2
v 11.1 2.1 -2
v 12.4 2.1 -2
v 0 2.1 -2.9
v 2 2.1 -2.9
v 2.1 2.1 -2.9
v 6 2.1 -2.9
v 6.1 2.1 -2.9
v 9 2.1 -2.9
v 9.1 2.1 -2.9
v 11 2.1 -2.9
v 11.1 2.1 -2.9
v 12.4 2.1 -2.9
v 0 2.1 -3
v 3 2.1 -3
v 3.1 2.1 -3
v 5 2.1 -3
v 5.1 2.1 -3
v 8 2.1 -3
v 8.1 2.1 -3
v 12 2.1 -3
v 12.1 2.1 -3
v 12.4 2.1 -3
v 0 2.1 -3.9
v 3 2.1 -3.9
v 3.1 2.1 -3.9
v 5 2.1 -3.9
v 5.1 2.1 -3.9
v 8 2.1 -3.9
v 8.1 2.1 -3.9
v 12 2.1 -3.9
v 12.1 2.1 -3.9
v 12.4 2.1 -3.9
v 0 2.1 -4
v 3 2.1 -4
v 3.1 2.1 -4
v 6 2.1 -4
v 6.1 2.1 -4
v 10 2.1 -4
v 10.1 2.1 -4
v 12.4 2.1 -4
v 0 2.1 -4.9
v 3 2.1 -4.9
v 3.1 2.1 -4.9
v 6 2.1 -4.9
v 6.1 2.1 -4.9
v 10 2.1 -4.9
v 10.1 2.1 -4.9
v 12.4 2.1 -4.9
v 0 2.1 -5
v 2 2.1 -5
v 2.1 2.1 -5
v 5 2.1 -5
v 5.1 2.1 -5
v 9 2.1 -5
v 9.1 2.1 -5
v 12.4 2.1 -5
v 0 2.1 -5.9
v 2 2.1 -5.9
v 2.1 2.1 -5.9
v 5 2.1 -5.9
v 5.1 2.1 -5.9
v 9 2.1 -5.9
v 9.1 2.1 -5.9
v 12.4 2.1 -5.9
v 0 2.1 -6
v 12.4 2.1 -6
v 12.4 2.4 0
v 12.5 2.4 0
v 12.4 2.4 -6
v 12.5 2.4 -6
v 12.3 12 0
v 12.6 12 0
v 12.3 12 -6
v 12.6 12 -6

# faces
f 14/4/1 2/4/1 1/4/1
f 15/6/1 3/6/1 2/6/1
f 15/4/1 2/4/1 14/4/1
f 16/5/1 4/5/1 3/5/1
f 16/6/1 3/6/1 15/6/1
f 17/6/1 5/6/1 4/6/1
f 17/5/1 4/5/1 16/5/1
f 18/5/1 6/5/1 5/5/1
f 18/6/1 5/6/1 17/6/1
f 19/6/1 7/6/1 6/6/1
f 19/5/1 6/5/1 18/5/1
f 20/4/1 8/4/1 7/4/1
f 20/6/1 7/6/1 19/6/1
f 21/6/1 9/6/1 8/6/1
f 21/4/1 8/4/1 20/4/1
f 22/5/1 10/5/1 9/5/1
f 22/6/1 9/6/1 21/6/1
f 23/6/1 11/6/1 10/6/1
f 23/5/1 10/5/1 22/5/1
f 24/5/1 12/5/1 11/5/1
f 24/6/1 11/6/1 23/6/1
f 25/6/1 13/6/1 12/6/1
f 25/5/1 12/5/1 24/5/1
f 26/6/1 13/6/1 25/6/1
f 29/3/1 28/3/1 27/3/1
f 30/3/1 28/3/1 29/3/1
f 44/3/1 32/3/1 31/3/1
f 44/3/1 43/3/1 42/3/1
f 44/3/1 42/3/1 41/3/1
f 44/3/1 41/3/1 40/3/1
f 44/3/1 40/3/1 39/3/1
f 44/3/1 39/3/1 38/3/1
f 44/3/1 38/3/1 37/3/1
f 44/3/1 37/3/1 36/3/1
f 44/3/1 36/3/1 35/3/1
f 44/3/1 35/3/1 34/3/1
f 44/3/1 34/3/1 33/3/1
f 44/3/1 33/3/1 32/3/1
f 45/3/1 43/3/1 44/3/1
f 48/2/1 47/2/1 46/2/1
f 49/2/1 47/2/1 48/2/1
f 50/3/2 51/3/2 54/3/2
f 51/1/2 52/1/2 55/1/2
f 54/3/2 51/3/2 55/3/2
f 52/3/2 53/3/2 56/3/2
f 55/1/2 52/1/2 56/1/2
f 56/3/2 53/3/2 57/3/2
f 54/2/2 55/2/2 58/2/2
f 55/2/2 56/2/2 58/2/2
f 56/2/2 57/2/2 58/2/2
f 58/2/2 57/2/2 59/2/2
f 58/3/2 59/3/2 60/3/2
f 60/3/2 59/3/2 61/3/2
f 64/4/3 63/4/3 62/4/3
f 65/4/3 63/4/3 64/4/3
f 66/6/3 65/6/3 64/6/3
f 67/6/3 65/6/3 66/6/3
f 68/5/3 67/5/3 66/5/3
f 69/5/3 67/5/3 68/5/3
f 70/6/3 69/6/3 68/6/3
f 71/6/3 69/6/3 70/6/3
f 72/4/3 71/4/3 70/4/3
f 73/4/3 71/4/3 72/4/3
f 74/6/3 73/6/3 72/6/3
f 75/6/3 73/6/3 74/6/3
f 78/5/3 75/5/3 74/5/3
f 79/5/3 75/5/3 78/5/3
f 81/3/3 79/3/3 78/3/3
f 81/3/3 80/3/3 79/3/3
f 82/3/3 80/3/3 81/3/3
f 83/3/3 77/3/3 76/3/3
f 84/3/3 77/3/3 83/3/3
f 85/3/3 81/3/3 78/3/3
f 86/2/3 82/2/3 81/2/3
f 86/3/3 81/3/3 85/3/3
f 86/2/3 83/2/3 82/2/3
f 86/2/3 84/2/3 83/2/3
f 87/3/3 77/3/3 84/3/3
f 87/2/3 84/2/3 86/2/3
f 88/3/3 77/3/3 87/3/3
f 89/6/4 90/6/4 93/6/4
f 93/6/4 90/6/4 94/6/4
f 93/3/4 94/3/4 96/3/4
f 94/3/4 95/3/4 96/3/4
f 96/3/4 95/3/4 97/3/4
f 91/3/4 92/3/4 98/3/4
f 98/3/4 92/3/4 99/3/4
f 93/3/4 96/3/4 100/3/4
f 96/2/4 97/2/4 101/2/4
f 100/3/4 96/3/4 101/3/4
f 97/2/4 98/2/4 101/2/4
f 98/2/4 99/2/4 101/2/4
f 99/3/4 92/3/4 102/3/4
f 101/2/4 99/2/4 102/2/4
f 102/3/4 92/3/4 103/3/4
f 113/5/5 111/5/5 110/5/5
f 113/3/5 112/3/5 111/3/5
f 114/3/5 112/3/5 113/3/5
f 115/4/5 105/4/5 104/4/5
f 116/6/5 106/6/5 105/6/5
f 116/4/5 105/4/5 115/4/5
f 117/5/5 107/5/5 106/5/5
f 117/6/5 106/6/5 116/6/5
f 118/6/5 108/6/5 107/6/5
f 118/5/5 107/5/5 117/5/5
f 119/4/5 109/4/5 108/4/5
f 119/6/5 108/6/5 118/6/5
f 120/6/5 110/6/5 109/6/5
f 120/4/5 109/4/5 119/4/5
f 121/5/5 113/5/5 110/5/5
f 121/6/5 110/6/5 120/6/5
f 122/1/5 114/1/5 113/1/5
f 122/5/5 113/5/5 121/5/5
f 123/6/5 116/6/5 115/6/5
f 123/6/5 117/6/5 116/6/5
f 123/6/5 122/6/5 121/6/5
f 123/6/5 121/6/5 120/6/5
f 123/6/5 120/6/5 119/6/5
f 123/6/5 119/6/5 118/6/5
f 123/6/5 118/6/5 117/6/5
f 124/6/5 122/6/5 123/6/5
f 125/6/5 122/6/5 124/6/5
f 126/6/5 122/6/5 125/6/5
f 127/6/5 122/6/5 126/6/5
f 128/6/5 122/6/5 127/6/5
f 129/6/5 122/6/5 128/6/5
f 130/6/5 122/6/5 129/6/5
f 131/6/5 122/6/5 130/6/5
f 132/1/5 114/1/5 122/1/5
f 132/6/5 122/6/5 131/6/5
f 133/5/5 124/5/5 123/5/5
f 134/6/5 125/6/5 124/6/5
f 134/5/5 124/5/5 133/5/5
f 135/4/5 126/4/5 125/4/5
f 135/6/5 125/6/5 134/6/5
f 136/6/5 127/6/5 126/6/5
f 136/4/5 126/4/5 135/4/5
f 137/5/5 128/5/5 127/5/5
f 137/6/5 127/6/5 136/6/5
f 138/6/5 129/6/5 128/6/5
f 138/5/5 128/5/5 137/5/5
f 139/5/5 130/5/5 129/5/5
f 139/6/5 129/6/5 138/6/5
f 140/6/5 131/6/5 130/6/5
f 140/5/5 130/5/5 139/5/5
f 141/4/5 132/4/5 131/4/5
f 141/6/5 131/6/5 140/6/5
f 142/1/5 114/1/5 132/1/5
f 142/4/5 132/4/5 141/4/5
f 143/6/5 139/6/5 138/6/5
f 143/6/5 141/6/5 140/6/5
f 143/6/5 142/6/5 141/6/5
f 143/6/5 140/6/5 139/6/5
f 143/6/5 138/6/5 137/6/5
f 143/6/5 137/6/5 136/6/5
f 143/6/5 136/6/5 135/6/5
f 143/6/5 135/6/5 134/6/5
f 143/6/5 134/6/5 133/6/5
f 144/6/5 142/6/5 143/6/5
f 145/6/5 142/6/5 144/6/5
f 146/6/5 142/6/5 145/6/5
f 147/6/5 142/6/5 146/6/5
f 148/6/5 142/6/5 147/6/5
f 149/6/5 142/6/5 148/6/5
f 150/6/5 142/6/5 149/6/5
f 151/6/5 142/6/5 150/6/5
f 152/1/5 114/1/5 142/1/5
f 152/6/5 142/6/5 151/6/5
f 153/5/5 144/5/5 143/5/5
f 154/6/5 145/6/5 144/6/5
f 154/5/5 144/5/5 153/5/5
f 155/4/5 146/4/5 145/4/5
f 155/6/5 145/6/5 154/6/5
f 156/6/5 147/6/5 146/6/5
f 156/4/5 146/4/5 155/4/5
f 157/5/5 148/5/5 147/5/5
f 157/6/5 147/6/5 156/6/5
f 158/6/5 149/6/5 148/6/5
f 158/5/5 148/5/5 157/5/5
f 159/4/5 150/4/5 149/4/5
f 159/6/5 149/6/5 158/6/5
f 160/6/5 151/6/5 150/6/5
f 160/4/5 150/4/5 159/4/5
f 161/5/5 152/5/5 151/5/5
f 161/6/5 151/6/5 160/6/5
f 162/1/5 114/1/5 152/1/5
f 162/5/5 152/5/5 161/5/5
f 163/6/5 159/6/5 158/6/5
f 163/6/5 161/6/5 160/6/5
f 163/6/5 162/6/5 161/6/5
f 163/6/5 160/6/5 159/6/5
f 163/6/5 158/6/5 157/6/5
f 163/6/5 157/6/5 156/6/5
f 163/6/5 156/6/5 155/6/5
f 163/6/5 155/6/5 154/6/5
f 163/6/5 154/6/5 153/6/5
f 164/6/5 162/6/5 163/6/5
f 165/6/5 162/6/5 164/6/5
f 166/6/5 162/6/5 165/6/5
f 167/6/5 162/6/5 166/6/5
f 168/6/5 162/6/5 167/6/5
f 169/6/5 162/6/5 168/6/5
f 170/6/5 162/6/5 169/6/5
f 171/6/5 162/6/5 170/6/5
f 172/1/5 114/1/5 162/1/5
f 172/6/5 162/6/5 171/6/5
f 173/4/5 164/4/5 163/4/5
f 174/6/5 165/6/5 164/6/5
f 174/4/5 164/4/5 173/4/5
f 175/5/5 166/5/5 165/5/5
f 175/6/5 165/6/5 174/6/5
f 176/6/5 167/6/5 166/6/5
f 176/5/5 166/5/5 175/5/5
f 177/4/5 168/4/5 167/4/5
f 177/6/5 167/6/5 176/6/5
f 178/6/5 169/6/5 168/6/5
f 178/4/5 168/4/5 177/4/5
f 179/5/5 170/5/5 169/5/5
f 179/6/5 169/6/5 178/6/5
f 180/6/5 171/6/5 170/6/5
f 180/5/5 170/5/5 179/5/5
f 181/4/5 172/4/5 171/4/5
f 181/6/5 171/6/5 180/6/5
f 182/1/5 114/1/5 172/1/5
f 182/4/5 172/4/5 181/4/5
f 183/6/5 179/6/5 178/6/5
f 183/6/5 181/6/5 180/6/5
f 183/6/5 182/6/5 181/6/5
f 183/6/5 180/6/5 179/6/5
f 183/6/5 178/6/5 177/6/5
f 183/6/5 177/6/5 176/6/5
f 183/6/5 176/6/5 175/6/5
f 183/6/5 175/6/5 174/6/5
f 183/6/5 174/6/5 173/6/5
f 184/6/5 182/6/5 183/6/5
f 185/6/5 182/6/5 184/6/5
f 186/6/5 182/6/5 185/6/5
f 187/6/5 182/6/5 186/6/5
f 188/6/5 182/6/5 187/6/5
f 189/6/5 182/6/5 188/6/5
f 190/1/5 114/1/5 182/1/5
f 190/6/5 182/6/5 189/6/5
f 191/1/5 114/1/5 190/1/5
f 192/5/5 184/5/5 183/5/5
f 193/6/5 185/6/5 184/6/5
f 193/5/5 184/5/5 192/5/5
f 194/4/5 186/4/5 185/4/5
f 194/6/5 185/6/5 193/6/5
f 195/6/5 187/6/5 186/6/5
f 195/4/5 186/4/5 194/4/5
f 196/5/5 188/5/5 187/5/5
f 196/6/5 187/6/5 195/6/5
f 197/6/5 189/6/5 188/6/5
f 197/5/5 188/5/5 196/5/5
f 198/4/5 190/4/5 189/4/5
f 198/6/5 189/6/5 197/6/5
f 198/4/5 191/4/5 190/4/5
f 199/4/5 191/4/5 198/4/5
f 200/1/5 114/1/5 191/1/5
f 200/4/5 191/4/5 199/4/5
f 201/6/5 196/6/5 195/6/5
f 201/6/5 199/6/5 198/6/5
f 201/6/5 193/6/5 192/6/5
f 201/6/5 198/6/5 197/6/5
f 201/6/5 197/6/5 196/6/5
f 201/6/5 195/6/5 194/6/5
f 201/6/5 194/6/5 193/6/5
f 202/6/5 199/6/5 201/6/5
f 203/6/5 199/6/5 202/6/5
f 204/6/5 199/6/5 203/6/5
f 205/6/5 199/6/5 204/6/5
f 206/6/5 199/6/5 205/6/5
f 207/6/5 199/6/5 206/6/5
f 208/1/5 200/1/5 199/1/5
f 208/6/5 199/6/5 207/6/5
f 209/5/5 202/5/5 201/5/5
f 210/6/5 203/6/5 202/6/5
f 210/5/5 202/5/5 209/5/5
f 211/4/5 204/4/5 203/4/5
f 211/6/5 203/6/5 210/6/5
f 212/6/5 205/6/5 204/6/5
f 212/4/5 204/4/5 211/4/5
f 213/5/5 206/5/5 205/5/5
f 213/6/5 205/6/5 212/6/5
f 214/6/5 207/6/5 206/6/5
f 214/5/5 206/5/5 213/5/5
f 215/4/5 208/4/5 207/4/5
f 215/6/5 207/6/5 214/6/5
f 216/1/5 200/1/5 208/1/5
f 216/4/5 208/4/5 215/4/5
f 217/1/5 114/1/5 200/1/5
f 217/1/5 200/1/5 216/1/5
f 218/6/5 216/6/5 215/6/5
f 218/6/5 213/6/5 212/6/5
f 218/6/5 215/6/5 214/6/5
f 218/6/5 214/6/5 213/6/5
f 218/6/5 212/6/5 211/6/5
f 218/6/5 211/6/5 210/6/5
f 218/6/5 210/6/5 209/6/5
f 219/3/5 217/3/5 216/3/5
f 219/6/5 216/6/5 218/6/5
f 220/3/5 217/3/5 219/3/5
f 223/3/5 222/3/5 221/3/5
f 224/3/5 222/3/5 223/3/5
f 225/4/6 226/4/6 233/4/6
f 226/6/6 227/6/6 234/6/6
f 233/4/6 226/4/6 234/4/6
f 227/5/6 228/5/6 235/5/6
f 234/6/6 227/6/6 235/6/6
f 228/6/6 229/6/6 236/6/6
f 235/5/6 228/5/6 236/5/6
f 229/4/6 230/4/6 237/4/6
f 236/6/6 229/6/6 237/6/6
f 230/6/6 231/6/6 238/6/6
f 237/4/6 230/4/6 238/4/6
f 231/5/6 232/5/6 239/5/6
f 238/6/6 231/6/6 239/6/6
f 239/5/6 232/5/6 240/5/6
f 237/6/6 238/6/6 241/6/6
f 233/6/6 234/6/6 241/6/6
f 239/6/6 240/6/6 241/6/6
f 238/6/6 239/6/6 241/6/6
f 236/6/6 237/6/6 241/6/6
f 235/6/6 236/6/6 241/6/6
f 234/6/6 235/6/6 241/6/6
f 241/6/6 240/6/6 242/6/6
f 242/6/6 240/6/6 243/6/6
f 243/6/6 240/6/6 244/6/6
f 244/6/6 240/6/6 245/6/6
f 245/6/6 240/6/6 246/6/6
f 246/6/6 240/6/6 247/6/6
f 247/6/6 240/6/6 248/6/6
f 248/6/6 240/6/6 249/6/6
f 249/6/6 240/6/6 250/6/6
f 241/5/6 242/5/6 251/5/6
f 242/6/6 243/6/6 252/6/6
f 251/5/6 242/5/6 252/5/6
f 243/4/6 244/4/6 253/4/6
f 252/6/6 243/6/6 253/6/6
f 244/6/6 245/6/6 254/6/6
f 253/4/6 244/4/6 254/4/6
f 245/5/6 246/5/6 255/5/6
f 254/6/6 245/6/6 255/6/6
f 246/6/6 247/6/6 256/6/6
f 255/5/6 246/5/6 256/5/6
f 247/5/6 248/5/6 257/5/6
f 256/6/6 247/6/6 257/6/6
f 248/6/6 249/6/6 258/6/6
f 257/5/6 248/5/6 258/5/6
f 249/4/6 250/4/6 259/4/6
f 258/6/6 249/6/6 259/6/6
f 259/4/6 250/4/6 260/4/6
f 251/6/6 252/6/6 261/6/6
f 252/6/6 253/6/6 261/6/6
f 259/6/6 260/6/6 261/6/6
f 258/6/6 259/6/6 261/6/6
f 257/6/6 258/6/6 261/6/6
f 256/6/6 257/6/6 261/6/6
f 255/6/6 256/6/6 261/6/6
f 254/6/6 255/6/6 261/6/6
f 253/6/6 254/6/6 261/6/6
f 261/6/6 260/6/6 262/6/6
f 262/6/6 260/6/6 263/6/6
f 263/6/6 260/6/6 264/6/6
f 264/6/6 260/6/6 265/6/6
f 265/6/6 260/6/6 266/6/6
f 266/6/6 260/6/6 267/6/6
f 267/6/6 260/6/6 268/6/6
f 268/6/6 260/6/6 269/6/6
f 269/6/6 260/6/6 270/6/6
f 261/5/6 262/5/6 271/5/6
f 262/6/6 263/6/6 272/6/6
f 271/5/6 262/5/6 272/5/6
f 263/4/6 264/4/6 273/4/6
f 272/6/6 263/6/6 273/6/6
f 264/6/6 265/6/6 274/6/6
f 273/4/6 264/4/6 274/4/6
f 265/5/6 266/5/6 275/5/6
f 274/6/6 265/6/6 275/6/6
f 266/6/6 267/6/6 276/6/6
f 275/5/6 266/5/6 276/5/6
f 267/4/6 268/4/6 277/4/6
f 276/6/6 267/6/6 277/6/6
f 268/6/6 269/6/6 278/6/6
f 277/4/6 268/4/6 278/4/6
f 269/5/6 270/5/6 279/5/6
f 278/6/6 269/6/6 279/6/6
f 279/5/6 270/5/6 280/5/6
f 271/6/6 272/6/6 281/6/6
f 272/6/6 273/6/6 281/6/6
f 279/6/6 280/6/6 281/6/6
f 278/6/6 279/6/6 281/6/6
f 277/6/6 278/6/6 281/6/6
f 276/6/6 277/6/6 281/6/6
f 275/6/6 276/6/6 281/6/6
f 274/6/6 275/6/6 281/6/6
f 273/6/6 274/6/6 281/6/6
f 281/6/6 280/6/6 282/6/6
f 282/6/6 280/6/6 283/6/6
f 283/6/6 280/6/6 284/6/6
f 284/6/6 280/6/6 285/6/6
f 285/6/6 280/6/6 286/6/6
f 286/6/6 280/6/6 287/6/6
f 287/6/6 280/6/6 288/6/6
f 288/6/6 280/6/6 289/6/6
f 289/6/6 280/6/6 290/6/6
f 281/4/6 282/4/6 291/4/6
f 282/6/6 283/6/6 292/6/6
f 291/4/6 282/4/6 292/4/6
f 283/5/6 284/5/6 293/5/6
f 292/6/6 283/6/6 293/6/6
f 284/6/6 285/6/6 294/6/6
f 293/5/6 284/5/6 294/5/6
f 285/4/6 286/4/6 295/4/6
f 294/6/6 285/6/6 295/6/6
f 286/6/6 287/6/6 296/6/6
f 295/4/6 286/4/6 296/4/6
f 287/5/6 288/5/6 297/5/6
f 296/6/6 287/6/6 297/6/6
f 288/6/6 289/6/6 298/6/6
f 297/5/6 288/5/6 298/5/6
f 289/4/6 290/4/6 299/4/6
f 298/6/6 289/6/6 299/6/6
f 299/4/6 290/4/6 300/4/6
f 291/6/6 292/6/6 301/6/6
f 292/6/6 293/6/6 301/6/6
f 299/6/6 300/6/6 301/6/6
f 298/6/6 299/6/6 301/6/6
f 297/6/6 298/6/6 301/6/6
f 296/6/6 297/6/6 301/6/6
f 295/6/6 296/6/6 301/6/6
f 294/6/6 295/6/6 301/6/6
f 293/6/6 294/6/6 301/6/6
f 301/6/6 300/6/6 302/6/6
f 302/6/6 300/6/6 303/6/6
f 303/6/6 300/6/6 304/6/6
f 304/6/6 300/6/6 305/6/6
f 305/6/6 300/6/6 306/6/6
f 306/6/6 300/6/6 307/6/6
f 307/6/6 300/6/6 308/6/6
f 301/5/6 302/5/6 309/5/6
f 302/6/6 303/6/6 310/6/6
f 309/5/6 302/5/6 310/5/6
f 303/4/6 304/4/6 311/4/6
f 310/6/6 303/6/6 311/6/6
f 304/6/6 305/6/6 312/6/6
f 311/4/6 304/4/6 312/4/6
f 305/5/6 306/5/6 313/5/6
f 312/6/6 305/6/6 313/6/6
f 306/6/6 307/6/6 314/6/6
f 313/5/6 306/5/6 314/5/6
f 307/4/6 308/4/6 315/4/6
f 314/6/6 307/6/6 315/6/6
f 315/4/6 308/4/6 316/4/6
f 309/6/6 310/6/6 317/6/6
f 310/6/6 311/6/6 317/6/6
f 315/6/6 316/6/6 317/6/6
f 314/6/6 315/6/6 317/6/6
f 313/6/6 314/6/6 317/6/6
f 312/6/6 313/6/6 317/6/6
f 311/6/6 312/6/6 317/6/6
f 317/6/6 316/6/6 318/6/6
f 318/6/6 316/6/6 319/6/6
f 319/6/6 316/6/6 320/6/6
f 320/6/6 316/6/6 321/6/6
f 321/6/6 316/6/6 322/6/6
f 322/6/6 316/6/6 323/6/6
f 323/6/6 316/6/6 324/6/6
f 317/5/6 318/5/6 325/5/6
f 318/6/6 319/6/6 326/6/6
f 325/5/6 318/5/6 326/5/6
f 319/4/6 320/4/6 327/4/6
f 326/6/6 319/6/6 327/6/6
f 320/6/6 321/6/6 328/6/6
f 327/4/6 320/4/6 328/4/6
f 321/5/6 322/5/6 329/5/6
f 328/6/6 321/6/6 329/6/6
f 322/6/6 323/6/6 330/6/6
f 329/5/6 322/5/6 330/5/6
f 323/4/6 324/4/6 331/4/6
f 330/6/6 323/6/6 331/6/6
f 331/4/6 324/4/6 332/4/6
f 325/6/6 326/6/6 333/6/6
f 326/6/6 327/6/6 333/6/6
f 331/6/6 332/6/6 333/6/6
f 330/6/6 331/6/6 333/6/6
f 329/6/6 330/6/6 333/6/6
f 328/6/6 329/6/6 333/6/6
f 327/6/6 328/6/6 333/6/6
f 333/6/6 332/6/6 334/6/6
f 335/3/6 336/3/6 337/3/6
f 337/3/6 336/3/6 338/3/6
f 339/3/6 340/3/6 341/3/6
f 341/3/6 340/3/6 342/3/6
